<svg width="36" height="29" viewBox="0 0 36 29" fill="none" xmlns="http://www.w3.org/2000/svg">
<path d="M27.6042 0H34.6007L29.7668 14.69C33.3286 15.1965 36 17.8559 36 21.7817C36 25.8341 32.8198 29 28.4947 29C24.2968 29 20.9894 26.0873 20.9894 21.5284C20.9894 17.476 23.0247 11.9039 27.6042 0ZM6.61484 0H13.6113L8.77739 14.69C12.3392 15.1965 15.0106 17.8559 15.0106 21.7817C15.0106 25.8341 11.8304 29 7.5053 29C3.30742 29 0 26.0873 0 21.5284C0 17.476 2.03534 11.9039 6.61484 0Z" fill="#E0E4ED"/>
</svg>
