<svg width="389" height="73" viewBox="0 0 389 73" fill="none" xmlns="http://www.w3.org/2000/svg">
<path d="M115.487 23.2036H88.4792V28.7404H99.0873V57.8746H104.879V28.7404H115.487V23.2036Z" fill="white"/>
<path d="M122.111 32.458C114.722 32.458 108.943 38.1398 108.943 45.4168C108.943 52.6937 114.722 58.3756 122.111 58.3756C129.5 58.3756 135.239 52.6937 135.239 45.4168C135.239 38.1398 129.46 32.458 122.111 32.458ZM122.111 53.1551C117.73 53.1551 114.524 49.8858 114.524 45.4168C114.524 40.9478 117.744 37.6784 122.111 37.6784C126.478 37.6784 129.658 40.9478 129.658 45.4168C129.658 49.8858 126.491 53.1551 122.111 53.1551Z" fill="white"/>
<path d="M178.397 32.458C171.311 32.458 165.73 38.1398 165.73 45.4168C165.73 52.6937 171.311 58.3756 178.647 58.3756C183.476 58.3756 187.395 56.1081 189.915 52.351L185.284 49.7408C183.978 51.9951 181.669 53.5111 178.647 53.5111C174.729 53.5111 171.905 51.2041 171.259 47.1306H190.773C190.878 46.5242 190.878 45.8782 190.878 45.2718C190.878 37.8894 185.706 32.458 178.41 32.458H178.397ZM171.404 43.0571C172.209 39.4449 174.874 37.2829 178.344 37.2829C182.117 37.2829 184.73 39.6954 185.231 43.0571H171.404Z" fill="white"/>
<path d="M199.533 26.7231H193.952V50.2282C193.952 55.4091 196.67 57.8611 202.344 57.8611H206.17V52.6407H202.753C200.497 52.6407 199.533 51.6388 199.533 49.6746V38.0736H206.17V32.9455H199.533V26.71V26.7231Z" fill="white"/>
<path d="M221.963 32.458C218.902 32.458 216.488 33.5654 214.931 35.4769V23.2168H209.35V57.8746H214.931V44.204C214.931 40.2359 217.398 37.718 221.119 37.718C224.84 37.718 226.951 40.1304 226.951 44.204V57.8746H232.532V43.703C232.532 36.8215 228.151 32.4448 221.977 32.4448L221.963 32.458Z" fill="white"/>
<path d="M247.837 32.458C240.752 32.458 235.171 38.1398 235.171 45.4168C235.171 52.6937 240.752 58.3756 248.088 58.3756C252.917 58.3756 256.835 56.1081 259.355 52.351L254.724 49.7408C253.418 51.9951 251.109 53.5111 248.088 53.5111C244.169 53.5111 241.346 51.2041 240.699 47.1306H260.213C260.319 46.5242 260.319 45.8782 260.319 45.2718C260.319 37.8894 255.147 32.458 247.85 32.458H247.837ZM240.844 43.0571C241.649 39.4449 244.314 37.2829 247.784 37.2829C251.558 37.2829 254.17 39.6954 254.672 43.0571H240.844Z" fill="white"/>
<path d="M268.816 36.4256V32.9585H263.485V57.8742H269.066V44.8626C269.066 41.0001 270.927 38.5349 275.452 38.5349H277.814V32.9585H276.099C272.576 32.9585 270.214 34.2636 268.802 36.4256H268.816Z" fill="white"/>
<path d="M314.163 32.9585L308.53 50.7422L303.503 35.5292C302.988 33.9868 301.55 32.9585 299.94 32.9585C298.317 32.9585 296.879 33.9999 296.378 35.5292L291.351 50.7422L285.717 32.9585H279.833L287.419 55.198C287.96 56.7932 289.464 57.8742 291.166 57.8742C292.868 57.8742 294.386 56.78 294.913 55.1717L299.901 40.2354L304.888 55.1717C305.429 56.78 306.933 57.8742 308.635 57.8742C310.324 57.8742 311.828 56.8063 312.382 55.198L320.008 32.9585H314.177H314.163Z" fill="white"/>
<path d="M332.727 32.458C325.339 32.458 319.56 38.1398 319.56 45.4168C319.56 52.6937 325.339 58.3756 332.727 58.3756C340.116 58.3756 345.856 52.6937 345.856 45.4168C345.856 38.1398 340.077 32.458 332.727 32.458ZM332.727 53.1551C328.36 53.1551 325.141 49.8858 325.141 45.4168C325.141 40.9478 328.36 37.6784 332.727 37.6784C337.095 37.6784 340.274 40.9478 340.274 45.4168C340.274 49.8858 337.108 53.1551 332.727 53.1551Z" fill="white"/>
<path d="M354.194 36.4256V32.9585H348.864V57.8742H354.445V44.8626C354.445 41.0001 356.305 38.5349 360.831 38.5349H363.192V32.9585H361.477C357.954 32.9585 355.593 34.2636 354.181 36.4256H354.194Z" fill="white"/>
<path d="M379.197 43.558L388.446 32.959H381.756L370.898 45.3113V23.2036H365.317V57.8746H370.898V52.7465L375.516 47.7238L382.416 57.8746H389L379.197 43.558Z" fill="white"/>
<path d="M158.46 35.1605C156.244 33.4599 153.447 32.458 150.359 32.458C142.971 32.458 137.192 38.1398 137.192 45.4168C137.192 52.6937 142.971 58.3756 150.359 58.3756C153.434 58.3756 156.231 57.3605 158.46 55.6731V57.1364C158.46 59.8652 156.244 62.08 153.513 62.08H140.385V67.1026H153.592C159.054 67.1026 163.474 62.6732 163.474 57.2287V32.959H158.447V35.1605H158.46ZM150.359 53.1551C145.979 53.1551 142.773 49.8858 142.773 45.4168C142.773 40.9478 145.992 37.6784 150.359 37.6784C154.727 37.6784 157.906 40.9478 157.906 45.4168C157.906 49.8858 154.74 53.1551 150.359 53.1551Z" fill="white"/>
<path d="M8.93238 30.1851C8.27268 30.1851 7.63936 30.4487 7.16438 30.9101C6.663 31.4111 6.39912 32.0834 6.43871 32.7821C6.47829 33.4808 6.79494 34.1399 7.3359 34.5881L16.4926 42.1683C17.0467 42.6297 17.8384 42.5902 18.3529 42.076C18.8543 41.5751 18.8939 40.7709 18.4453 40.2172L10.8587 31.0683C10.4101 30.5278 9.75041 30.1982 9.05113 30.1719C9.01154 30.1719 8.97196 30.1719 8.93238 30.1719V30.1851Z" fill="#00D35A"/>
<path d="M30.6102 54.3365C30.1088 54.8374 30.0692 55.6416 30.5178 56.1953L38.1044 65.3442C38.553 65.8847 39.2127 66.2143 39.912 66.2406C40.6113 66.2802 41.2974 66.0033 41.7855 65.5156C42.2737 65.0278 42.5508 64.3291 42.5112 63.6436C42.4716 62.9317 42.155 62.299 41.614 61.8376L32.4574 54.2574C31.9032 53.796 31.1116 53.8355 30.597 54.3497L30.6102 54.3365Z" fill="#00D35A"/>
<path d="M39.4371 29.46C39.0017 29.46 38.5794 29.6709 38.3156 30.0532L31.4679 39.769C31.0588 40.3358 30.9269 41.0609 31.072 41.7464C31.2172 42.4319 31.6526 43.0252 32.2595 43.3679C32.8664 43.7107 33.6053 43.7898 34.265 43.5788C34.9247 43.3679 35.4788 42.8801 35.7691 42.2474L40.7037 31.4374C41.0071 30.7914 40.7565 30.0268 40.1363 29.6709C39.912 29.5391 39.6745 29.4863 39.4371 29.4863V29.46Z" fill="#00D35A"/>
<path d="M17.3766 53.9277C17.0599 53.9277 16.7564 54.0332 16.4926 54.2441L7.33589 61.8243C6.79493 62.2725 6.46508 62.9316 6.4387 63.6303C6.41231 64.329 6.67619 65.0145 7.16437 65.5023C7.66574 66.0033 8.35183 66.2669 9.03792 66.2274C9.73721 66.201 10.3969 65.8714 10.8455 65.3309L18.4321 56.182C18.8939 55.6283 18.8543 54.8373 18.3397 54.3232C18.0758 54.0596 17.7196 53.9146 17.3634 53.9146L17.3766 53.9277Z" fill="#00D35A"/>
<path d="M24.4881 23.7515C23.7888 23.7515 23.1159 24.0415 22.641 24.5688C22.166 25.0829 21.9417 25.7816 22.0076 26.4803L23.1159 38.3186C23.1819 39.0304 23.7756 39.5709 24.4881 39.5709C25.2006 39.5709 25.7943 39.0304 25.8603 38.3186L26.9686 26.4803C27.0346 25.7816 26.7971 25.0961 26.3353 24.5688C25.8603 24.0547 25.1874 23.7515 24.4881 23.7515Z" fill="#00D35A"/>
<path d="M24.4882 56.8677C23.7757 56.8677 23.182 57.4082 23.116 58.1201L22.0077 69.9583C21.9417 70.657 22.1792 71.3425 22.641 71.8698C23.116 72.3839 23.7889 72.6871 24.4882 72.6871C25.1874 72.6871 25.8603 72.3971 26.3353 71.8698C26.8103 71.3557 27.0346 70.657 26.9686 69.9583L25.8603 58.1201C25.7944 57.4082 25.2006 56.8677 24.4882 56.8677Z" fill="#00D35A"/>
<path d="M2.49367 45.7148C1.87355 45.7148 1.27982 45.939 0.818031 46.3608C0.303463 46.8354 0 47.5077 0 48.2064C0 48.9051 0.290269 49.5774 0.818031 50.052C1.3326 50.5266 2.03188 50.7507 2.73117 50.6848L14.5794 49.5774C15.2919 49.5115 15.8329 48.9183 15.8329 48.2064C15.8329 47.4945 15.2919 46.9013 14.5794 46.8354L2.73117 45.728C2.652 45.728 2.57284 45.728 2.50687 45.728L2.49367 45.7148Z" fill="#00D35A"/>
<path d="M4.16931 37.3174C3.87904 37.3174 3.60196 37.3701 3.32489 37.4624C2.66519 37.6997 2.13743 38.2006 1.87354 38.8466C1.60966 39.4926 1.62286 40.2308 1.91313 40.8636C2.21659 41.4964 2.75755 41.9709 3.43044 42.1819L14.7905 45.6885C15.4766 45.8994 16.2023 45.5567 16.4794 44.8975C16.7564 44.2384 16.4794 43.487 15.846 43.1442L5.33038 37.5942C4.97415 37.4097 4.56513 37.3042 4.16931 37.3042V37.3174Z" fill="#00D35A"/>
<path d="M33.7636 50.6709C33.2227 50.6709 32.7081 51.0005 32.497 51.5278C32.2199 52.1869 32.497 52.9384 33.1303 53.2811L43.646 58.8311C44.2661 59.1607 44.9918 59.2134 45.6515 58.9761C46.3112 58.7388 46.8389 58.2379 47.1028 57.5919C47.3667 56.946 47.3535 56.2077 47.0632 55.5749C46.7598 54.9422 46.2188 54.4676 45.5459 54.2566L34.1858 50.75C34.0539 50.7104 33.9088 50.6841 33.7768 50.6841L33.7636 50.6709Z" fill="#00D35A"/>
<path d="M32.8927 25.4131C32.5364 25.4131 32.167 25.4922 31.8371 25.6504C31.2038 25.9536 30.7288 26.4941 30.5177 27.1664L27.0081 38.5169C26.797 39.2024 27.1401 39.9274 27.7998 40.2043C28.4595 40.4811 29.2115 40.2043 29.5546 39.5715L35.1093 29.0647C35.4391 28.4451 35.4919 27.7201 35.2544 27.0609C35.0169 26.4018 34.5155 25.8745 33.869 25.6108C33.5656 25.479 33.2357 25.4263 32.9059 25.4263L32.8927 25.4131Z" fill="#00D35A"/>
<path d="M20.6355 56.1025C20.1342 56.1025 19.6592 56.3662 19.4217 56.8408L13.867 67.3475C13.5371 67.9671 13.4844 68.6922 13.7218 69.3513C13.9593 70.0105 14.4607 70.5378 15.1072 70.8015C15.7537 71.0651 16.4926 71.0519 17.1259 70.7619C17.7592 70.4587 18.2342 69.9182 18.4453 69.2459L21.9549 57.8954C22.166 57.2099 21.823 56.4848 21.1633 56.208C20.9918 56.1421 20.807 56.1025 20.6355 56.1025Z" fill="#00D35A"/>
<path d="M16.0704 25.4126C15.7405 25.4126 15.4239 25.4785 15.1204 25.5972C14.4739 25.8608 13.9593 26.4013 13.7218 27.0473C13.4844 27.7064 13.5371 28.4315 13.867 29.0511L19.4217 39.5578C19.7515 40.1906 20.5036 40.4675 21.1765 40.1906C21.8362 39.9138 22.1792 39.1887 21.9681 38.5032L18.4585 27.1527C18.2474 26.4804 17.7724 25.9267 17.1391 25.6367C16.8093 25.4785 16.4398 25.3994 16.0836 25.3994L16.0704 25.4126Z" fill="#00D35A"/>
<path d="M28.3275 56.1025C28.156 56.1025 27.9713 56.1421 27.7998 56.208C27.1401 56.4848 26.797 57.2099 27.0081 57.8954L30.5177 69.2459C30.7288 69.9182 31.2038 70.4719 31.8371 70.7619C32.4704 71.0651 33.2093 71.0783 33.8426 70.8146C34.4891 70.551 35.0037 70.0105 35.2412 69.3645C35.4787 68.7054 35.4259 67.9803 35.0961 67.3607L29.5414 56.854C29.2907 56.3926 28.8157 56.1157 28.3275 56.1157V56.1025Z" fill="#00D35A"/>
<path d="M15.1995 50.6714C15.0675 50.6714 14.9224 50.6978 14.7905 50.7373L3.43039 54.244C2.7575 54.4549 2.20335 54.9295 1.91308 55.5622C1.60962 56.195 1.59642 56.9333 1.8603 57.566C2.12418 58.212 2.66514 58.7261 3.31165 58.9634C3.97135 59.2007 4.69702 59.148 5.31714 58.8184L15.8328 53.2684C16.4661 52.9388 16.7432 52.1874 16.4661 51.5151C16.2418 50.9878 15.7404 50.6582 15.1995 50.6582V50.6714Z" fill="#00D35A"/>
<path d="M32.3782 6.75928C31.7185 6.75928 31.0852 7.02293 30.6102 7.48434C30.1088 7.98529 29.8449 8.65761 29.8845 9.35631C29.9241 10.055 30.2407 10.7141 30.7817 11.1624L39.9384 18.7425C40.4925 19.2039 41.2842 19.1644 41.7987 18.6502C42.3001 18.1493 42.3397 17.3451 41.8911 16.7915L34.3045 7.64253C33.8559 7.10203 33.1962 6.77246 32.4969 6.74609C32.4573 6.74609 32.4178 6.74609 32.3782 6.74609V6.75928Z" fill="#00D35A"/>
<path d="M55.0323 30.5015C54.6761 30.5015 54.3199 30.6333 54.056 30.9101C53.5546 31.4111 53.515 32.2152 53.9636 32.7689L61.5502 41.9178C61.9988 42.4583 62.6585 42.7879 63.3578 42.8143C64.0571 42.8407 64.7432 42.577 65.2313 42.0892C65.7327 41.5883 65.9966 40.9159 65.957 40.2173C65.9306 39.5186 65.6008 38.8594 65.0598 38.4112L55.9032 30.831C55.6393 30.6201 55.3358 30.5146 55.0192 30.5146L55.0323 30.5015Z" fill="#00D35A"/>
<path d="M63.4766 6.75928C63.4766 6.75928 63.3975 6.75928 63.3579 6.75928C62.6586 6.78564 61.9989 7.11522 61.5503 7.65571L53.9637 16.8046C53.5019 17.3583 53.5415 18.1493 54.0561 18.6634C54.5706 19.1644 55.3623 19.2039 55.9164 18.7557L65.0731 11.1755C65.6141 10.7273 65.9439 10.0682 65.9703 9.36949C65.9967 8.6708 65.7328 7.98529 65.2446 7.49752C64.7696 7.02294 64.1363 6.77246 63.4766 6.77246V6.75928Z" fill="#00D35A"/>
<path d="M47.9207 0.325684C47.2215 0.325684 46.5486 0.615707 46.0736 1.14302C45.5986 1.65716 45.3743 2.35585 45.4403 3.05454L46.5486 14.8928C46.6145 15.6047 47.2083 16.1452 47.9207 16.1452C48.6332 16.1452 49.227 15.6047 49.2929 14.8928L50.4012 3.05454C50.4672 2.34267 50.2429 1.67034 49.7679 1.14302C49.2929 0.62889 48.62 0.325684 47.9207 0.325684Z" fill="#00D35A"/>
<path d="M47.9208 33.4414C47.2083 33.4414 46.6146 33.9819 46.5486 34.6938L45.4403 46.532C45.3743 47.2307 45.6118 47.9162 46.0736 48.4435C46.5486 48.9577 47.2215 49.2609 47.9208 49.2609C48.6201 49.2609 49.293 48.9708 49.768 48.4435C50.2429 47.9294 50.4672 47.2307 50.4013 46.532L49.293 34.6938C49.227 33.9819 48.6333 33.4414 47.9208 33.4414Z" fill="#00D35A"/>
<path d="M69.9152 22.3018C69.8361 22.3018 69.7569 22.3018 69.6909 22.3018L57.8427 23.4091C57.1302 23.475 56.5892 24.0683 56.5892 24.7801C56.5892 25.492 57.1302 26.0852 57.8427 26.1512L69.6909 27.2585C70.3902 27.3244 71.0763 27.0871 71.6041 26.6257C72.1186 26.1512 72.4221 25.4788 72.4221 24.7801C72.4221 24.0814 72.1318 23.4091 71.6041 22.9345C71.1423 22.5127 70.5485 22.2886 69.9284 22.2886L69.9152 22.3018Z" fill="#00D35A"/>
<path d="M27.6019 13.8911C27.3117 13.8911 27.0346 13.9438 26.7575 14.0361C26.0978 14.2734 25.57 14.7744 25.3062 15.4203C25.0423 16.0663 25.0555 16.8045 25.3457 17.4373C25.6492 18.0701 26.1902 18.5447 26.8631 18.7556L38.2231 22.2622C38.9092 22.4732 39.6349 22.1304 39.912 21.4713C40.189 20.8121 39.912 20.0607 39.2787 19.718L28.763 14.168C28.4068 13.9834 27.9977 13.8779 27.6019 13.8779V13.8911Z" fill="#00D35A"/>
<path d="M57.2093 27.2451C56.6683 27.2451 56.1538 27.5747 55.9427 28.102C55.6656 28.7611 55.9427 29.5126 56.576 29.8553L67.0916 35.4053C67.7118 35.7349 68.4374 35.7876 69.0971 35.5503C69.7568 35.313 70.2846 34.8121 70.5485 34.1661C70.8124 33.5202 70.7992 32.7819 70.5089 32.1492C70.2054 31.5164 69.6645 31.0418 68.9916 30.8309L57.6315 27.3242C57.4996 27.2847 57.3544 27.2583 57.2225 27.2583L57.2093 27.2451Z" fill="#00D35A"/>
<path d="M56.3386 2C55.9823 2 55.6129 2.0791 55.2831 2.23729C54.6497 2.5405 54.1748 3.09418 53.9636 3.75332L50.454 15.1038C50.2429 15.7893 50.586 16.5144 51.2457 16.7912C51.9054 17.068 52.6574 16.7912 53.0005 16.1584L58.5552 5.65166C58.885 5.03206 58.9378 4.30701 58.7003 3.64786C58.4628 2.98872 57.9614 2.4614 57.3149 2.19774C57.0115 2.06591 56.6816 2.01318 56.3518 2.01318L56.3386 2Z" fill="#00D35A"/>
<path d="M44.0813 32.6768C43.58 32.6768 43.105 32.9404 42.8675 33.415L37.3128 43.9218C36.9829 44.5414 36.9302 45.2664 37.1676 45.9256C37.4051 46.5847 37.9065 47.112 38.553 47.3757C39.1995 47.6393 39.9384 47.6262 40.5717 47.3361C41.205 47.0329 41.68 46.4792 41.8911 45.8201L45.4007 34.4696C45.6118 33.7841 45.2688 33.0591 44.6091 32.7822C44.4376 32.7163 44.2528 32.6768 44.0813 32.6768Z" fill="#00D35A"/>
<path d="M39.503 2C39.1732 2 38.8565 2.06591 38.553 2.18456C37.9065 2.44822 37.392 2.98872 37.1545 3.63468C36.917 4.29382 36.9697 5.01888 37.2996 5.63848L42.8543 16.1452C43.1841 16.778 43.9362 17.0549 44.6091 16.778C45.2688 16.5012 45.6118 15.7761 45.4007 15.0906L41.8911 3.74014C41.68 3.06781 41.205 2.51413 40.5717 2.22411C40.2419 2.06591 39.8724 1.98682 39.5162 1.98682L39.503 2Z" fill="#00D35A"/>
<path d="M51.7734 32.6768C51.6019 32.6768 51.4172 32.7163 51.2457 32.7822C50.586 33.0591 50.2429 33.7841 50.454 34.4696L53.9636 45.8201C54.1748 46.4924 54.6497 47.0461 55.2831 47.3361C55.9164 47.6393 56.6552 47.6525 57.2885 47.3889C57.9351 47.1252 58.4496 46.5847 58.6871 45.9387C58.9246 45.2796 58.8718 44.5545 58.542 43.9349L52.9873 33.4282C52.7366 32.9668 52.2616 32.6899 51.7734 32.6899V32.6768Z" fill="#00D35A"/>
<path d="M68.2395 13.8911C67.8437 13.8911 67.4347 13.9834 67.0785 14.1811L56.5628 19.7311C55.9295 20.0607 55.6524 20.8121 55.9295 21.4845C56.2066 22.1568 56.9322 22.4864 57.6183 22.2754L68.9784 18.7688C69.6513 18.5579 70.2054 18.0833 70.4957 17.4505C70.786 16.8177 70.8124 16.0795 70.5485 15.4467C70.2846 14.8007 69.7437 14.2866 69.0971 14.0493C68.8201 13.957 68.543 13.9043 68.2527 13.9043L68.2395 13.8911Z" fill="#00D35A"/>
</svg>
