<svg width="162" height="35" viewBox="0 0 162 35" fill="none" xmlns="http://www.w3.org/2000/svg">
<g clip-path="url(#clip0_837_283)">
<path fill-rule="evenodd" clip-rule="evenodd" d="M159.081 29.9016H158.693V30.8031H159.059C159.394 30.8031 159.601 30.661 159.601 30.3524C159.601 30.0554 159.417 29.9016 159.081 29.9016ZM159.869 32.5234L158.981 31.2189H158.693V32.4768H158.183V29.4275H159.081C159.705 29.4275 160.119 29.7457 160.119 30.3163C160.119 30.7554 159.89 31.0397 159.52 31.1595L160.374 32.4047L159.869 32.5234ZM159.094 28.6098C157.848 28.6098 156.859 29.4859 156.859 31.0534C156.859 32.6051 157.848 33.4844 159.094 33.4844C160.352 33.4844 161.343 32.6051 161.343 31.0534C161.343 29.4859 160.341 28.6098 159.094 28.6098ZM159.094 33.8057C157.553 33.8057 156.479 32.7006 156.479 31.0534C156.479 29.4148 157.572 28.2853 159.094 28.2853C160.639 28.2853 161.711 29.4021 161.711 31.0534C161.711 32.6921 160.615 33.8057 159.094 33.8057ZM23.9338 19.2881H15.9756C16.4712 18.4757 23.9338 5.9892 23.9338 5.9892V19.2881ZM20.5361 0.405113L0.356445 33.8036H7.21693C7.21693 33.8036 12.1931 25.4895 12.3647 25.2053H23.9445L23.9488 33.8078L30.4607 33.8068V0.404053H20.5361V0.405113ZM35.0799 0.404053V33.8078H41.4085V0.405113L35.0799 0.404053ZM46.0149 0.404053H52.3339V33.8078H46.0149V0.404053ZM66.2617 18.0324C62.8192 17.1075 62.0998 16.5878 62.1903 15.1125C62.2649 13.7741 63.3233 13.0041 65.0914 13.0041C67.2784 13.0041 69.9525 13.7974 72.2503 15.1253L72.6127 15.3384L73.4835 9.76496L73.2777 9.6642C70.9181 8.55587 68.0938 7.96511 65.0914 7.96511C62.2021 7.96511 59.7454 8.8836 58.1585 10.5466C56.903 11.8734 56.2582 13.5906 56.2912 15.4986C56.401 20.6489 58.7851 22.1062 64.4328 23.6006C68.1673 24.5488 68.9251 25.1119 68.8984 26.9447C68.8771 28.5928 67.9222 29.2144 65.3824 29.2144C62.7264 29.2144 59.7316 28.2068 57.1332 26.4578L56.7559 26.2001L55.8787 31.7948L56.0674 31.9009C58.0903 33.0463 61.5466 34.2491 65.1905 34.2491C68.7226 34.2491 71.3306 33.3878 72.9442 31.7089C74.2018 30.3916 74.8199 28.6109 74.7912 26.4006C74.7091 20.8695 71.9988 19.5554 66.2617 18.0324ZM90.1599 28.1781L89.8327 28.2683C89.3978 28.3913 88.8479 28.4539 88.0965 28.4539C86.2207 28.4539 85.3489 27.5831 85.3489 25.6995V13.8738H89.9893L90.0746 8.43496H85.3489V0.404053H79.1247V8.43496H75.874V13.8727H79.1247V26.6848C79.1247 31.7556 81.6975 34.2363 87.0019 34.2363C88.7136 34.2363 89.7623 34.0359 90.6959 33.8269L90.9794 33.7707L90.1599 28.1781ZM101.442 29.2144C99.8852 29.2144 98.9217 28.2312 98.9217 26.6541C98.9217 23.8445 101.553 22.0086 106.539 21.3192V26.8216C104.991 28.3775 103.234 29.2144 101.442 29.2144ZM103.628 7.91208C99.6933 7.91208 96.7219 8.89845 94.3591 9.85299L94.1352 9.94314L94.9463 15.3003L95.3002 15.1401C98.1362 13.8494 100.536 13.2469 102.875 13.2469C105.367 13.2469 106.539 14.3086 106.539 16.5953V17.2507C97.1941 18.2403 92.6442 21.5228 92.6442 27.2883C92.6442 31.5477 95.3247 34.2968 99.4823 34.2968C102.36 34.2968 104.749 33.215 106.951 31.011C107.071 31.7492 107.392 33.8047 107.392 33.8047H112.859V16.4213C112.859 10.623 109.927 7.91208 103.628 7.91208ZM129.09 28.1781L128.768 28.2683C128.335 28.3913 127.777 28.4539 127.038 28.4539C125.156 28.4539 124.274 27.5831 124.274 25.6995V13.8738H128.924L129.009 8.43496H124.274V0.404053H118.039V8.43496H114.804V13.8727H118.039V26.6848C118.039 31.7556 120.629 34.2363 125.936 34.2363C127.643 34.2363 128.74 34.0263 129.629 33.8269L129.906 33.7707L129.09 28.1781ZM137.245 18.3357C137.53 14.6978 139.068 12.6074 141.498 12.6074C144.77 12.6074 145.637 15.6439 145.766 18.3357H137.245ZM150.787 26.2234C147.957 28.245 145.642 29.1157 143.025 29.1157C139.627 29.1157 137.518 26.7484 137.156 22.6301H151.902L151.967 20.895C151.967 12.2977 148.496 7.92481 141.641 7.91314C138.629 7.9036 136.159 8.87617 134.3 10.7948C132.035 13.1122 130.837 16.7194 130.837 21.1909C130.837 29.2833 135.281 34.2968 142.403 34.2968C145.881 34.2968 149.037 33.2988 151.789 31.3483L151.945 31.2422L151.177 25.9392L150.787 26.2234Z" fill="#0033A0"/>
</g>
<defs>
<clipPath id="clip0_837_283">
<rect width="162" height="35" fill="white"/>
</clipPath>
</defs>
</svg>
