<svg width="162" height="99" viewBox="0 0 162 99" fill="none" xmlns="http://www.w3.org/2000/svg">
<path d="M0.412925 33.1451C0.0919173 33.4203 0.733934 33.191 0.229492 33.3286C0.229492 33.2827 0.229492 33.1451 0.412925 33.1451Z" fill="#4C9C2E"/>
<path d="M93.7882 14.2593C93.148 14.5337 92.4163 14.3508 91.6847 14.1679C90.953 13.985 90.3128 13.6191 89.5812 13.6191C89.3983 13.5734 89.7641 13.299 89.3982 13.2533C87.935 13.2076 86.1516 12.0186 85.0084 10.8297L85.1913 10.784C85.1455 10.7383 85.1455 10.7383 85.0998 10.6925C84.8254 10.5096 84.4596 10.6011 84.1852 10.4182C84.1852 10.3724 84.3682 10.3724 84.2767 10.2353C84.0938 10.3267 83.6365 10.0523 83.4993 10.1895C83.4079 10.0981 83.4536 9.91515 83.3164 9.8237L83.042 10.0066C82.7219 10.1895 82.4019 10.0981 82.036 10.0066C81.6702 9.91515 81.3044 9.8237 80.9385 9.96088C80.9843 9.91515 81.03 9.86943 80.9843 9.77797C79.8868 10.0523 78.6064 10.1895 77.5547 10.6925L77.4632 10.7383C77.4175 10.7383 77.4175 10.7383 77.3718 10.784H77.2803C77.326 10.6925 77.326 10.6011 77.2803 10.4639C77.2803 10.7383 76.823 10.784 76.4572 10.784C76.4115 10.6925 76.2743 10.6925 76.0456 10.7383C75.8627 10.784 75.6341 10.784 75.4054 10.6925L75.4512 10.6468C75.0854 10.8297 75.0396 10.3724 74.7195 10.5553L74.5366 10.3724C74.2622 10.6468 74.2165 10.0523 73.8964 10.0523V10.0981C73.6221 10.0523 73.6221 9.8237 73.3477 9.77797V9.73224C73.2562 9.68651 73.1648 9.64079 73.0276 9.54933C72.9361 9.5036 72.8447 9.45787 72.8447 9.36642C72.7532 9.27496 72.6618 9.18351 72.5703 9.32069C72.5703 9.13778 72.6618 9.27496 72.7532 9.32069C72.8447 9.36642 72.9361 9.36642 72.9361 9.22923C71.6557 8.22321 70.604 6.75991 69.5065 5.52526C69.4608 5.34234 69.4151 5.20516 69.4608 5.1137C69.2779 5.02225 69.0035 4.70215 68.8206 4.65642C68.8663 4.70215 68.8206 4.47351 68.7749 4.38205C68.592 4.06196 68.3633 4.33632 68.2261 4.01623C68.409 4.06196 68.409 4.01623 68.5005 3.92477C68.1347 3.87904 67.8603 3.60468 67.5859 3.46749C67.6317 3.46749 67.7689 3.51322 67.7689 3.42176C67.3573 3.37603 67.2201 2.96448 66.9457 2.87303H67.1287C66.7628 2.41574 66.8086 3.05594 66.4885 2.69011C66.5799 2.69011 66.5799 2.64438 66.6714 2.59866C66.2141 2.59866 65.6654 2.27856 65.2081 2.23283C65.2538 2.23283 65.2538 2.1871 65.2538 2.1871C64.8423 2.09565 64.3392 2.00419 63.882 2.09565C63.6991 2.04992 63.9277 1.72982 63.4247 1.82128C63.4704 2.09565 62.6473 2.09565 62.9674 2.37002C62.5559 2.37002 61.9614 2.46147 61.687 2.64438C61.8699 2.46147 61.3669 2.32429 61.7327 2.23283L61.4126 2.14138C61.4126 1.95846 61.687 2.09565 61.5956 1.95846C61.4126 2.00419 60.9554 2.27856 60.8182 2.27856C60.5438 2.55293 60.4066 2.91875 59.9036 3.19312C60.0865 3.01021 59.6292 2.91875 59.8122 2.8273L59.3549 3.60468C59.172 3.6504 59.2634 3.42176 59.0348 3.55895C59.0805 3.60468 58.9891 3.74186 58.9433 3.83332C58.8976 3.83332 58.3031 4.15341 58.1202 3.92477C58.0288 3.83332 58.3946 3.74186 58.1202 3.74186C57.8001 3.83332 57.8459 3.92477 57.5715 4.10768V4.06196C57.3886 4.10768 57.0227 4.42778 57.2971 4.47351C57.48 4.42778 57.2057 4.2906 57.3886 4.2906C57.3428 4.47351 56.977 4.70215 56.7484 4.83933C56.8398 4.74788 56.7941 4.65642 56.7941 4.56497C56.474 4.93079 56.0625 5.20516 55.6966 5.47953C55.7424 5.66244 55.7424 5.15943 55.8795 5.20516C55.2393 5.25089 54.8735 5.93681 54.2791 5.84535C54.3248 5.79962 54.3705 6.02827 54.3705 5.93681C54.0961 6.02827 54.0047 5.84535 53.9132 5.98254C53.8675 5.89108 53.7303 6.16545 53.5474 6.25691C53.5017 6.34836 53.5017 6.21118 53.6389 6.16545C53.456 6.34836 52.5414 6.98856 51.9012 7.08001C51.9469 7.12574 51.7183 7.49156 51.5354 7.53729L51.4896 7.35438C51.3067 7.30865 51.0781 7.62875 50.9409 7.44584C50.758 7.81166 51.9469 6.71419 51.5811 7.08001C51.3982 6.98856 51.1695 7.62875 51.1695 7.35438C50.8952 7.53729 50.758 7.81166 50.4379 7.76593C50.5294 7.76593 50.5294 7.44584 50.3464 7.58302C49.9806 7.76593 50.3007 7.76593 50.0263 7.94885L49.8434 8.13176C49.8892 8.31467 49.4776 8.31467 49.752 8.40613C49.6605 8.31467 49.2947 8.77195 49.2032 8.49758L49.1575 8.22322C48.9746 8.31467 48.9746 8.58904 48.9746 8.77195C48.9289 8.77195 48.8831 8.72622 48.8831 8.72622C49.0661 9.04632 48.5173 8.90914 48.4716 9.27496C48.3801 9.27496 48.2887 9.32069 48.1515 9.36642L47.8771 9.45787C47.6942 9.54933 47.5113 9.64079 47.3284 9.64079C47.1455 9.91515 46.9168 10.1895 46.5967 10.281C46.6425 10.2353 46.6882 10.1895 46.6882 10.0981C46.4138 10.0981 46.4138 10.1895 46.2766 10.3724C46.2766 10.3267 45.8194 10.3724 45.4993 10.3724C45.3163 10.5553 45.4535 10.7383 45.4535 10.8297C45.042 10.6468 44.8133 11.3785 44.3103 11.1955C44.3561 11.1041 44.6762 10.8754 44.3561 10.8754C43.9902 10.6925 43.9445 11.287 43.4415 11.287L43.6244 11.5614C43.35 11.4699 43.0757 11.9272 42.9842 11.6528C42.8928 11.8357 42.4355 11.6986 42.6184 11.9729C41.8867 11.9729 41.0179 12.6131 40.4692 12.293C40.3777 12.3387 40.1491 12.3845 40.1948 12.4759C40.3777 12.5674 40.3777 12.293 40.4692 12.3845C40.3777 12.4302 40.3777 12.4759 40.4234 12.5674C40.2405 12.5674 40.0119 12.6131 40.1491 12.293C39.6003 12.2473 39.7832 12.9332 39.1431 12.9332C39.1431 12.8418 39.0973 12.7503 38.9601 12.8418H38.9144C38.5029 12.8875 38.5943 12.6588 38.5486 12.4759C38.3657 12.5674 38.0913 12.6588 37.9998 12.796L37.6798 12.6131C37.9541 12.7046 37.4968 12.796 37.4968 12.8875L37.5883 12.8418C37.5426 12.796 37.3139 12.8875 37.1767 12.9332C37.2225 13.0247 37.4968 13.0247 37.634 13.0247C37.5426 13.1161 37.3597 13.2076 37.2682 13.3448C37.2682 13.1619 36.9024 13.299 36.7195 13.3448C36.5365 13.3448 36.5366 13.5277 36.5366 13.6191C36.4908 13.5277 36.2165 13.7106 36.3536 13.5277C36.3994 13.4819 36.5365 13.5734 36.628 13.4819C36.4451 13.4362 36.4451 13.299 36.2165 13.4819C36.0335 13.6649 36.3994 13.8478 36.0335 13.8478C36.125 13.802 36.0793 13.6649 36.125 13.5734H35.7592L35.8049 13.7563C35.7592 13.7106 35.7592 13.7106 35.7592 13.7106C35.7134 13.8935 35.3019 13.8935 35.2104 14.1679C35.0275 14.2136 34.7989 14.1679 34.6617 14.2136C34.4788 14.1679 34.2044 14.3051 34.113 14.5337V14.488C34.0215 14.488 33.7471 14.6709 33.6557 14.7623C33.3356 14.7166 33.3356 14.1221 33.1069 14.488C32.8326 14.5794 32.7868 14.9452 32.924 15.0367C32.3753 15.0824 31.918 15.5854 31.415 15.494C31.3693 15.5854 31.415 15.5854 31.3235 15.6769C30.5919 15.8598 29.9517 16.5 29.3115 16.4543C29.4944 16.2714 29.2658 16.2714 29.2201 16.1799C29.1286 16.3628 28.9457 16.1342 29.0371 16.3628C29.1286 16.5457 29.1286 16.5457 29.3572 16.5457C28.9914 16.8201 28.4427 17.0945 28.1226 17.0945C28.3055 17.0945 28.214 17.1859 28.1226 17.2774C28.0311 17.003 27.711 17.1859 27.5738 17.3688L27.6196 17.5517L27.4367 17.506C27.3909 17.5975 27.5281 17.8261 27.2537 17.8261C27.208 17.7804 27.1623 17.7347 27.0708 17.7347C26.8879 18.009 26.7507 18.3749 26.4306 18.3749L26.1105 18.3291C26.0191 18.4206 25.9276 18.6492 26.1563 18.6035C25.699 18.7864 25.3789 18.9236 25.1502 18.8779C24.7387 19.7924 23.6869 20.4783 22.8638 20.9814V20.707C22.5895 20.7527 22.8638 20.9814 22.6809 21.0271C22.6809 20.8442 22.3608 20.9356 22.498 20.707C22.1322 20.7984 22.1779 21.1643 22.0407 21.3472C22.0865 21.5301 22.1322 21.1643 22.2236 21.3472C22.2236 21.3929 21.6749 21.5301 21.8121 21.7587C21.6292 21.7587 21.6292 21.5758 21.6292 21.4386L21.5377 21.6216C21.1719 21.5758 21.8121 20.8442 21.3548 20.707L21.1719 20.8899C20.8518 20.7984 21.492 20.3412 20.989 20.5698C20.8975 20.7527 20.8975 21.21 21.0804 21.1185C20.7146 21.4386 21.1719 21.6673 20.7603 22.0331C20.5774 21.9874 21.0804 21.7587 20.9433 21.6673C20.6232 21.6673 20.5774 22.0331 20.3945 22.0788C20.6689 22.0331 20.5774 22.3532 20.486 22.4447C20.2116 22.4904 20.486 22.1703 20.1659 22.3532C20.1659 22.5361 19.983 22.7648 20.2573 22.6733C20.3031 22.9934 19.8915 22.8562 19.8458 23.1306C19.6629 23.0391 19.8915 22.4904 19.48 22.6733C19.6629 22.8562 19.2056 23.222 19.5714 23.3135C19.3885 23.3592 19.297 23.222 19.297 23.0391C19.0227 23.0391 19.0227 23.6793 18.7483 23.3592L18.794 23.5421C18.7026 23.5421 18.6111 23.5421 18.4282 23.4964C18.2453 23.5879 18.0167 24.1366 17.8795 23.8165C17.8337 23.8622 17.4679 24.1366 17.6966 24.2281C18.0167 24.1823 17.8795 23.908 18.1538 24.0451C17.8337 23.9537 17.8337 24.3195 17.7423 24.4567L17.6508 24.3652C17.6051 24.4567 17.3765 24.5482 17.3765 24.7311C17.4222 24.6396 17.3307 24.5482 17.1936 24.5482V24.7311C16.8735 25.0512 16.9192 24.5482 16.6448 24.7768L16.8277 24.4567C16.782 24.5024 16.5534 24.4567 16.4619 24.6396C16.5076 24.8225 16.5076 25.0512 16.5076 25.1883C16.3247 25.3713 16.3247 25.0969 16.2333 25.3713L16.3247 25.0512C16.3247 25.0054 16.0046 24.8682 15.776 25.0969C15.6845 25.2798 15.5016 25.6456 15.8217 25.5084C15.7303 25.5999 15.4559 25.5999 15.5016 25.4627C15.2272 25.6456 15.6845 25.6456 15.4559 25.8285C15.273 25.7828 14.9072 25.8743 14.6328 25.8285L14.7242 25.417L14.5413 25.5084C14.6328 25.1883 14.3584 25.4627 14.3584 25.1426C14.1755 25.1883 14.1755 25.3255 14.0383 25.4627C14.5871 25.5542 13.9469 26.1029 14.2212 26.3773C13.8097 26.7431 13.4439 25.8285 13.3067 26.6516C13.4896 26.6974 13.3524 27.0632 13.581 26.7431C13.2609 26.926 13.581 27.1547 13.1695 27.2918C13.3524 27.0175 12.7122 27.2004 12.9866 26.7431C13.0323 26.8346 13.2609 26.6974 13.3067 26.6516C13.1238 26.6059 13.1238 26.3315 12.8494 26.5602C12.6665 26.7431 12.4378 26.8803 12.575 26.9717C12.6665 27.1547 12.8494 26.7888 12.8494 27.0175C12.5293 27.3376 12.3006 27.0632 12.3006 27.4748C12.4836 27.2918 12.6665 27.429 12.7579 27.5662L12.575 27.8406V27.6577C12.1177 27.8406 12.575 27.9778 12.1635 28.2064L11.8434 28.1149C11.8434 27.8406 12.4836 27.7948 12.2092 27.5662C11.9348 27.7491 11.9348 27.932 11.6605 28.0235C11.7062 27.9778 11.7519 27.932 11.8434 27.8406C11.7519 27.8863 11.3861 27.5205 11.2032 28.0235C11.0203 28.2064 11.2032 28.2064 11.2946 28.2979C10.8831 28.618 10.8373 28.8466 10.563 29.0295C10.4715 28.7551 10.0142 29.3496 10.1972 28.8466C10.3801 28.8923 11.0203 28.4808 11.0203 28.2064C10.7002 28.0235 11.3861 28.0235 11.2946 27.6577C10.9288 27.8406 10.7459 27.6119 10.6544 27.4748C10.563 27.5205 10.4715 27.6577 10.4715 27.7491C10.5173 27.932 10.6544 27.8406 10.7916 28.0235C10.3801 28.2064 10.06 28.5722 9.96851 28.8466C9.7856 28.8466 9.69414 28.6637 9.87706 28.5265C9.4655 28.8923 8.96249 29.1667 8.50521 29.3496C8.96249 29.4411 8.04793 29.7154 8.41376 29.8069C8.68813 29.7154 8.96249 29.8069 8.96249 29.9898C8.77958 30.0355 8.91677 29.8983 8.77958 29.8069C8.68813 30.0813 8.36803 29.7612 8.3223 30.127C8.68813 29.7612 8.23085 29.7612 8.13939 29.4868C7.95648 29.8069 8.04793 29.3039 7.77356 29.4868C7.59065 29.8069 7.22483 30.127 6.95046 30.4013C6.40172 30.4471 5.85298 31.0415 5.48716 31.3159C5.21279 31.3159 5.21279 30.9958 4.93842 31.133C4.66405 31.3159 5.30425 31.3159 4.84696 31.4074V31.3616C4.75551 31.4531 4.06959 31.636 4.20677 32.0018L4.16104 31.6817C4.06959 31.6817 4.06959 31.7732 3.97813 31.8646C3.9324 31.7732 3.79522 31.7732 3.88667 31.5903C3.52085 31.5446 3.42939 31.9104 3.15502 32.0476L3.42939 32.0933C3.06357 32.4591 2.69774 32.5048 2.28619 32.8249L2.19473 32.642L2.01182 32.9164C1.96609 32.7335 1.69172 32.7335 1.646 32.9621L2.05755 32.1847C2.24046 32.1847 1.96609 32.5048 2.14901 32.5506C2.33192 32.5963 2.69774 32.3677 2.69774 32.1847C2.51483 32.2305 2.51483 32.2762 2.51483 32.4591C2.33192 32.2762 2.56056 32.139 2.56056 31.9104C2.4691 32.0476 2.33192 32.0476 2.33192 32.139C2.42337 31.9561 2.51483 31.8189 2.7892 31.6817C2.69774 31.8646 2.97211 31.7275 2.97211 31.8646C2.88066 31.6817 3.06357 31.4531 3.42939 31.3159C3.79522 31.4074 3.97813 30.7672 4.34395 30.6757C4.29823 30.9501 4.2525 31.2245 4.02386 31.4074C4.29823 31.3616 4.29823 31.2245 4.5726 31.2245C4.5726 31.0415 4.52687 30.7672 4.75551 30.4928L4.84696 30.5843C5.02988 30.3099 4.93842 30.1727 5.30425 29.9441C5.94444 29.624 6.49318 29.3039 6.95046 29.0295L7.04191 29.121C7.08764 28.6637 7.81929 28.4808 8.04793 28.2064C8.68813 28.0235 9.19114 27.2918 9.60269 27.3833C10.5173 26.6516 11.2946 26.0114 12.3921 25.417L12.3464 25.7371C12.4378 25.4627 12.5293 25.7828 12.7122 25.6456C12.3921 25.5999 12.8037 25.2798 12.8951 25.0969C13.4438 24.914 13.9011 24.4567 14.267 23.9994L14.3584 24.0909C14.6328 23.5421 15.273 23.4507 15.7303 23.1763C15.8217 23.1763 16.0046 23.2678 16.1418 23.1306C16.2333 22.719 16.4162 22.6733 16.6905 22.216C17.0106 22.0331 17.4679 21.7587 17.8337 21.6673C18.7483 20.6613 19.9372 20.1125 20.989 19.1522L21.1719 19.2437C22.0865 18.1462 23.5955 17.5518 24.3729 16.7744L24.4643 17.0945C24.8302 17.003 25.1045 16.5457 24.8759 16.4543C25.2417 16.2714 25.5161 15.8141 25.8819 15.9055C26.2477 15.7226 26.202 15.5397 26.4306 15.3568C27.1623 15.0824 27.3452 14.9452 27.9854 14.5337L27.8025 14.5794C27.7568 14.6709 27.8025 14.7623 27.9854 14.7623C28.1683 14.5794 28.9 14.3965 28.5341 14.2136C29.3115 14.0307 30.0889 13.299 30.8663 13.299C30.7748 13.2533 30.912 13.1161 30.9577 13.0247C31.5979 12.7503 32.3296 12.7046 32.6954 12.3845C32.7868 12.3845 32.6039 12.5674 32.8783 12.5674C33.0612 12.4759 32.8326 12.3845 32.9698 12.293C33.8843 11.7443 35.0732 11.7443 35.9421 11.4699C37.4968 10.7383 39.1888 10.3724 40.7435 9.86943V9.96088C41.1551 9.5036 42.0239 9.86943 42.2983 9.32069C42.4812 9.36642 42.7556 9.22923 42.7098 9.36642C43.0299 9.04632 43.8988 9.1835 44.3103 8.72622C44.2646 8.72622 44.2646 8.77195 44.2189 8.81768C44.8591 8.77195 45.2249 8.26894 45.8194 8.17749C45.7736 8.22321 45.7279 8.3604 45.7279 8.3604C46.048 8.3604 46.048 7.81166 46.3681 8.0403C46.4596 7.99457 46.3681 7.85739 46.2766 7.85739C46.4595 7.81166 46.5967 7.67448 46.6882 7.67448L46.9626 7.49156L47.2369 7.30865C47.557 7.12574 47.8771 6.8971 48.2429 6.75991C48.8831 6.34836 49.5233 5.93681 50.2093 5.52526C51.3067 5.20516 50.5751 6.07399 51.2153 5.4338C51.3067 5.47953 51.2153 5.25089 51.261 5.34234C51.5354 5.06797 51.9012 5.52526 52.0384 5.25089C51.8555 5.06797 52.1298 5.06797 52.0841 4.93079C52.7243 4.74788 52.9987 4.93079 53.3645 4.51924V4.61069C53.7761 4.06196 54.5077 3.9705 54.8735 3.37603C55.6966 3.01021 56.4283 2.73584 57.2057 2.37002C57.983 2.00419 58.7147 1.72982 59.5378 1.364C60.3152 1.0439 61.1383 0.723804 61.9614 0.449435C62.3729 0.357979 62.8759 0.175067 63.3332 0.129339C63.7905 0.0378824 64.3392 -0.0535738 64.9794 0.0378824C66.1226 0.220795 67.0829 0.58662 67.906 1.13536C68.7291 1.68409 69.4608 2.27856 70.0553 2.87303C71.3356 4.10768 72.3417 5.47953 73.302 6.75991C73.3934 7.17147 73.4849 7.40011 73.622 7.53729C73.6678 7.62875 73.7135 7.7202 73.805 7.81166L73.9879 7.99457L74.0336 8.0403H74.0793C74.0336 8.08603 74.0336 8.08603 73.9879 8.13176C74.0793 8.0403 74.0793 8.0403 74.1708 8.08603C74.2623 8.13176 74.3537 8.26894 74.4909 8.13176C75.314 8.6805 76.32 8.95486 77.0059 8.95486C76.9145 9.00059 76.823 9.22923 76.9602 9.13778C77.0059 9.09205 77.0517 9.04632 77.0517 8.95486V9.00059C77.0517 9.00059 77.0517 9.00059 77.0517 8.95486V8.81768C77.0517 8.77195 77.0517 8.72622 77.0059 8.72622L77.0517 8.6805L77.2346 8.63477L77.5089 8.54331C77.6918 8.49758 77.8748 8.45185 78.0577 8.3604C78.4235 8.26894 78.7893 8.17749 79.1552 8.17749C79.8868 8.08603 80.6185 8.08603 81.3958 8.13176C82.9049 8.22321 84.3682 8.77195 85.6485 9.64079C86.0601 9.91515 86.4717 10.1895 86.9289 10.4182C87.4777 10.8297 88.438 11.1955 89.1696 11.4242C90.0842 12.0644 91.0902 12.5674 92.0505 12.9332C93.0565 13.299 94.1082 13.4819 95.16 13.299C94.9771 13.4362 94.7942 14.1679 93.7882 14.2593Z" fill="#4C9C2E"/>
<path d="M0.778809 32.9164C0.962242 32.9622 1.19153 32.9164 1.09982 33.1915C1.0081 33.054 0.778809 33.0081 0.778809 32.9164Z" fill="#4C9C2E"/>
<path d="M7.729 30.2184C7.729 30.1725 7.82072 30.2184 7.91244 30.2184C7.86658 30.2642 7.82072 30.4018 7.729 30.4018C7.77486 30.3101 7.729 30.2642 7.729 30.2184Z" fill="#4C9C2E"/>
<path d="M9.37525 29.2582C9.42098 29.3496 9.10088 29.6697 8.91797 29.8069L9.37525 29.2582Z" fill="#4C9C2E"/>
<path d="M11.1133 28.7551C11.2967 28.7551 11.2967 28.801 11.1133 28.9386C11.1133 28.9386 11.1133 28.801 11.1133 28.7551Z" fill="#4C9C2E"/>
<path d="M11.1133 28.4809C11.205 28.3892 11.2967 28.4351 11.4343 28.4351C11.3426 28.3434 11.1133 28.6644 11.1133 28.4809Z" fill="#4C9C2E"/>
<path d="M14.4966 26.7437C14.5424 26.6978 14.68 26.4685 14.8176 26.5603C14.6342 26.4685 14.4966 26.9271 14.4966 26.7437Z" fill="#4C9C2E"/>
<path d="M15.9141 25.6001C15.9599 25.6001 16.0058 25.6001 16.0058 25.5084C16.0975 25.5084 16.0516 25.6001 16.0058 25.6919L15.9141 25.6001Z" fill="#4C9C2E"/>
<path d="M43.9921 11.2413L43.8545 11.333V11.2413H43.9921Z" fill="#4C9C2E"/>
<path d="M56.6577 5.1141C56.8411 4.93066 56.8411 5.15995 56.8411 5.15995C56.7036 5.20581 56.8411 5.02238 56.6577 5.1141Z" fill="#4C9C2E"/>
<path d="M63.5171 2.18779H63.4712V1.9585L63.5171 2.18779Z" fill="#4C9C2E"/>
<path d="M160.87 33.9229C161.191 34.0146 160.824 33.6477 161.054 33.9229C161.054 34.0605 160.962 34.0605 160.87 33.9229Z" fill="#4C9C2E"/>
<path d="M89.5346 10.9671C89.9919 10.647 90.5406 10.6012 91.1351 10.5555C91.6838 10.5098 92.2783 10.4641 92.7356 10.0982C92.827 10.0525 92.7813 10.4183 93.0557 10.2811C93.9702 9.54949 95.4793 9.27512 96.7596 9.13794L96.6682 9.32085C96.9426 9.27512 97.0797 8.9093 97.3084 8.86357C97.3541 8.9093 97.2627 8.95502 97.3541 9.04648C97.3541 8.86357 97.7199 8.77211 97.7657 8.63493C97.8571 8.68066 97.9486 8.81784 98.0858 8.81784L98.1315 8.54347C98.3144 7.90328 99.0461 8.17765 99.4119 7.72037C99.4119 7.76609 99.3662 7.81182 99.4119 7.90328C100.052 7.26308 101.104 6.89726 102.018 6.43998C102.018 6.53143 102.018 6.62289 102.11 6.76008C102.064 6.57716 102.293 6.39425 102.567 6.21134C102.75 6.39425 102.933 5.84551 103.299 5.89124V5.93697C103.482 5.61687 103.665 5.9827 103.756 5.6626L103.939 5.84551C103.985 5.47969 104.305 5.93697 104.488 5.75406V5.70833C104.671 5.61687 104.762 5.75406 104.899 5.6626V5.70833C105.265 5.52542 105.539 5.70833 105.448 5.43396C105.631 5.61687 105.082 5.61687 105.357 5.84551C105.997 5.6626 106.637 5.57114 107.277 5.6626C107.917 5.70833 108.558 5.9827 109.152 6.21134C109.243 6.39425 109.335 6.39425 109.335 6.53143C109.518 6.53143 109.792 6.71435 109.975 6.57716C109.929 6.57716 109.975 6.76008 110.021 6.76008C110.204 6.94299 110.387 6.57716 110.57 6.8058C110.478 6.8058 110.387 6.89726 110.387 6.98872C110.661 6.89726 110.935 7.03444 111.164 7.08017C111.118 7.08017 111.073 7.08017 110.981 7.17163C111.347 7.1259 111.393 7.446 111.713 7.446L111.53 7.53745C111.804 7.90328 111.804 7.35454 112.079 7.58318C111.987 7.58318 111.987 7.62891 111.896 7.67464C112.307 7.58318 112.719 7.85755 113.039 7.99473C112.993 7.99473 112.993 8.04046 112.993 8.04046C113.313 8.22337 113.542 8.45202 113.999 8.49774C114.091 8.5892 113.816 8.81784 114.091 8.9093C114.274 8.63493 114.731 9.09221 114.639 8.72638C114.914 8.9093 115.28 9.27512 115.462 9.27512C115.28 9.32085 115.417 9.68668 115.142 9.54949L115.234 9.82386C115.142 9.91532 115.051 9.64095 115.051 9.86959C115.142 9.91532 115.6 10.0525 115.6 10.144C115.92 10.0982 116.24 9.96104 116.606 10.0982C116.423 10.0982 116.514 10.4183 116.423 10.4183L117.2 10.2354C117.292 10.2811 117.109 10.4183 117.292 10.5098C117.337 10.4641 117.383 10.4641 117.474 10.4183C117.52 10.4641 118.023 10.6012 117.886 10.8756C117.886 10.9671 117.703 10.8299 117.703 10.9671C117.886 11.0585 117.977 11.0128 118.16 11.15V11.1957C118.252 11.2872 118.618 11.2872 118.572 11.1042C118.481 11.0585 118.526 11.2872 118.389 11.1042C118.572 11.0128 118.846 11.1042 119.029 11.1957C118.938 11.1957 118.938 11.2414 118.846 11.3786C119.212 11.3329 119.487 11.3786 119.852 11.4243C119.898 11.3329 119.669 11.6073 119.669 11.5158C119.99 11.8816 120.584 11.5615 120.858 11.9274C120.813 11.9274 120.858 11.7444 120.858 11.7444C121.041 11.7902 121.041 12.0188 121.178 11.9274C121.178 12.0188 121.361 11.9274 121.499 11.9274C121.59 11.8816 121.499 11.9731 121.407 11.9731C121.59 11.9274 122.413 11.9274 122.87 12.156C122.87 12.1103 123.19 11.8816 123.282 11.9731L123.236 12.156C123.282 12.2474 123.602 12.2017 123.602 12.3389C123.876 12.156 122.687 12.3846 123.053 12.2932C123.099 12.4761 123.511 12.1103 123.419 12.2932C123.465 12.2932 123.511 12.2932 123.602 12.2932C123.648 12.2932 123.648 12.2932 123.694 12.2932H123.876C123.968 12.2932 124.059 12.2932 124.151 12.3389C124.197 12.3389 124.242 12.3846 124.242 12.4304C124.197 12.3846 124.059 12.4304 124.059 12.5218C124.059 12.5218 124.059 12.5218 124.059 12.5675C124.059 12.6133 124.059 12.659 124.151 12.659L124.242 12.7047C124.334 12.7047 124.288 12.659 124.425 12.659L124.608 12.6133C124.654 12.4304 124.791 12.659 124.791 12.4304C124.791 12.6133 125.203 12.4304 125.157 12.7047L124.882 12.9334C125.065 12.9334 125.157 12.7505 125.248 12.6133C125.248 12.6133 125.294 12.659 125.294 12.7047C125.34 12.3389 125.614 12.7962 125.843 12.5218C126.117 12.7047 126.574 12.7047 126.666 12.8876C126.94 12.8419 127.123 12.7047 127.397 12.8876C127.352 12.8876 127.215 12.8876 127.215 12.9791C127.397 13.162 127.397 13.0248 127.58 13.0248C127.535 13.0706 127.855 13.3449 127.992 13.4821C128.266 13.4364 128.266 13.2992 128.312 13.1163C128.404 13.5278 129.044 13.162 129.227 13.5736C129.135 13.5736 128.815 13.5736 128.952 13.7565C128.998 14.168 129.501 13.7108 129.684 14.0308L129.73 13.7107C129.775 13.8937 130.278 13.8937 130.095 14.0766C130.278 14.0766 130.416 14.3967 130.507 14.1223C130.827 14.671 131.604 14.7625 131.604 15.357C131.696 15.357 131.787 15.5399 131.879 15.357C131.879 15.174 131.696 15.357 131.696 15.2655C131.742 15.3112 131.787 15.2655 131.879 15.2198C131.97 15.4027 132.062 15.4941 131.833 15.5856C132.016 15.9514 132.382 15.4027 132.748 15.7685C132.656 15.86 132.656 15.9514 132.793 15.9514H133.114C133.296 16.1343 133.113 16.2715 133.022 16.4087C133.205 16.4544 133.342 16.5916 133.479 16.5002V16.8203C133.479 16.6373 133.662 16.8203 133.754 16.8203H133.571C133.571 16.9117 133.754 17.0032 133.845 17.0032C133.891 16.9117 133.799 16.7288 133.662 16.6373C133.754 16.5916 133.845 16.6831 134.028 16.6831C133.845 16.866 134.211 16.9574 134.211 17.0489C134.302 17.1404 134.485 17.0032 134.485 17.0489C134.44 17.1404 134.668 17.2318 134.485 17.2318C134.44 17.2318 134.44 17.0489 134.302 17.1404C134.348 17.2318 134.257 17.4147 134.485 17.4147C134.668 17.4147 134.668 17.0489 134.851 17.3233C134.76 17.3233 134.668 17.369 134.668 17.4147L134.851 17.5976L134.943 17.4147C134.943 17.4605 134.943 17.4605 134.943 17.5062C135.126 17.4147 135.308 17.6891 135.491 17.5519C135.583 17.5976 135.674 17.8263 135.766 17.9177H135.72C135.766 18.1006 136.04 18.1006 136.177 18.1006L136.132 18.1464C136.177 18.1921 136.406 18.3293 136.543 18.2378C136.635 18.4207 136.223 18.878 136.543 18.7866C136.726 18.878 137 18.6951 137 18.6037C137.275 18.9238 137.778 18.9238 138.006 19.3353C138.098 19.2896 138.098 19.2439 138.189 19.2896C138.647 19.6554 139.333 19.7469 139.561 20.2956C139.378 20.2956 139.47 20.4785 139.378 20.57C139.561 20.5242 139.424 20.7529 139.653 20.57C139.698 20.3871 139.744 20.3871 139.653 20.2041C140.018 20.2956 140.43 20.57 140.567 20.8443C140.521 20.7529 140.613 20.7529 140.75 20.7529C140.567 20.9358 140.796 21.1187 141.024 21.1644L141.116 21.073V21.2559C141.207 21.2559 141.39 20.9815 141.436 21.2559C141.436 21.3016 141.39 21.3473 141.39 21.4388C141.665 21.4388 141.939 21.3931 142.122 21.6217L142.168 21.9418C142.259 21.9418 142.488 21.9418 142.351 21.7589C142.625 22.079 142.762 22.2162 142.762 22.3991C143.54 22.3076 144.363 22.7649 145.003 23.1765L144.957 23.2679C145.049 23.4508 145.14 23.1765 145.231 23.2679C145.14 23.3137 145.231 23.5423 145.049 23.588C145.231 23.8624 145.46 23.588 145.689 23.6338C145.78 23.5423 145.506 23.6338 145.643 23.4508C145.689 23.4051 145.917 23.7709 146.055 23.5423C146.055 23.6338 145.963 23.8167 145.872 23.8624H146.055C146.1 24.2282 145.414 24.0453 145.414 24.4111L145.597 24.4569C145.597 24.777 145.049 24.4569 145.414 24.777C145.597 24.777 145.963 24.594 145.826 24.3654C146.192 24.4569 146.237 23.9538 146.603 24.1825C146.603 24.3654 146.283 23.9996 146.283 24.2282C146.329 24.5026 146.649 24.3197 146.74 24.5026C146.649 24.3197 146.923 24.1825 147.015 24.2282C147.106 24.4111 146.832 24.3197 147.015 24.5483C147.106 24.4569 147.381 24.5026 147.289 24.2739C147.564 24.091 147.472 24.4569 147.746 24.3654C147.701 24.5483 147.198 24.6398 147.426 24.9141C147.472 24.7312 147.884 24.8684 147.884 24.5026C147.929 24.594 147.884 24.777 147.701 24.8227C147.792 25.0056 148.25 24.7312 148.112 25.0971L148.295 24.9141C148.295 25.0056 148.341 25.0971 148.341 25.2342C148.524 25.3257 148.89 25.2342 148.753 25.5086C148.798 25.5086 149.118 25.6915 149.118 25.4629C149.027 25.28 148.798 25.4629 148.844 25.1428C148.844 25.4629 149.164 25.3257 149.256 25.2342L149.21 25.3257C149.301 25.3257 149.393 25.4171 149.53 25.3257C149.438 25.3714 149.438 25.4171 149.484 25.5086L149.667 25.4171C149.987 25.4629 149.576 25.7372 149.85 25.8287H149.667C149.713 25.8287 149.713 26.0116 149.85 26.0116C150.033 25.9202 150.17 25.7372 150.262 25.6458C150.444 25.6458 150.216 25.8287 150.444 25.8287L150.124 25.8744C150.079 25.9202 150.124 26.1945 150.307 26.286C150.49 26.286 150.765 26.1945 150.627 26.0116C150.719 26.0573 150.81 26.1945 150.673 26.3317C150.947 26.3774 150.719 26.1488 150.993 26.1488C150.993 26.3317 151.176 26.5604 151.268 26.789L150.902 26.9719L150.993 27.0634C150.719 27.1548 150.993 27.2463 150.81 27.4292C150.856 27.5206 150.993 27.4749 151.176 27.4749C151.13 27.0176 151.725 27.1548 151.816 26.8347C152.228 26.9262 151.633 27.7493 152.274 27.4749C152.274 27.3835 152.594 27.2005 152.274 27.1548C152.456 27.3377 152.594 26.9719 152.822 27.2005C152.548 27.2005 152.868 27.6121 152.456 27.6578C152.502 27.5664 152.365 27.4749 152.274 27.4749C152.274 27.6578 152.091 27.795 152.319 27.8865C152.502 27.9322 152.685 28.0694 152.731 27.8865C152.822 27.7036 152.548 27.795 152.685 27.7036C153.005 27.795 152.868 28.1151 153.234 27.8865C153.051 27.8407 153.051 27.6121 153.188 27.4749L153.463 27.5206L153.371 27.6121C153.645 27.8865 153.554 27.4292 153.92 27.6578V27.9779C153.737 28.1608 153.508 27.6121 153.371 27.9779C153.554 28.1608 153.737 27.9779 153.92 28.1608C153.874 28.1608 153.828 28.1608 153.737 28.1608C153.783 28.2066 153.645 28.7096 154.103 28.5724C154.286 28.5724 154.194 28.4809 154.286 28.3895C154.651 28.5724 154.834 28.4809 155.017 28.5724C154.834 28.7553 155.383 28.8468 155.017 28.9382C154.972 28.7553 154.469 28.4809 154.24 28.6181C154.194 28.9839 153.966 28.4352 153.783 28.6638C154.057 28.8468 153.874 29.0754 153.828 29.304C153.874 29.3498 154.011 29.304 154.103 29.304C154.194 29.1211 154.103 29.1211 154.194 28.9382C154.469 29.1211 154.834 29.2126 155.109 29.1211C155.154 29.304 155.063 29.4412 154.926 29.3955C155.292 29.5784 155.703 29.7613 155.932 30.0357C155.886 29.6241 156.343 30.2186 156.343 29.8528C156.16 29.6699 156.16 29.3955 156.343 29.304C156.435 29.3955 156.298 29.3955 156.298 29.4869C156.572 29.4412 156.389 29.8528 156.663 29.6699C156.298 29.5784 156.389 29.99 156.252 30.1271C156.572 30.1271 156.16 30.3101 156.435 30.4015C156.755 30.4015 157.075 30.4472 157.349 30.5844C157.532 30.996 158.173 31.0417 158.493 31.2246C158.584 31.4075 158.31 31.5904 158.493 31.7734C158.676 31.8648 158.493 31.4075 158.676 31.7276L158.63 31.7734C158.721 31.7734 159.041 32.2306 159.361 31.9563L159.087 32.1392C159.133 32.1849 159.179 32.1392 159.27 32.1392C159.224 32.2306 159.224 32.3221 159.087 32.3221C159.179 32.6422 159.499 32.505 159.636 32.5965L159.59 32.4136C160.002 32.4593 160.139 32.7336 160.505 32.8708L160.413 33.0537H160.688C160.505 33.1452 160.688 33.3738 160.87 33.3281L160.139 33.4196C160.047 33.2367 160.413 33.3281 160.413 33.0995C160.413 32.9166 160.093 32.7794 159.956 32.9166C160.047 33.008 160.047 32.9623 160.23 32.9623C160.139 33.2367 159.956 33.1452 159.819 33.1452C159.864 33.1452 159.91 33.3281 160.002 33.1909C159.819 33.2367 159.682 33.1909 159.453 33.0995C159.636 33.0995 159.453 32.9166 159.544 32.9166C159.453 33.0995 159.179 33.0995 158.996 32.8708C158.95 32.5507 158.447 32.7794 158.218 32.5507C158.401 32.3678 158.676 32.3678 158.858 32.3678C158.767 32.1849 158.676 32.2764 158.538 32.0477C158.355 32.1392 158.173 32.3678 157.898 32.3221L157.944 32.1392C157.669 32.0935 157.578 32.3221 157.304 32.1392C156.892 31.8191 156.389 31.5904 156.115 31.3618L156.16 31.1789C155.795 31.3618 155.429 30.9045 155.154 30.9045C154.789 30.5387 154.148 30.493 154.011 30.1271C153.188 29.807 152.456 29.5784 151.679 29.0297L151.953 28.9382C151.771 28.9839 151.908 28.7553 151.771 28.7553C151.816 29.0297 151.45 28.8468 151.313 28.9382C151.039 28.5724 150.49 28.4809 150.079 28.4809L150.124 28.298C149.667 28.3895 149.393 27.9322 149.027 27.6578C149.027 27.5664 149.027 27.3835 148.844 27.3377C148.478 27.4292 148.387 27.3377 148.021 27.3377C147.838 27.1548 147.472 26.9262 147.243 26.6975C146.237 26.5146 145.414 25.783 144.454 25.4629L144.5 25.28C143.402 25.0971 142.533 24.1368 141.71 23.9081L141.985 23.6338C141.802 23.4508 141.436 23.3594 141.345 23.6338C141.162 23.4508 140.704 23.4508 140.704 23.085C140.521 22.9021 140.339 23.0393 140.156 22.9936C139.744 22.582 139.515 22.5363 139.058 22.2619L139.15 22.3534C139.241 22.3076 139.333 22.1705 139.195 22.1705C139.012 22.1705 138.647 21.7132 138.555 22.1705C138.189 21.7132 137.366 21.6217 137.046 21.073C137.046 21.1644 136.863 21.1187 136.863 21.1644C136.452 20.8901 136.132 20.4328 135.72 20.3871C135.674 20.2956 135.903 20.2956 135.766 20.2041C135.674 20.1584 135.674 20.2956 135.583 20.2956C134.805 20.0212 134.348 19.2896 133.708 18.9238C132.519 18.375 131.467 17.5519 130.461 16.8203L130.507 16.7745C130.233 16.7745 130.095 16.5916 129.958 16.363C129.775 16.1801 129.638 15.9972 129.41 16.0886C129.41 15.9972 129.227 15.9057 129.318 15.7685C129.135 15.7685 128.998 15.6771 128.861 15.4941C128.678 15.3112 128.495 15.2198 128.312 15.3112C128.358 15.3112 128.358 15.3112 128.404 15.3112C128.083 14.9911 127.672 15.1283 127.26 14.854C127.306 14.854 127.443 14.8082 127.443 14.7625C127.26 14.5796 126.986 14.9454 126.894 14.5796C126.803 14.5796 126.803 14.7625 126.849 14.7625C126.437 14.5796 125.934 14.5796 125.477 14.4881L124.7 14.4424C124.517 14.4424 124.425 14.4424 124.288 14.3967C124.242 14.3967 124.105 14.3967 124.014 14.3509C123.968 14.3509 123.922 14.3509 123.922 14.3052H123.876C123.876 14.3052 123.831 14.3052 123.785 14.2595H123.739H123.694C123.694 14.2595 123.694 14.2595 123.602 14.2595C122.779 13.8937 123.648 13.6193 122.962 13.8022C122.916 13.7108 122.916 13.9851 122.916 13.8479C122.642 13.8937 122.596 13.3907 122.367 13.5278C122.413 13.8022 122.184 13.6193 122.184 13.8022C121.727 13.5278 121.636 13.3449 121.178 13.3907L121.224 13.2992C120.675 13.4821 120.218 13.1163 119.624 13.3907C119.258 13.2992 118.984 13.1163 118.618 12.9791C118.252 12.7962 117.977 12.659 117.703 12.5218L116.057 11.6073C114.959 11.0585 113.908 10.4641 112.81 9.91532C111.804 9.27512 110.752 8.77211 109.655 8.2691C109.106 7.99473 108.649 7.81182 108.1 7.62891C107.689 7.446 107.277 7.35454 106.728 7.26308C106.271 6.94299 106.18 6.94299 105.722 7.08017C105.722 7.03444 105.768 7.03444 105.722 6.98872C105.722 7.26308 105.357 7.03444 105.311 7.30881C104.533 7.35454 103.802 7.67464 102.979 7.94901C103.07 7.90328 103.07 7.62891 102.933 7.76609L102.841 7.94901L102.796 7.90328C102.704 7.94901 102.613 8.17765 102.75 8.17765C100.738 9.18367 98.4059 9.7324 96.1195 10.647C95.5707 10.7384 94.7476 11.1042 94.1989 11.3786C93.1929 11.4701 92.324 11.5615 91.4095 11.5615C90.4949 11.6073 89.5803 11.653 88.5743 11.7444C88.4371 11.7902 88.803 11.15 89.5346 10.9671Z" fill="#4C9C2E"/>
<path d="M160.595 33.7855C160.595 33.6026 160.412 33.4654 160.687 33.4197C160.641 33.5111 160.687 33.7398 160.595 33.7855Z" fill="#4C9C2E"/>
<path d="M156.39 29.9446C156.39 29.9905 156.344 29.8529 156.344 29.8529C156.39 29.8529 156.527 29.807 156.527 29.8988C156.435 29.8529 156.435 29.8988 156.39 29.9446Z" fill="#4C9C2E"/>
<path d="M155.154 29.167C155.2 29.0756 155.52 29.1213 155.703 29.2128L155.154 29.167Z" fill="#4C9C2E"/>
<path d="M154.286 28.1615C154.24 27.9781 154.286 27.978 154.47 28.0698C154.378 28.1156 154.332 28.1156 154.286 28.1615Z" fill="#4C9C2E"/>
<path d="M154.011 28.2988C153.92 28.2529 153.92 28.1154 153.92 28.1154C153.874 28.2071 154.195 28.1612 154.011 28.2988Z" fill="#4C9C2E"/>
<path d="M151.726 26.6067C151.68 26.5608 151.451 26.6067 151.451 26.4232C151.497 26.6067 151.818 26.4691 151.726 26.6067Z" fill="#4C9C2E"/>
<path d="M150.49 26.1035C150.445 26.0577 150.445 26.0577 150.399 26.0577C150.353 25.9659 150.445 25.9659 150.582 25.9659L150.49 26.1035Z" fill="#4C9C2E"/>
<path d="M129.684 13.6193H129.821V13.711L129.684 13.6193Z" fill="#4C9C2E"/>
<path d="M119.487 10.8763C119.304 10.8763 119.442 10.6929 119.442 10.6929C119.487 10.7846 119.304 10.8304 119.487 10.8763Z" fill="#4C9C2E"/>
<path d="M114.228 8.54358H114.32L114.136 8.77287L114.228 8.54358Z" fill="#4C9C2E"/>
<path d="M4.75584 53.9972H13.9015L16.2793 60.1705H17.8798L9.28292 38.1295L0.686035 60.2162H2.28652L4.75584 53.9972ZM9.28292 42.245L13.1698 52.4881H5.3503L9.28292 42.245Z" fill="black"/>
<path d="M30.2264 44.4857C30.2264 42.8852 29.6776 41.5591 28.5344 40.5988C27.3912 39.5928 26.0651 39.1355 24.3732 39.1355H19.1602V60.2619H20.7149V49.9273H24.3732C26.0194 49.9273 27.3455 49.3786 28.5344 48.4183C29.6319 47.4123 30.2264 46.1319 30.2264 44.4857ZM20.7149 40.7817H24.3732C25.6078 40.7817 26.6596 41.1018 27.3455 41.6963C28.1686 42.3365 28.5801 43.2968 28.5801 44.4857C28.5801 45.6746 28.1686 46.6349 27.3912 47.3208C26.5681 47.961 25.5164 48.3268 24.3274 48.3268H20.6692V40.7817H20.7149Z" fill="black"/>
<path d="M34.2071 49.9273H37.8653C39.5116 49.9273 40.8377 49.3785 42.0266 48.4182C43.1698 47.4122 43.7185 46.1318 43.7185 44.5313C43.7185 42.9309 43.1698 41.6047 42.0266 40.6445C40.8834 39.6384 39.5573 39.1812 37.8653 39.1812H32.6523V60.3075H34.2071V49.9273ZM34.2071 40.7816H37.8653C39.1 40.7816 40.1518 41.1017 40.8377 41.6962C41.6608 42.3364 42.0723 43.2967 42.0723 44.4856C42.0723 45.6745 41.6608 46.5891 40.8834 47.3208C40.0603 47.9609 39.0085 48.3268 37.8196 48.3268H34.1614L34.2071 40.7816Z" fill="black"/>
<path d="M42.0715 60.2162L44.4951 54.0429H53.6407L56.0186 60.2162H57.6191L49.0222 38.1295L40.4253 60.2162H42.0715ZM45.0896 52.4424L48.9764 42.1993L52.8633 52.4424H45.0896Z" fill="black"/>
<path d="M66.3056 58.7071H60.4524V39.1355H58.9434V60.2162H66.3056V58.7071Z" fill="black"/>
<path d="M67.7236 60.2162H69.3241L71.7477 54.0429H80.8933L83.2712 60.2162H84.8717L76.2748 38.1295L67.7236 60.2162ZM76.2748 42.245L80.1617 52.4881H72.2507L76.2748 42.245Z" fill="black"/>
<path d="M102.157 57.8839V56.009L101.837 56.2834C100.693 57.1065 99.8245 57.6552 99.0929 58.0211C97.8582 58.6613 96.3492 58.9356 94.703 58.9356C92.005 58.9356 89.7186 58.0211 88.0267 56.2834C86.3347 54.5915 85.4202 52.3965 85.4202 49.6071C85.4202 46.9091 86.3347 44.6227 88.0724 42.9308C89.7643 41.1931 92.0507 40.2786 94.7487 40.2786C96.3035 40.2786 97.8582 40.5987 99.2758 41.1931C100.19 41.6047 101.105 42.1077 101.928 42.7936L102.248 43.068V41.0559L102.157 41.0102C101.334 40.37 100.51 39.867 99.6416 39.5469C98.1783 38.9982 96.5321 38.7695 94.7487 38.7695C91.5935 38.7695 88.9412 39.7755 86.8835 41.8333C84.8714 43.8454 83.9111 46.4519 83.9111 49.6071C83.9111 52.7623 84.9172 55.4146 86.9749 57.4723C88.987 59.4844 91.5935 60.4447 94.7487 60.4447C95.0231 60.4447 95.2974 60.4447 95.5261 60.4447C95.8004 60.4447 95.9834 60.4447 96.2577 60.3989C98.1326 60.216 99.6873 59.7587 100.785 58.8899L102.157 57.8839Z" fill="black"/>
<path d="M116.059 60.2162H117.613V39.1355H116.059V47.8696H105.038V39.1355H103.483V60.2162H105.038V49.4701H116.059V60.2162Z" fill="black"/>
<path d="M123.192 39.1355H121.638V60.2619H123.192V39.1355Z" fill="black"/>
<path d="M141.118 60.2162H142.718L134.121 38.1295L125.524 60.2162H127.125L129.548 54.0429H138.694L141.118 60.2162ZM134.167 42.245L138.054 52.4881H130.143L134.167 42.245Z" fill="black"/>
<path d="M145.554 43.0225L161.056 60.9479V39.1356H159.456V56.7866L144 38.6326V60.2162H145.554V43.0225Z" fill="black"/>
<path d="M9.23731 74.9863C9.23731 75.9009 8.91721 76.5411 8.23129 77.0898C7.59109 77.5471 6.85944 77.8215 5.89915 77.8215C4.93886 77.8215 4.20721 77.5471 3.56702 77.0898C2.92683 76.5411 2.561 75.9009 2.561 74.9863V63.4628H1.37207V74.9863C1.37207 76.2667 1.82935 77.3185 2.74391 78.0501C3.56702 78.6903 4.66449 79.0561 5.94488 79.0561C7.22527 79.0561 8.32274 78.6903 9.14585 78.0501C10.0604 77.2727 10.5177 76.221 10.5177 74.9406V63.4171H9.28304L9.23731 74.9863Z" fill="black"/>
<path d="M23.0476 76.2666L11.8442 63.0055V78.9189H13.1246V66.5266L24.3737 79.5591V63.5085H23.0476V76.2666Z" fill="black"/>
<path d="M31.0499 63.5085H25.8369V78.9646H31.0499C33.1534 78.9646 34.8454 78.1873 36.1715 76.5868C37.3604 75.1235 38.0006 73.2944 38.0006 71.1451C38.0006 69.0416 37.3604 67.2583 36.1257 65.795C34.7996 64.2402 33.1077 63.5085 31.0499 63.5085ZM31.0499 77.6843H27.0716V64.7432H31.0499C32.7419 64.7432 34.1594 65.3834 35.2112 66.7095C36.2172 67.8984 36.7202 69.4532 36.7202 71.2366C36.7202 73.2486 36.08 74.8491 34.9825 76.038C33.8393 77.0898 32.5132 77.6843 31.0499 77.6843Z" fill="black"/>
<path d="M39.1904 78.9189H46.827V77.6843H40.4251V71.1909H46.827V69.819H40.4251V64.7889H46.827V63.5085H39.1904V78.9189Z" fill="black"/>
<path d="M53.5484 71.1909C54.0972 71.008 54.5545 70.7793 54.9203 70.4592C55.3318 70.1392 55.6519 69.6819 55.8348 69.2246C56.0177 68.6759 56.1549 68.1271 56.1549 67.3955C56.1549 66.7553 56.0635 66.2065 55.7891 65.7035C55.6062 65.2462 55.2404 64.789 54.8745 64.4689C54.5087 64.1488 54.0514 63.9201 53.5027 63.6915C52.954 63.5086 52.4052 63.4171 51.8565 63.4171H48.1982V78.8732H49.4329V71.3281H50.7133L55.5147 78.8732H57.0238L52.1309 71.3281C52.7253 71.3738 53.1369 71.3281 53.5484 71.1909ZM49.4786 64.789H51.9022C52.3138 64.789 52.7253 64.8347 53.0911 64.9719C53.457 65.0633 53.7313 65.2462 54.0972 65.5206C54.3715 65.7035 54.5544 65.9779 54.7374 66.3437C54.9203 66.6638 55.0117 67.0754 55.0117 67.5326C55.0117 68.4472 54.7374 69.1331 54.2344 69.5904C53.7313 70.0477 53.0454 70.3221 52.1766 70.3221H49.5244L49.4786 64.789Z" fill="black"/>
<path d="M69.0508 75.352L65.2554 62.6853L61.4142 75.352L57.6645 63.5084H56.3384L61.4599 79.6504L65.2554 67.0295L69.0051 79.6504L74.1266 63.5084H72.8005L69.0508 75.352Z" fill="black"/>
<path d="M81.1222 71.1909C81.6709 71.008 82.1282 70.7793 82.494 70.4592C82.9056 70.1392 83.2257 69.6819 83.4086 69.2246C83.5915 68.6759 83.7287 68.1271 83.7287 67.3955C83.7287 66.7553 83.6372 66.2065 83.3628 65.7035C83.1799 65.2462 82.8141 64.789 82.4483 64.4689C82.0824 64.1488 81.6252 63.9201 81.0764 63.6915C80.5277 63.5086 79.979 63.4171 79.4302 63.4171H75.772V78.8732H77.0066V71.3281H78.287L83.0885 78.8732H84.5975L79.7046 71.3281C80.2533 71.3738 80.7563 71.3281 81.1222 71.1909ZM77.0524 64.789H79.4759C79.8875 64.789 80.2991 64.8347 80.6649 64.9719C81.0307 65.0633 81.3051 65.2462 81.6709 65.5206C81.9453 65.7035 82.1282 65.9779 82.3111 66.3437C82.494 66.6638 82.5855 67.0754 82.5855 67.5326C82.5855 68.4472 82.3111 69.1331 81.8081 69.5904C81.3051 70.0477 80.6192 70.3221 79.7503 70.3221H77.0981L77.0524 64.789Z" fill="black"/>
<path d="M86.8841 63.5085H85.6494V78.9646H86.8841V63.5085Z" fill="black"/>
<path d="M88.0732 64.7889H91.4571V78.9189H92.6918V64.7889H96.0757V63.5085H88.0732V64.7889Z" fill="black"/>
<path d="M96.8975 78.9189H104.534V77.6843H98.1321V71.1909H104.534V69.819H98.1321V64.7889H104.534V63.5085H96.8975V78.9189Z" fill="black"/>
<path d="M111.256 71.1909C111.805 71.008 112.262 70.7793 112.628 70.4592C113.04 70.1392 113.36 69.6819 113.543 69.2246C113.726 68.6759 113.863 68.1271 113.863 67.3955C113.863 66.7553 113.771 66.2065 113.497 65.7035C113.223 65.1548 112.948 64.789 112.583 64.4689C112.217 64.1488 111.759 63.9201 111.211 63.6915C110.662 63.5086 110.113 63.4171 109.564 63.4171H105.906V78.8732H107.141V71.3281H108.421L113.223 78.8732H114.732L109.885 71.3281C110.433 71.3738 110.845 71.3281 111.256 71.1909ZM107.187 64.789H109.61C110.022 64.789 110.433 64.8347 110.799 64.9719C111.165 65.0633 111.439 65.2462 111.805 65.5206C112.08 65.7035 112.262 65.9779 112.445 66.3437C112.628 66.6638 112.72 67.0754 112.72 67.5326C112.72 68.4472 112.445 69.1331 111.942 69.5904C111.439 70.0477 110.753 70.3221 109.885 70.3221H107.232L107.187 64.789Z" fill="black"/>
<path d="M120.769 70.825C120.312 70.5049 119.672 70.2763 119.077 69.9104C118.071 69.4532 117.339 69.0873 117.019 68.813C116.471 68.2642 116.105 67.7155 116.105 67.121C116.105 66.3894 116.379 65.7492 116.928 65.2919C117.477 64.8803 118.117 64.6517 118.894 64.6517C119.626 64.6517 120.266 64.8346 120.723 65.0633C121.089 65.2462 121.364 65.612 121.638 66.0693L121.729 66.2522L122.918 65.7034L122.827 65.5205C122.049 64.1487 120.769 63.4628 118.94 63.4628C117.797 63.4628 116.882 63.8286 116.105 64.4688C115.327 65.109 114.916 66.0235 114.916 67.1667C114.916 68.2642 115.327 69.1788 116.059 69.819C116.516 70.2305 117.339 70.7335 118.528 71.2823C119.169 71.5566 119.672 71.831 120.083 72.0597C120.449 72.2426 120.723 72.4712 120.998 72.6084C121.729 73.2486 122.004 73.9802 122.004 74.9405C122.004 75.9465 121.684 76.6782 121.089 77.2269C120.54 77.7757 119.717 78.0043 118.666 78.0043C116.836 78.0043 115.739 77.1812 115.236 75.4893L115.19 75.3063L113.956 75.7179L114.001 75.9008C114.641 78.1872 116.242 79.3304 118.62 79.3304C119.397 79.3304 120.083 79.239 120.632 79.0103C122.324 78.3701 123.147 77.044 123.147 75.032C123.147 73.7973 122.735 72.6998 121.867 71.8767C121.684 71.3737 121.272 71.0994 120.769 70.825Z" fill="black"/>
<path d="M123.603 80.7938L124.151 81.2054L126.438 77.5471L125.294 76.9984L123.603 80.7938Z" fill="black"/>
<path d="M131.286 63.5085H130.052V78.9646H131.286V63.5085Z" fill="black"/>
<path d="M144.776 76.2666L133.527 63.0055V78.9189H134.762V66.5266L146.056 79.5591V63.5085H144.776V76.2666Z" fill="black"/>
<path d="M155.979 64.5146C157.122 64.5146 158.22 64.6975 159.226 65.1548C159.866 65.4749 160.598 65.7949 161.146 66.298L161.467 66.5723V64.9718L161.421 64.9261C160.872 64.4688 160.232 64.103 159.546 63.8286C158.448 63.4628 157.26 63.2799 155.979 63.2799C153.647 63.2799 151.726 64.0573 150.263 65.5206C148.8 66.9839 148.022 68.9502 148.022 71.2366C148.022 73.5687 148.8 75.4893 150.263 76.9526C151.726 78.4159 153.693 79.1933 155.979 79.1933C156.162 79.1933 156.391 79.1933 156.528 79.1933C156.711 79.1933 156.894 79.1933 157.077 79.1476C158.448 78.9647 159.546 78.5988 160.369 78.0501L161.467 77.2727V75.7637L161.146 75.9466C160.323 76.4953 159.683 76.9526 159.134 77.227C158.22 77.6385 157.168 77.8672 155.933 77.8672C153.967 77.8672 152.367 77.227 151.132 75.9923C149.897 74.7577 149.257 73.1572 149.257 71.1909C149.257 69.2246 149.897 67.6241 151.132 66.3894C152.412 65.1548 154.104 64.5146 155.979 64.5146Z" fill="black"/>
<path d="M161.192 91.9055C137.779 89.4362 114.229 88.4759 90.6789 88.1101C63.8365 87.8357 36.8111 88.5674 10.0602 90.8538C6.72203 91.1739 3.38388 91.4482 0 91.8598C4.98437 90.9909 9.96873 90.305 14.9988 89.7106C40.0121 86.784 65.4827 85.9151 90.6789 86.2809C114.32 86.8297 137.962 88.2015 161.192 91.9055Z" fill="#85714D"/>
<path d="M82.1282 93.4146C81.4423 93.4146 80.8936 93.9633 80.8936 94.6492C80.8936 95.3351 81.4423 95.8839 82.1282 95.8839C82.8141 95.8839 83.3629 95.3351 83.3629 94.6492C83.4086 93.9633 82.8141 93.4146 82.1282 93.4146ZM82.1282 95.701C81.5795 95.701 81.1222 95.2437 81.1222 94.6949C81.1222 94.1462 81.5795 93.6889 82.1282 93.6889C82.6769 93.6889 83.1342 94.1462 83.1342 94.6949C83.18 95.2437 82.7227 95.701 82.1282 95.701Z" fill="#85714D"/>
<path d="M82.6776 95.015C82.6776 94.8778 82.6318 94.7864 82.4947 94.6949C82.5861 94.6492 82.6776 94.512 82.6776 94.3748C82.6776 94.1462 82.4947 93.9633 82.266 93.9633H81.7173V95.3808H81.9459V94.7864H82.266C82.4032 94.7864 82.4947 94.8321 82.4947 94.9693C82.4947 95.015 82.4947 95.2894 82.5404 95.3351H82.769C82.6776 95.3351 82.6776 95.2436 82.6776 95.015ZM82.2203 94.5577H81.9002V94.1462H82.2203C82.3117 94.1462 82.4032 94.2376 82.4032 94.3291C82.4489 94.4663 82.3575 94.5577 82.2203 94.5577Z" fill="#85714D"/>
<path d="M37.5918 98.5822H39.3752C38.9636 98.3993 38.8265 98.0334 38.735 97.8048L36.5401 93.2777L34.2994 97.8505C34.1165 98.1706 33.9793 98.445 33.6592 98.6279H35.3511C35.2139 98.5364 35.0768 98.3078 35.1682 98.0792C35.2139 97.9877 35.4426 97.4847 35.4426 97.4847H37.5461C37.5461 97.4847 37.6833 97.8048 37.8204 98.1249C37.8204 98.3078 37.6833 98.5364 37.5918 98.5822ZM35.6712 96.7073L35.9456 96.1129C36.1285 95.7013 36.3571 95.244 36.4029 95.1068C36.4486 95.2897 37.1802 96.753 37.1802 96.753L35.6712 96.7073Z" fill="#85714D"/>
<path d="M44.7716 97.2102C44.36 97.6217 43.9027 97.8503 43.1254 97.8503C42.2108 97.8503 41.2505 97.1644 41.2505 95.9755C41.2505 94.9695 42.1193 94.1464 43.1254 94.1464C43.6741 94.1464 44.1314 94.375 44.5887 94.8323L44.6344 94.878L44.6801 93.5519C44.6801 93.5519 44.2686 93.4604 44.1314 93.4147C43.8113 93.3233 43.4912 93.2318 42.9424 93.2318C41.7535 93.2318 40.3359 94.2378 40.3359 95.9298C40.3359 97.4845 41.5706 98.6277 43.0339 98.6277C43.9485 98.6277 44.5429 98.3991 44.5429 98.3991L44.7258 97.073L44.7716 97.2102Z" fill="#85714D"/>
<path d="M53.4141 98.582H55.2889C54.9688 98.3991 54.8316 98.1705 54.8316 97.6675V94.2836C54.8316 93.872 54.8774 93.6434 55.2432 93.369H53.5512C53.9171 93.5519 53.9628 93.9178 53.9628 94.2836V97.6675C53.8713 98.1247 53.7799 98.3991 53.4141 98.582Z" fill="#85714D"/>
<path d="M59.2683 95.5182C58.9025 95.2438 58.6281 95.0152 58.6281 94.6951C58.6281 94.375 58.8567 94.1463 59.1768 94.1463C59.817 94.1463 60.1828 94.7408 60.1828 94.7408L60.2286 93.5976C60.2286 93.5976 59.7713 93.3232 59.0854 93.3232C58.308 93.3232 57.7135 93.9177 57.7135 94.6951C57.7135 95.3353 58.2623 95.8383 58.7195 96.2041L58.8567 96.2956C59.2226 96.6157 59.4969 96.8443 59.4969 97.2101C59.4969 97.6674 59.1768 97.8503 58.8567 97.8503C58.5366 97.8503 58.0336 97.7131 57.7135 97.3016L57.6221 97.1644L57.8507 98.5362L57.8964 98.4905C57.9422 98.4905 57.9422 98.4448 57.9879 98.4448C58.0336 98.4448 58.1708 98.4905 58.2623 98.4905C58.4452 98.5362 58.6281 98.582 58.9482 98.582C59.7713 98.582 60.4115 97.9418 60.4115 97.0729C60.4572 96.3413 59.7713 95.8383 59.2683 95.5182Z" fill="#85714D"/>
<path d="M66.309 98.582H67.6808C67.3607 98.4448 67.2235 98.1247 67.2235 97.8504V94.1007C67.2235 93.7806 67.3607 93.5519 67.6351 93.369H65.8974C66.1718 93.5519 66.309 93.7806 66.309 94.1007V97.1187C66.2175 97.3016 65.7145 97.7589 65.0286 97.7589C64.3884 97.7589 64.0683 97.3016 64.0683 96.2956V94.0549C64.0683 93.7806 64.1598 93.5519 64.4799 93.369H62.7422C63.1537 93.5519 63.1995 93.9178 63.1995 94.2836V96.5243C63.1995 97.8047 63.8854 98.582 64.9829 98.582C65.6231 98.582 66.1261 98.2162 66.3547 98.0333L66.309 98.582Z" fill="#85714D"/>
<path d="M51.4934 98.6277C51.4934 98.6277 50.9447 97.9875 49.7557 96.2041C50.0758 96.0212 50.4417 95.5639 50.4417 94.9237C50.4417 94.0091 49.8015 93.4147 48.8412 93.4147C48.7955 93.4147 47.1492 93.4147 47.1492 93.4147C47.4693 93.5976 47.5608 93.8262 47.5608 94.1006V97.896C47.5608 98.2161 47.2407 98.4905 47.1035 98.582H48.9326C48.7497 98.4448 48.5211 98.1704 48.5211 97.896V96.387H48.9784L49.7557 97.6217C49.9387 97.9418 50.5331 98.6734 51.4934 98.6734H51.5849L51.4934 98.6277ZM48.7955 95.7011C48.7497 95.7011 48.4296 95.7011 48.4296 95.7011V94.2378C48.4296 94.2378 48.6583 94.2378 48.7497 94.2378C49.1613 94.2378 49.5271 94.5579 49.5271 94.9694C49.5271 95.381 49.2527 95.7011 48.7955 95.7011Z" fill="#85714D"/>
<path d="M74.4939 98.6277C74.4939 98.6277 73.9452 97.9875 72.7562 96.2041C73.0763 96.0212 73.4422 95.5639 73.4422 94.9237C73.4422 94.0091 72.802 93.4147 71.8417 93.4147C71.7959 93.4147 70.1497 93.4147 70.1497 93.4147C70.4698 93.5976 70.5613 93.8262 70.5613 94.1006V97.896C70.5613 98.2161 70.2412 98.4905 70.104 98.582H71.9331C71.7502 98.4448 71.5216 98.1704 71.5216 97.896V96.387H71.9789L72.7562 97.6217C72.9391 97.9418 73.5336 98.6734 74.4939 98.6734H74.5854L74.4939 98.6277ZM71.8417 95.7011C71.7959 95.7011 71.4758 95.7011 71.4758 95.7011V94.2378C71.4758 94.2378 71.7045 94.2378 71.7959 94.2378C72.2075 94.2378 72.5733 94.5579 72.5733 94.9694C72.5733 95.381 72.299 95.7011 71.8417 95.7011Z" fill="#85714D"/>
<path d="M79.2957 97.4387C79.1585 97.6217 78.747 97.7588 78.3811 97.7588H77.4208V96.2955H78.4269C78.7012 96.2955 78.8841 96.3413 79.0213 96.6156V95.2438C78.9299 95.5182 78.6555 95.5639 78.3811 95.5639H77.4208V94.192H78.2897C78.6555 94.192 78.8384 94.2835 79.0213 94.5579C79.0213 94.5579 78.9756 94.375 78.9756 94.2378C78.9299 93.7805 78.9299 93.4147 78.6098 93.4147C78.1982 93.4147 76.1405 93.4147 76.1405 93.4147C76.4605 93.5976 76.552 93.8262 76.552 94.1006V97.7131C76.552 98.1247 76.4148 98.3533 76.0947 98.582H78.7012C79.0213 98.582 79.1128 98.1704 79.25 97.6674C79.2957 97.5759 79.2957 97.4387 79.2957 97.4387Z" fill="#85714D"/>
<path d="M89.9476 96.57V98.6278H89.2617V93.369H91.228C91.7768 93.369 92.234 93.5062 92.5999 93.7806C92.92 94.1007 93.1029 94.4665 93.1029 94.9238C93.1029 95.4268 92.92 95.8383 92.5999 96.1127C92.2798 96.3871 91.8225 96.5243 91.228 96.5243H89.9476V96.57ZM89.9476 95.9755H91.228C91.5938 95.9755 91.8682 95.8841 92.0969 95.7012C92.3255 95.5182 92.417 95.2896 92.417 94.9238C92.417 94.6037 92.3255 94.375 92.0969 94.1464C91.9139 93.9635 91.6396 93.8263 91.2738 93.8263H89.9934V95.9755H89.9476Z" fill="#85714D"/>
<path d="M97.7209 97.2559H95.4803L94.9773 98.6278H94.2456L96.2576 93.369H96.8521L98.8641 98.6278H98.1325L97.7209 97.2559ZM95.6632 96.7072H97.4466L96.532 94.2379L95.6632 96.7072Z" fill="#85714D"/>
<path d="M102.66 96.5243H101.425V98.6735H100.739V93.4148H102.477C103.071 93.4148 103.529 93.552 103.849 93.8263C104.169 94.1007 104.352 94.4665 104.352 95.0153C104.352 95.3354 104.26 95.6555 104.077 95.8841C103.894 96.1128 103.666 96.2957 103.346 96.4329L104.58 98.6735V98.7193H103.849L102.66 96.5243ZM101.425 95.9298H102.477C102.797 95.9298 103.117 95.8384 103.3 95.6555C103.483 95.4726 103.62 95.2439 103.62 94.9238C103.62 94.6037 103.529 94.3751 103.3 94.1464C103.117 93.9635 102.843 93.8721 102.477 93.8721H101.425V95.9298Z" fill="#85714D"/>
<path d="M109.977 93.9178H108.285V98.6278H107.599V93.9178H105.907V93.369H109.977V93.9178Z" fill="#85714D"/>
<path d="M115.693 98.6278H115.007L112.355 94.558V98.6278H111.669V93.369H112.355L115.007 97.4388V93.369H115.693V98.6278Z" fill="#85714D"/>
<path d="M120.586 96.2042H118.3V98.079H120.952V98.6278H117.568V93.369H120.861V93.9178H118.254V95.6097H120.541V96.2042H120.586Z" fill="#85714D"/>
<path d="M124.748 96.5243H123.513V98.6735H122.827V93.4148H124.565C125.159 93.4148 125.617 93.552 125.937 93.8263C126.257 94.1007 126.44 94.4665 126.44 95.0153C126.44 95.3354 126.348 95.6555 126.165 95.8841C125.982 96.1128 125.754 96.2957 125.434 96.4329L126.668 98.6735V98.7193H125.891L124.748 96.5243ZM123.513 95.9298H124.565C124.885 95.9298 125.205 95.8384 125.388 95.6555C125.571 95.4726 125.708 95.2439 125.708 94.9238C125.708 94.6037 125.617 94.3751 125.388 94.1464C125.205 93.9635 124.931 93.8721 124.565 93.8721H123.513V95.9298Z" fill="#85714D"/>
</svg>
