<svg width="14" height="14" viewBox="0 0 14 14" fill="none" xmlns="http://www.w3.org/2000/svg">
<path d="M7 14C3.12941 14 0 10.8706 0 7C0 3.12941 3.12941 0 7 0C10.8706 0 14 3.12941 14 7C14 10.8706 10.8706 14 7 14ZM7 0.823529C3.58235 0.823529 0.823529 3.58235 0.823529 7C0.823529 10.4176 3.58235 13.1765 7 13.1765C10.4176 13.1765 13.1765 10.4176 13.1765 7C13.1765 3.58235 10.4176 0.823529 7 0.823529Z" fill="#54A8C7"/>
<path d="M6.17659 10.047L2.59424 6.46468L3.17071 5.88821L6.17659 8.89409L10.8295 4.24115L11.406 4.81762L6.17659 10.047Z" fill="#54A8C7"/>
</svg>
