<svg width="55" height="54" viewBox="0 0 55 54" fill="none" xmlns="http://www.w3.org/2000/svg">
<g clip-path="url(#clip0_837_169)">
<path d="M34.8324 8.93816C34.8904 10.8533 34.7774 12.7487 34.1512 14.5836C33.7618 15.7236 33.212 16.7742 32.3857 17.6629C32.1627 17.9036 32.0573 18.1413 32.0772 18.4683C32.1032 18.9209 32.1001 19.3766 32.0802 19.8308C32.0528 20.4318 32.3307 20.7694 32.8958 20.9647C35.173 21.7505 37.4318 22.5846 39.7166 23.3477C42.623 24.3181 44.6436 26.1363 45.5172 29.1021C45.7646 29.9408 45.8547 30.8007 45.8302 31.6742C45.8134 32.2873 45.4545 32.6961 44.9246 32.6991C44.39 32.7022 43.996 32.2949 44.0067 31.6909C44.0204 30.89 43.9349 30.1073 43.6844 29.3473C43.0262 27.3414 41.6684 25.997 39.686 25.2824C37.3127 24.4271 34.924 23.6111 32.5491 22.7587C32.2681 22.6573 32.1536 22.7224 32.0024 22.948C30.7439 24.8252 28.9723 25.6594 26.7195 25.3793C25.2014 25.1901 24.0178 24.3907 23.1579 23.1524C22.9075 22.7905 22.7074 22.7103 22.2828 22.8617C19.995 23.6822 17.6903 24.4574 15.3994 25.2703C12.6564 26.2423 11.0146 28.5737 11.01 31.4623C11.01 31.5561 11.0131 31.6515 11.01 31.7454C10.9841 32.3161 10.613 32.6991 10.0906 32.6976C9.57289 32.6946 9.20481 32.307 9.1819 31.7363C9.03223 28.0453 11.2605 24.7813 14.7687 23.5596C17.1527 22.7285 19.5383 21.9003 21.9254 21.0737C22.7853 20.7755 22.8907 20.5893 22.9334 19.6703C22.9793 18.6727 22.8235 17.8355 22.1255 16.9846C20.8029 15.3738 20.3401 13.3739 20.2286 11.3317C20.1339 9.57855 20.0484 7.81484 20.2928 6.06475C20.7785 2.54185 24.2698 -0.175631 27.8436 0.00906765C31.6404 0.204363 34.9607 3.39873 34.8339 7.51962C34.8202 7.99196 34.8324 8.46582 34.8324 8.93816ZM32.9859 8.45825C31.1471 9.04111 29.3189 9.06382 27.4832 8.68685C25.9192 8.3659 24.4515 7.81332 23.2114 6.77932C22.7334 6.38115 22.6631 5.87853 22.9808 5.48643C23.3397 5.04436 23.8284 4.99289 24.3355 5.385C25.2839 6.11925 26.3606 6.57494 27.5198 6.84139C29.1021 7.20321 30.6843 7.27134 32.2559 6.77175C32.7156 6.62641 32.9844 6.46291 32.8194 5.85582C32.1001 3.2216 29.5648 1.55175 26.6905 1.88481C24.1675 2.177 22.0278 4.54023 22.0125 7.11086C22.0033 8.67929 21.9086 10.2522 22.1133 11.8146C22.3607 13.7025 22.9029 15.4677 24.3492 16.8302C24.647 17.1103 24.7891 17.4297 24.7585 17.84C24.7356 18.1413 24.76 18.4456 24.7524 18.7484C24.7295 19.6643 24.8914 20.6044 24.3874 21.4598C24.282 21.6369 24.4408 21.7792 24.5264 21.9215C25.9055 24.2242 29.2059 24.1727 30.5576 21.8277C30.6217 21.7156 30.7454 21.6006 30.6599 21.4674C30.2567 20.8315 30.2261 20.1185 30.2597 19.3388C29.4197 19.6461 28.6424 19.9398 27.7963 19.9731C27.109 20.0004 26.6737 19.7385 26.5973 19.1995C26.521 18.653 26.915 18.2094 27.613 18.1534C29.7115 17.9808 31.0677 16.7924 31.9703 15.0196C33.0165 12.9637 33.0592 10.7428 32.989 8.45674L32.9859 8.45825Z" fill="#485783"/>
<path d="M16.4792 11.4134C16.5265 12.6957 16.5999 13.9841 15.9324 15.1665C15.7171 15.5464 15.5308 15.9643 15.1994 16.2398C14.7167 16.641 14.648 17.1209 14.6618 17.6962C14.6938 18.9936 14.6724 18.9921 15.8652 19.4917C16.4089 19.7188 16.9527 19.9444 17.4887 20.1896C18.0248 20.4349 18.2432 20.933 18.0416 21.3887C17.8217 21.8837 17.307 22.0684 16.7556 21.8519C15.6438 21.4129 14.5732 20.877 13.4415 20.4803C13.0581 20.3456 12.8382 20.0352 12.8428 19.6038C12.8474 19.1496 12.8382 18.6954 12.8458 18.2412C12.8489 17.9914 12.8336 17.834 12.5037 17.9748C12.3021 18.0611 12.0517 18.105 11.8363 18.0762C11.398 18.0187 11.0971 17.7386 11.0345 17.3041C10.9673 16.8409 11.1887 16.4836 11.6378 16.3261C12.1036 16.1641 12.5831 16.0506 12.997 15.7614C14.3334 14.8289 14.7381 13.4981 14.6862 11.9585C14.6755 11.6436 14.4892 11.6542 14.2692 11.6451C12.6244 11.5754 11.1475 11.038 9.82184 10.0736C9.16053 9.59069 8.99864 9.09412 9.36213 8.60361C9.71187 8.13127 10.2128 8.12522 10.865 8.58999C11.876 9.31061 12.9848 9.76782 14.2418 9.83292C14.5533 9.84957 14.648 9.80869 14.5884 9.43173C14.3151 7.72554 12.9023 6.48867 11.1964 6.40692C9.01544 6.30397 7.61035 7.96777 7.44541 9.34998C7.28504 10.7034 7.26519 12.0584 7.44541 13.4103C7.55995 14.2748 8.01966 14.9621 8.68555 15.5086C9.03835 15.7978 9.1926 16.1323 9.18191 16.588C9.16053 17.5706 9.16664 18.5561 9.17886 19.5387C9.18497 20.0473 8.93144 20.3259 8.47631 20.5136C7.08955 21.0859 5.68141 21.6218 4.33741 22.2819C2.71393 23.0797 1.91822 24.468 1.84949 26.2529C1.81895 27.0659 1.84949 27.8804 1.84338 28.6933C1.8388 29.1854 2.06178 29.5048 2.51538 29.7031C3.62876 30.1921 4.73909 30.6902 5.84177 31.2004C6.23581 31.382 6.46948 31.7015 6.4145 32.1541C6.36257 32.578 6.08614 32.8127 5.68599 32.9338C5.44163 33.008 5.23087 32.9172 5.02621 32.8248C3.89909 32.3207 2.77196 31.815 1.65248 31.2927C0.539097 30.7735 -0.00919197 29.8757 0.0198261 28.6661C0.0549533 27.2203 -0.163446 25.7578 0.322225 24.3378C0.894951 22.6634 1.94877 21.3977 3.5524 20.6257C4.64745 20.0988 5.7761 19.6401 6.90017 19.1753C7.22395 19.0421 7.41486 18.8831 7.34766 18.5152C7.33392 18.4426 7.34002 18.3639 7.34766 18.2882C7.44388 17.3783 7.25908 16.6153 6.58861 15.881C5.7929 15.0105 5.47981 13.8705 5.51494 12.6776C5.55312 11.3953 5.3897 10.1084 5.6249 8.83222C6.01283 6.71576 8.0441 4.91873 10.2037 4.59475C13.2185 4.14361 16.0256 6.27066 16.4639 9.20313C16.5724 9.92527 16.4807 10.6747 16.4807 11.4119L16.4792 11.4134Z" fill="#485783"/>
<path d="M49.4941 11.4997C49.52 12.7457 49.5796 13.9947 48.9336 15.1422C48.7289 15.5071 48.564 15.9204 48.2432 16.1762C47.2979 16.9317 47.7652 17.949 47.6751 18.8604C47.6552 19.0693 47.8996 19.0829 48.0493 19.1465C49.0267 19.5674 50.0118 19.9686 50.9832 20.4031C53.6085 21.5779 54.9464 23.6005 54.9907 26.4557C55.0029 27.2309 55.0045 28.0075 54.9907 28.7826C54.9693 29.8484 54.5188 30.7038 53.549 31.1852C52.3409 31.7847 51.1023 32.3252 49.8637 32.8611C49.3337 33.0912 48.8633 32.8672 48.651 32.3585C48.4616 31.9058 48.6587 31.432 49.1703 31.1958C50.2577 30.6932 51.3451 30.1921 52.4463 29.7228C52.9564 29.5048 53.184 29.155 53.1626 28.6252C53.1183 27.57 53.2634 26.5102 53.0679 25.4581C52.7838 23.9305 51.9255 22.8344 50.5128 22.1986C49.181 21.5991 47.8553 20.9799 46.4747 20.4909C46.0593 20.344 45.8317 20.0382 45.8332 19.5856C45.8332 19.1314 45.8241 18.6772 45.8363 18.223C45.8439 17.9354 45.763 17.8294 45.4804 17.9808C45.4483 17.9975 45.4056 17.9914 45.3689 17.999C44.6511 18.1443 44.1914 17.9369 44.0341 17.3979C43.886 16.8923 44.2281 16.4321 44.9077 16.2247C46.6121 15.7039 47.669 14.3307 47.6568 12.564C47.6491 11.4528 47.7927 10.3325 47.559 9.22884C47.1726 7.40002 45.569 6.24187 43.6569 6.39478C41.87 6.5386 40.3946 7.99953 40.3473 9.78747C40.3167 10.9729 40.2266 12.1674 40.416 13.3512C40.5565 14.2293 40.9933 14.9439 41.6775 15.504C42.0318 15.7932 42.183 16.1293 42.1724 16.585C42.1494 17.5675 42.151 18.5531 42.1724 19.5356C42.183 20.0004 41.9677 20.3047 41.5752 20.4742C40.5626 20.9087 39.5409 21.319 38.5191 21.7338C37.9846 21.9503 37.4836 21.7823 37.2622 21.322C37.0239 20.827 37.2209 20.3319 37.7921 20.0746C38.5023 19.7536 39.2201 19.4493 39.9441 19.1586C40.2251 19.0451 40.4022 18.9058 40.3381 18.5788C40.3274 18.5243 40.3335 18.4653 40.3381 18.4092C40.4328 17.4464 40.2816 16.6198 39.5531 15.8386C38.7635 14.9923 38.4748 13.8584 38.5069 12.6851C38.542 11.421 38.3847 10.1508 38.6199 8.89426C39.0842 6.40386 41.4148 4.54023 44.028 4.55991C46.6595 4.57959 48.9229 6.45382 49.3902 8.9533C49.5491 9.80261 49.4467 10.6504 49.4971 11.4952L49.4941 11.4997Z" fill="#485783"/>
<path d="M27.5046 35.8875C27.9277 35.8996 28.2041 36.1115 28.3981 36.4839C29.1327 37.8934 29.8994 39.2862 30.6126 40.7047C30.7989 41.0757 31.054 41.218 31.4282 41.28C32.9997 41.5389 34.5697 41.8175 36.1428 42.0688C36.5766 42.1384 36.8897 42.3125 37.0409 42.7394C37.1921 43.1664 36.9828 43.4722 36.7094 43.7507C35.7244 44.7545 34.7866 45.8112 33.7267 46.7286C33.0242 47.3372 32.9753 47.97 33.1219 48.7754C33.3708 50.144 33.5633 51.5217 33.771 52.8979C33.8244 53.2567 33.7129 53.5806 33.4197 53.8062C33.0837 54.0636 32.7218 54.0454 32.3476 53.8592C30.886 53.1325 29.4152 52.421 27.9582 51.6852C27.6405 51.5247 27.3931 51.5141 27.0617 51.6822C25.6215 52.4149 24.1599 53.1083 22.7105 53.8244C22.347 54.0045 21.9835 54.109 21.6399 53.8365C21.2856 53.5564 21.1893 53.1931 21.2657 52.7283C21.536 51.1145 21.756 49.4915 22.0095 47.8747C22.0584 47.5643 21.9026 47.3826 21.7101 47.1904C20.6227 46.1019 19.5414 45.0088 18.4586 43.9173C18.1363 43.5918 17.7927 43.2693 17.9668 42.7425C18.1348 42.2323 18.5533 42.1233 19.0344 42.0476C20.5341 41.8144 22.0263 41.5404 23.5245 41.2967C23.943 41.2286 24.224 41.0711 24.4302 40.6593C25.1312 39.2559 25.8918 37.8828 26.6127 36.4885C26.8066 36.113 27.0846 35.9102 27.5046 35.892V35.8875ZM20.7357 43.6054C21.6857 44.5743 22.5532 45.4721 23.4375 46.3547C23.8117 46.7286 23.9919 47.1041 23.8789 47.6673C23.6681 48.7179 23.5459 49.7867 23.3947 50.8495C23.3718 51.013 23.3306 51.2552 23.4161 51.3355C23.5841 51.4929 23.7536 51.278 23.914 51.1992C24.9052 50.7193 25.9025 50.25 26.883 49.7474C27.3152 49.5264 27.7001 49.5324 28.1277 49.7504C29.1449 50.2667 30.1819 50.7466 31.1975 51.2658C31.6175 51.4808 31.6878 51.34 31.6267 50.9525C31.4877 50.0789 31.4007 49.1933 31.2052 48.3319C30.9914 47.3857 31.1242 46.6454 31.923 45.9747C32.7538 45.2768 33.4625 44.432 34.275 43.5994C33.241 43.4222 32.2987 43.1936 31.3426 43.1119C30.1743 43.012 29.3663 42.5835 28.9234 41.4314C28.5706 40.514 28.0223 39.6692 27.5092 38.6973C26.8448 39.9478 26.2309 41.0923 25.6291 42.2444C25.4413 42.6047 25.1923 42.8288 24.7677 42.8969C23.4573 43.1104 22.1531 43.3541 20.7357 43.6054Z" fill="#485783"/>
<path d="M49.3768 46.5773C49.2164 45.566 49.0851 44.694 48.9385 43.825C48.8361 43.2103 48.9064 42.6789 49.4394 42.2475C50.1465 41.6752 50.8185 41.0575 51.5043 40.4595C51.4478 40.3747 51.3913 40.29 51.3347 40.2052C50.5849 40.072 49.838 39.8676 49.0836 39.8206C48.0908 39.7601 47.4784 39.3271 47.1088 38.4157C46.8262 37.7224 46.423 37.0774 46.0366 36.3417C45.664 36.8079 45.4792 37.2969 45.2303 37.7451C44.0023 39.9463 44.6835 39.4906 42.2002 39.9266C41.7878 39.9993 41.3785 40.0932 40.9646 40.1371C40.5828 40.1779 40.6546 40.3112 40.847 40.508C41.4839 41.1605 42.1238 41.8099 42.7545 42.467C43.1608 42.8909 43.2143 43.3678 42.918 43.7417C42.5759 44.1747 42.0215 44.2595 41.6167 43.8613C40.398 42.6638 39.1899 41.4527 38.0154 40.2112C37.4733 39.6375 37.8123 38.8351 38.6263 38.6882C39.952 38.449 41.2777 38.2053 42.611 38.0176C42.9729 37.9661 43.1425 37.8117 43.2906 37.5255C43.8725 36.4007 44.4636 35.2789 45.0577 34.1601C45.2562 33.7862 45.4761 33.4349 45.9863 33.4349C46.5132 33.4349 46.7529 33.7786 46.9622 34.1813C47.5578 35.3213 48.1657 36.4567 48.7567 37.5982C48.8667 37.8087 48.9629 37.957 49.2424 37.9994C50.6123 38.2098 51.9762 38.4521 53.3416 38.6822C53.7463 38.7503 54.0579 38.938 54.1907 39.3422C54.3175 39.7268 54.1785 40.0477 53.9082 40.3218C52.9735 41.268 52.0388 42.2142 51.098 43.1513C50.872 43.3753 50.7635 43.5691 50.8323 43.934C51.0705 45.2087 51.2339 46.4985 51.4249 47.7824C51.489 48.2184 51.4417 48.6271 51.0339 48.889C50.6566 49.1328 50.284 49.0359 49.9022 48.8436C48.7307 48.2547 47.5441 47.6961 46.3742 47.1026C46.1069 46.9664 45.9038 46.9679 45.638 47.1026C44.4162 47.7203 43.1883 48.3243 41.9527 48.9102C41.2196 49.2569 40.5095 48.8209 40.5629 48.0821C40.5904 47.7051 40.8103 47.4599 41.1372 47.2994C42.6049 46.5788 44.0756 45.8627 45.5403 45.136C45.9068 44.9544 46.2337 45.0316 46.5727 45.1981C47.4708 45.6432 48.3718 46.0807 49.3768 46.5727V46.5773Z" fill="#485783"/>
<path d="M14.6284 40.2112C13.4738 40.0205 12.4658 39.8509 11.4562 39.6859C11.0637 39.6223 10.8148 39.3952 10.6361 39.0546C10.1703 38.169 9.69378 37.2909 9.15923 36.2917C8.82323 36.9276 8.48571 37.4635 8.24898 38.0388C7.79691 39.1379 7.14476 39.8751 5.82062 39.8706C5.16695 39.8691 4.51328 40.0765 3.8535 40.1916C3.8199 40.4626 4.0551 40.5488 4.18492 40.6881C4.61255 41.1468 5.01881 41.6374 5.51059 42.0204C6.28797 42.6275 6.36128 43.3617 6.1612 44.2413C5.99626 44.9695 5.92753 45.7189 5.80229 46.5591C6.78433 46.0807 7.67625 45.6674 8.5468 45.2147C8.98054 44.9892 9.3593 44.9998 9.78847 45.2147C11.1477 45.8975 12.5208 46.5531 13.8846 47.2267C14.5245 47.5416 14.7506 48.0337 14.5093 48.5423C14.271 49.045 13.7197 49.1706 13.0797 48.8588C11.9007 48.2835 10.717 47.7142 9.54869 47.1162C9.25698 46.9664 9.04621 46.9875 8.76061 47.1329C7.59073 47.7294 6.40251 48.2895 5.22499 48.8709C4.84317 49.0601 4.45066 49.1434 4.09328 48.8709C3.72674 48.5923 3.67786 48.2108 3.75881 47.7536C3.98637 46.4562 4.15437 45.1496 4.35903 43.8477C4.40332 43.5676 4.28572 43.392 4.09939 43.2058C3.17386 42.2762 2.26819 41.33 1.33961 40.4035C1.01736 40.0826 0.814234 39.7374 0.982234 39.2923C1.13802 38.8775 1.50303 38.7382 1.92761 38.6701C3.27772 38.4551 4.62324 38.2098 5.97335 37.9964C6.23757 37.954 6.30477 37.7693 6.39946 37.5922C7.00426 36.4552 7.606 35.3183 8.20469 34.1783C8.41392 33.7786 8.64149 33.4274 9.17909 33.4365C9.68614 33.4455 9.90454 33.7756 10.1061 34.1601C10.7033 35.3001 11.3142 36.4325 11.9068 37.574C12.0381 37.8268 12.1741 37.9646 12.4917 38.0115C13.825 38.2083 15.1507 38.4581 16.481 38.6807C16.9116 38.7533 17.2278 38.9562 17.3652 39.3816C17.4935 39.7783 17.3011 40.0735 17.0354 40.343C15.9281 41.4663 14.83 42.5972 13.7151 43.7129C13.2004 44.2292 12.6903 44.2337 12.2779 43.769C11.9236 43.3693 11.9602 42.909 12.397 42.464C13.1118 41.7373 13.8311 41.0151 14.6314 40.2097L14.6284 40.2112Z" fill="#485783"/>
</g>
<defs>
<clipPath id="clip0_837_169">
<rect width="55" height="54" fill="white"/>
</clipPath>
</defs>
</svg>
