<svg xmlns="http://www.w3.org/2000/svg" viewBox="0 0 508 500"><defs><style>.cls-1{fill:#f7f8fa;}.cls-2{fill:#54a8c7;}</style></defs><g id="Capa_2" data-name="Capa 2"><g id="Capa_1-2" data-name="Capa 1"><path class="cls-1" d="M0,0V500H508V0ZM484,336.54l-.29.7h0C436,448.38,309.92,510.6,200.54,493.78c-17.85-2.75-66.71-10.92-110-49.45C7.26,370.13-10.58,223.15,56.65,119.56c48.92-75.38,136.64-118.12,220-116,18,.46,86.75,3.3,147.2,53.08a226.7,226.7,0,0,1,46.1,52.24C511.35,173.62,514.93,263.81,484,336.54Z"/><path class="cls-2" d="M224.72,497.5a239.18,239.18,0,0,1-36.33-2.74C172,492.25,122.27,484.59,77.9,445.07,57.39,426.81,40.53,404,27.77,377.29A260.76,260.76,0,0,1,4.16,293.08C-2.67,230.76,11.41,168.94,43.81,119,91.16,46.05,177.86.37,264.65,2.58l4,.27,3.88.64-7.86.09c-86.49-2.24-172.8,43.3-220,116C12.37,169.29-1.66,230.88,5.16,293a259.6,259.6,0,0,0,23.51,83.89c12.7,26.6,29.49,49.3,49.89,67.47,44.15,39.32,93.7,46.94,110,49.45a240.87,240.87,0,0,0,42,2.65c2-.05,9.7.09,11.68,0l-5.69.79Q230.61,497.51,224.72,497.5Z"/></g></g></svg>