<svg width="119" height="27" viewBox="0 0 119 27" fill="none" xmlns="http://www.w3.org/2000/svg">
<g clip-path="url(#clip0_841_418)">
<path d="M14.8574 24.8727C13.5439 27.6353 9.12425 27.1113 7.81738 26.5602C8.86813 25.8798 9.65619 24.2399 10.1816 22.8587L13.3469 14.7548C13.5832 14.0988 14.065 13.5694 14.683 13.2863C15.3011 13.0033 16.0033 12.9905 16.6305 13.251C17.9612 13.8302 18.5917 15.4131 18.0424 16.7961L14.8574 24.8727Z" fill="#F2F2F2"/>
<path d="M7.38842 24.9137C5.98013 27.627 1.36067 27.1073 0 26.5673C1.10894 25.9329 1.92534 24.2995 2.48322 22.9496L11.3616 1.66145C11.6219 1.0106 12.1329 0.489465 12.7815 0.21333C13.4301 -0.0628054 14.1628 -0.0711856 14.8177 0.190043C16.1781 0.745691 16.847 2.27337 16.328 3.63907L7.38842 24.9137Z" fill="#F2F2F2"/>
<path d="M107.116 21.4912C106.942 21.3766 106.827 20.9722 106.794 20.2578V10.4517H105.055V14.5494C104.53 13.7497 103.639 13.2705 102.685 13.2756C100.201 13.2756 98.9854 15.1761 98.9854 17.535C98.9854 19.6984 100.06 21.7136 102.396 21.7136C103.47 21.7136 104.605 21.4373 105.129 20.3994V20.6285C105.245 21.2596 105.84 21.6837 106.472 21.5855C106.685 21.5872 106.897 21.5483 107.096 21.471M102.886 20.3387C101.302 20.3387 100.711 18.9099 100.711 17.5283C100.711 16.1466 101.443 14.6841 102.886 14.6841C104.33 14.6841 105.095 15.8164 105.095 17.5283C105.095 19.1053 104.296 20.3387 102.886 20.3387Z" fill="#F2F2F2"/>
<path d="M74.7874 13.5181V11.0784H72.9007V13.5181H71.4639V14.866H72.9007V19.6579C72.894 20.0512 72.9415 20.4436 73.0417 20.8239C73.2968 21.7607 74.3845 21.882 75.1164 21.6461C74.8545 21.5181 74.7672 20.7902 74.7672 20.2982V14.8323H76.4659V13.4844L74.7874 13.5181Z" fill="#F2F2F2"/>
<path d="M34.563 13.2015H36.3355V14.819C36.7101 13.7412 37.7036 13.0033 38.8399 12.9589C39.0785 12.9469 39.3176 12.965 39.5516 13.0128V14.8056C39.2898 14.8056 39.0145 14.7382 38.7526 14.7382C37.4702 14.7382 36.443 15.7626 36.443 17.6227V21.7339H34.563V13.2015Z" fill="#F2F2F2"/>
<path d="M53.463 15.9714C53.388 15.0432 52.5824 14.3487 51.6569 14.4146C50.7572 14.4146 49.4681 14.9066 49.4681 17.4407C49.4681 18.8425 50.0455 20.2983 51.5629 20.2983C52.5767 20.2983 53.2683 19.5906 53.4429 18.4044H55.2154C54.8931 20.5544 53.6174 21.7742 51.5562 21.7742C49.0787 21.7742 47.709 19.9343 47.709 17.4609C47.709 14.9874 49.0115 12.9992 51.6233 12.9992C53.463 12.9588 55.0073 13.9495 55.2154 15.9714H53.463Z" fill="#F2F2F2"/>
<path d="M56.4646 10.4517H58.2439V16.8206L61.4331 13.5452H63.6017L60.52 16.5375L63.9442 21.7338H61.7889L59.2711 17.69L58.2237 18.7279V21.7203H56.4512L56.4646 10.4517Z" fill="#F2F2F2"/>
<path d="M65.656 17.845C65.656 19.1457 66.3274 20.2982 67.7709 20.2982C68.6635 20.3653 69.4722 19.7708 69.6777 18.8964H71.3294C71.0124 20.5854 69.5158 21.7901 67.8045 21.7337C65.3538 21.7337 63.9707 19.9073 63.9707 17.353C63.9707 14.9874 65.4142 12.9587 67.7508 12.9587C70.2149 12.9587 71.7256 15.3244 71.4436 17.8315H65.6694L65.656 17.845ZM69.6845 16.6386C69.6173 15.4794 68.8855 14.4482 67.7105 14.4482C67.1465 14.4622 66.6116 14.7025 66.2255 15.1155C65.8394 15.5284 65.6342 16.0794 65.656 16.6453L69.6845 16.6386Z" fill="#F2F2F2"/>
<path d="M77.1373 13.2013H78.8494V14.3875H78.8964C79.3846 13.4641 80.3607 12.9073 81.4008 12.9587C82.3926 12.8835 83.3187 13.4614 83.6904 14.3875C84.2283 13.4909 85.1991 12.9473 86.2417 12.9587C87.9471 12.9587 88.9744 13.7472 88.9744 15.8096V21.7337H87.1683V16.6857C87.1683 15.3378 87.1011 14.401 85.6777 14.401C84.4692 14.401 83.9388 15.2434 83.9388 16.652V21.7202H82.1327V16.187C82.1327 15.0345 81.7835 14.4145 80.6891 14.4145C79.7559 14.4145 78.8964 15.2097 78.8964 16.5981V21.7202H77.0903L77.1373 13.2013Z" fill="#F2F2F2"/>
<path d="M91.9152 17.845C91.9152 19.1457 92.5866 20.2982 94.0302 20.2982C94.9228 20.3653 95.7314 19.7708 95.937 18.8964H97.5887C97.2795 20.5901 95.778 21.7988 94.0638 21.7337C91.6131 21.7337 90.23 19.9073 90.23 17.353C90.23 14.9874 91.6735 12.9587 94.0168 12.9587C96.4809 12.9587 97.9848 15.3244 97.7028 17.8315H91.9152V17.845ZM95.9437 16.6386C95.9437 15.5219 95.0419 14.6167 93.9295 14.6167C92.817 14.6167 91.9152 15.5219 91.9152 16.6386H95.9437Z" fill="#F2F2F2"/>
<path d="M108.365 12.1231H110.272V10.4517H108.392L108.365 12.1231ZM108.365 21.7338H110.272V13.5317H108.392L108.365 21.7338Z" fill="#F2F2F2"/>
<path d="M29.6213 13.2756C28.6773 13.2763 27.7939 13.7424 27.2579 14.5224V10.4517H25.5122V20.2915C25.5122 20.6352 25.4451 21.4103 25.1899 21.5249C25.3878 21.5876 25.5935 21.6216 25.8009 21.626C26.4375 21.7158 27.0308 21.284 27.1438 20.6487V20.4196C27.654 21.4575 28.7954 21.7338 29.8831 21.7338C32.213 21.7338 33.3006 19.7119 33.3006 17.5687C33.3006 15.2166 32.0988 13.289 29.6146 13.289M29.3729 20.3454C27.9629 20.3454 27.1572 19.1458 27.1572 17.5418C27.1572 15.9377 27.8957 14.7044 29.3729 14.7044C30.85 14.7044 31.555 16.0523 31.555 17.5418C31.555 19.0312 30.9574 20.3454 29.3729 20.3454Z" fill="#F2F2F2"/>
<path d="M47.0714 21.4844C46.8229 21.3159 46.7424 20.3723 46.7424 19.9006V15.3648C46.7424 13.6327 45.0907 12.9587 43.5196 12.9587C41.7403 12.9587 39.9745 13.599 39.8604 15.722H41.6396C41.7068 14.8256 42.4252 14.4078 43.4256 14.4078C44.097 14.4078 45.0907 14.5763 45.0907 15.5333C45.0907 16.6116 43.9493 16.4768 42.6736 16.7127C41.1831 16.9014 39.5649 17.2384 39.5649 19.3075C39.5649 20.925 40.9078 21.7337 42.3312 21.7337C43.3625 21.7658 44.3676 21.4046 45.1444 20.7228C45.271 21.2015 45.6806 21.5508 46.1717 21.5989C46.4763 21.6285 46.7837 21.5894 47.0714 21.4844ZM44.9631 18.7076C44.9631 19.8669 43.7546 20.2847 42.9489 20.2847C42.3245 20.2847 41.2972 20.0488 41.2972 19.2266C41.2972 18.2696 41.9686 17.9798 42.734 17.8315C43.4994 17.6832 44.3857 17.6967 44.9094 17.3395L44.9631 18.7076Z" fill="#F2F2F2"/>
<path d="M119 21.4844C118.752 21.3159 118.658 20.4195 118.671 19.9006V15.3648C118.671 13.6327 117.019 12.9587 115.448 12.9587C113.669 12.9587 111.903 13.599 111.789 15.722H113.568C113.635 14.8256 114.354 14.4078 115.354 14.4078C116.026 14.4078 117.019 14.5763 117.019 15.5333C117.019 16.6116 115.878 16.4768 114.602 16.7127C113.112 16.9014 111.494 17.2384 111.494 19.3075C111.494 20.925 112.836 21.7337 114.26 21.7337C115.284 21.7606 116.281 21.3997 117.053 20.7228C117.18 21.2015 117.589 21.5508 118.08 21.5989C118.392 21.6331 118.707 21.5938 119 21.4844ZM116.932 18.7076C116.932 19.8669 115.717 20.2847 114.918 20.2847C114.293 20.2847 113.259 20.0488 113.259 19.2266C113.259 18.2696 113.931 17.9798 114.703 17.8315C115.475 17.6832 116.361 17.6967 116.885 17.3395L116.932 18.7076Z" fill="#F2F2F2"/>
</g>
<defs>
<clipPath id="clip0_841_418">
<rect width="119" height="27" fill="white"/>
</clipPath>
</defs>
</svg>
