<svg width="125" height="21" viewBox="0 0 125 21" fill="none" xmlns="http://www.w3.org/2000/svg">
  <g clip-path="url(#clip0_3518_1256)">
    <path d="M35.4041 5.57522H38.1887L38.4981 7.05467L38.6528 7.20261L38.8075 7.05467C39.7357 5.87111 40.9733 5.27933 42.2138 5.27933C42.8326 5.27933 43.1421 5.27933 43.7609 5.57522V8.23823H41.9044C40.0766 8.23823 38.5611 9.66015 38.4981 11.3752V19.4848H35.4041V5.57522Z" fill="#ffffff"></path>
    <path d="M58.0024 19.4905H55.2177L54.9083 18.3069L54.7536 18.159L54.5989 18.3069C53.6707 19.1946 52.1237 19.7864 50.5738 19.7864C46.5487 19.7864 43.1453 16.8275 43.1453 12.5343C43.1453 8.24119 46.5516 5.28229 50.5738 5.28229C52.1208 5.28229 53.6678 5.87407 54.5989 6.76174L54.7536 6.90968L54.9083 6.76174L55.2177 5.57818H58.0024V19.4905ZM50.7285 7.9453C47.7891 7.9453 46.2107 10.0165 46.2107 12.5343C46.2107 15.0522 47.7891 17.1234 50.7285 17.1234C53.3584 17.1234 55.2177 15.0522 55.2177 12.5343C55.2177 10.0165 53.3613 7.9453 50.7285 7.9453Z" fill="#ffffff"></path>
    <path d="M67.1326 17.1206C68.989 17.1206 70.4129 15.9371 70.9085 14.7535L73.3236 16.233C72.1175 18.3042 69.9173 19.7864 66.9779 19.7864C63.0788 19.7864 59.5493 16.8275 59.5493 12.5343C59.5493 8.24119 63.0788 5.28229 66.9779 5.28229C69.9173 5.28229 72.086 6.76174 73.2921 8.83571L70.877 10.3152C70.3814 9.1316 68.989 7.94804 67.1326 7.94804C64.1933 7.94804 62.5832 10.0193 62.5832 12.5371C62.5832 15.0549 64.1933 17.1261 67.1326 17.1261V17.1206Z" fill="#ffffff"></path>
    <path d="M87.4073 5.57534H83.385L77.5034 11.2V0H74.4065V19.4904H77.5034V13.5699L83.6944 19.4904H87.7195L80.4141 12.2658L87.4073 5.57534Z" fill="#ffffff"></path>
    <path d="M89.4212 13.274C89.4212 15.3452 90.9682 17.1233 93.601 17.1233C95.4575 17.1233 96.7266 16.2356 97.1907 15.0521L99.792 16.2356C98.5544 18.3069 96.3857 19.7891 93.4463 19.7891C89.5759 19.7891 86.3271 16.8301 86.3271 12.537C86.3271 8.24385 89.4212 5.28494 93.4463 5.28494C97.1621 5.28494 100.256 8.0959 100.256 12.3891L99.9467 13.2767H89.4212V13.274ZM89.5759 10.6685H97.0045C96.8498 9.12878 95.3028 7.94522 93.4435 7.94522C91.2776 7.94522 90.0371 9.12878 89.573 10.6685H89.5759Z" fill="#ffffff"></path>
    <path d="M107.063 16.8247C106.135 16.8247 105.485 16.2329 105.485 15.3452V8.2411H108.61V5.57808H105.485V0H102.451V5.57534H99.6345V8.23836H102.451V15.3425C102.451 18.0055 104.121 19.4877 107.218 19.4877H124.997V16.8247H107.06H107.063Z" fill="#ffffff"></path>
    <path d="M26.4286 5.27945C24.9131 5.27945 23.3345 5.87123 22.4035 6.7589L22.2488 6.90685L22.0625 6.7589V0H19V19.4904H21.7846L22.0625 18.3068L22.2488 18.1589L22.4035 18.3068C23.3317 19.1945 24.8787 19.7863 26.4286 19.7863C30.4537 19.7863 33.8572 16.8274 33.8572 12.5342C33.8572 8.2411 30.4509 5.28219 26.4286 5.28219V5.27945ZM26.2739 17.1205C23.6439 17.1205 21.7846 15.0493 21.7846 12.5315C21.7846 10.0137 23.6411 7.94247 26.2739 7.94247C29.2132 7.94247 30.7631 10.0137 30.7631 12.5315C30.7631 15.0493 29.2161 17.1205 26.2739 17.1205Z" fill="#ffffff"></path>
  </g>
  <path d="M9.51733 17.2344L11.1648 10.6035H12.45L10.0095 19.1416C9.95028 19.3239 9.87052 19.5199 9.77026 19.7295C9.67456 19.9437 9.55151 20.1465 9.40112 20.3379C9.25073 20.5293 9.07072 20.6842 8.86108 20.8027C8.65145 20.9258 8.40535 20.9873 8.1228 20.9873C8.03621 20.9873 7.92456 20.9736 7.78784 20.9463C7.65568 20.9189 7.55998 20.8962 7.50073 20.8779V19.8525C7.52808 19.8571 7.57137 19.8617 7.63062 19.8662C7.68986 19.8753 7.73315 19.8799 7.7605 19.8799C7.99748 19.8799 8.198 19.8411 8.36206 19.7637C8.53068 19.6908 8.67423 19.5654 8.79272 19.3877C8.91121 19.2145 9.01147 18.9753 9.09351 18.6699L9.51733 17.2344ZM8.45093 10.6035L9.92065 16.3457L10.2351 17.6787L9.37378 18.1436L7.13159 10.6035H8.45093Z" fill="#ffffff"></path>
  <path d="M0.90918 7.5H2.11914V16.5645L2.0166 18H0.90918V7.5ZM6.26855 13.9668V14.6572C6.26855 15.2406 6.21387 15.751 6.10449 16.1885C5.99967 16.6214 5.84245 16.9837 5.63281 17.2754C5.42318 17.5625 5.16797 17.779 4.86719 17.9248C4.56641 18.0661 4.22233 18.1367 3.83496 18.1367C3.45215 18.1367 3.12174 18.0592 2.84375 17.9043C2.56576 17.7493 2.33333 17.526 2.14648 17.2344C1.95964 16.9427 1.81152 16.5895 1.70215 16.1748C1.59733 15.7601 1.52441 15.293 1.4834 14.7734V13.8506C1.52441 13.3265 1.59733 12.8571 1.70215 12.4424C1.80697 12.0231 1.9528 11.6676 2.13965 11.376C2.3265 11.0798 2.55892 10.8542 2.83691 10.6992C3.11491 10.5443 3.44531 10.4668 3.82812 10.4668C4.22005 10.4668 4.56641 10.5352 4.86719 10.6719C5.17253 10.8086 5.42773 11.0205 5.63281 11.3076C5.84245 11.5902 5.99967 11.9525 6.10449 12.3945C6.21387 12.832 6.26855 13.3561 6.26855 13.9668ZM5.05859 14.6572V13.9668C5.05859 13.5566 5.03125 13.1989 4.97656 12.8936C4.92643 12.5882 4.84212 12.3353 4.72363 12.1348C4.60514 11.9342 4.44564 11.7839 4.24512 11.6836C4.04915 11.5833 3.80534 11.5332 3.51367 11.5332C3.26758 11.5332 3.05111 11.5833 2.86426 11.6836C2.68197 11.7839 2.52474 11.9206 2.39258 12.0938C2.26042 12.2624 2.15104 12.4561 2.06445 12.6748C1.97786 12.889 1.91406 13.1123 1.87305 13.3447V15.2861C1.93229 15.5824 2.02572 15.8672 2.15332 16.1406C2.28548 16.4095 2.46322 16.6305 2.68652 16.8037C2.90983 16.9769 3.18783 17.0635 3.52051 17.0635C3.7985 17.0635 4.0332 17.0156 4.22461 16.9199C4.42057 16.8242 4.58008 16.6784 4.70312 16.4824C4.82617 16.2819 4.91504 16.0312 4.96973 15.7305C5.02897 15.4251 5.05859 15.0674 5.05859 14.6572Z" fill="#ffffff"></path>
  <defs>
    <clipPath id="clip0_3518_1256">
      <rect width="106" height="20" fill="white" transform="translate(19)"></rect>
    </clipPath>
  </defs>
</svg>