<svg width="50" height="54" viewBox="0 0 50 54" fill="none" xmlns="http://www.w3.org/2000/svg">
<g clip-path="url(#clip0_837_205)">
<path d="M49.9759 28.2665C49.9535 27.98 49.7595 27.634 49.535 27.4522C48.6146 26.7055 47.614 26.0554 46.7177 25.2813C46.1564 24.7969 45.5744 24.6827 44.8817 24.6891C42.9478 24.7084 41.0124 24.6875 39.0786 24.6827C39.0546 24.6392 39.0305 24.5958 39.0049 24.5523C39.0049 19.1855 39.0049 13.8202 39.0049 8.45339C39.0209 8.40189 39.0353 8.3504 39.0514 8.29729C39.0706 8.26028 39.069 8.22327 39.0466 8.18787C38.8942 8.02211 38.7435 7.85797 38.5912 7.69222C36.3928 5.48593 34.1944 3.27965 31.996 1.07337L31.3771 0.370128C31.3001 0.32185 31.2231 0.273573 31.1462 0.225295C31.0243 0.181845 30.904 0.138396 30.7822 0.0949458L29.8345 0.109429C29.3102 0.077244 28.7858 0.0466683 28.2615 0.0144833H21.4194C21.3392 0.0144833 21.2591 0.0144833 21.1789 0.0144833C16.8896 0.0096555 12.6018 0 8.31409 0C6.35944 0 4.40478 0.0144833 2.45173 0.0241388C2.41165 0.0225295 2.37316 0.0209203 2.33308 0.0177018C1.64518 0.283228 0.984542 0.568065 0.521134 1.20211C0.0208454 1.89087 0 2.63917 0 3.45345C0.0192419 19.1758 0.0144314 34.8998 0.0176384 50.6222C0.0176384 50.9794 0.0561221 51.3367 0.078571 51.6939C0.078571 51.7728 0.078571 51.85 0.0769675 51.9289C0.631775 53.3434 1.6099 54.0032 3.18132 53.9984C14.2983 53.9646 25.4137 53.9807 36.5307 53.9726C36.776 53.9726 37.023 53.8857 37.2683 53.8391C37.3116 53.8069 37.3549 53.7747 37.3982 53.7441C38.5575 53.0151 39.0867 51.982 38.9552 50.6013C38.9119 50.1442 38.9071 49.6743 38.9664 49.2205C38.9953 48.9968 39.1588 48.6943 39.3464 48.601C42.0675 47.2492 44.1216 45.1652 45.7764 42.6677C47.0897 40.6851 48.1544 38.5625 48.783 36.258C49.171 34.8354 49.4356 33.3775 49.7563 31.9356C49.7835 31.8937 49.8124 31.8535 49.8396 31.8117C49.8525 31.3723 49.8653 30.933 49.8781 30.4937C49.9086 30.4502 49.9407 30.4068 49.9711 30.3633C49.9808 29.6633 50.0337 28.9601 49.9792 28.2649L49.9759 28.2665ZM31.6256 3.49851C31.7731 3.62403 31.9303 3.7399 32.0666 3.87668C33.197 4.99833 34.3243 6.1232 35.4531 7.24806C35.4515 7.30761 35.4499 7.36876 35.4467 7.4283C34.5119 7.43152 33.5787 7.43956 32.6438 7.43634C32.1564 7.43313 31.7491 7.28508 31.6048 6.74759C31.6112 5.66456 31.6176 4.58154 31.624 3.50012L31.6256 3.49851ZM37.0951 50.8845C37.0085 51.6199 36.8225 52.0625 35.8059 52.0609C26.9659 52.048 18.1258 52.0528 9.2858 52.0528C7.22532 52.0528 5.16644 52.0625 3.10596 52.0415C2.83657 52.0383 2.56879 51.8903 2.30101 51.8098C2.27214 51.7808 2.24168 51.7519 2.21282 51.7229C1.88731 51.4075 1.75261 51.047 1.95145 50.6093C1.95145 50.5675 1.94824 50.5272 1.94664 50.4854C1.95305 50.3245 1.96427 50.1652 1.96427 50.0042C1.96427 34.66 1.96427 19.3158 1.96427 3.97002C1.96427 3.8091 1.95305 3.64978 1.94664 3.48885C1.94664 3.44701 1.94984 3.40678 1.95145 3.36655C1.73016 2.67296 1.99314 2.18214 2.69065 1.99869C2.82214 1.96489 2.96164 1.94076 3.09634 1.94076C11.9171 1.94076 20.7379 1.94558 29.5571 1.9488C29.578 1.98421 29.6004 2.02122 29.6213 2.05662C29.6309 3.61277 29.6389 5.16891 29.6485 6.72506C29.6581 6.74115 29.6694 6.75563 29.6806 6.77012C29.6694 6.75563 29.6597 6.73954 29.6485 6.72506C29.6629 6.77494 29.6004 7.2368 29.9484 7.92556C30.0398 8.0543 30.1312 8.18304 30.221 8.31339L30.3027 8.4035C30.7838 8.86697 31.2712 9.31595 31.9848 9.37227C32.065 9.37066 32.1451 9.36905 32.2253 9.36584H37.055V24.5765C37.0406 24.6151 37.0262 24.6537 37.0117 24.6923C35.0138 24.6956 33.0142 24.7133 31.0163 24.6923C30.3637 24.6859 29.8201 24.7937 29.2877 25.2475C28.3497 26.0489 27.3283 26.749 26.3405 27.4924C26.3084 27.5262 26.2764 27.5584 26.2443 27.5922C26.1577 27.8851 25.9926 28.1812 25.9974 28.4725C26.0086 29.3849 26.084 30.2974 26.1337 31.2114C26.1321 31.25 26.1305 31.2887 26.1273 31.3273C26.3213 32.4521 26.3998 33.614 26.7334 34.6954C27.277 36.4608 27.9857 38.1746 28.6287 39.9094C28.6463 39.9577 28.7057 39.9899 28.7457 40.0301C28.7778 40.0623 28.8099 40.0945 28.842 40.1267C29.0953 40.6658 29.315 41.2242 29.6132 41.7375C29.9211 42.2686 30.3059 42.7562 30.6571 43.2631C30.6988 43.3435 30.7421 43.424 30.7838 43.5061C31.2263 44.0629 31.6689 44.6181 32.1115 45.1749C32.4739 45.5386 32.8379 45.9039 33.2002 46.2676L34.73 47.4777C34.815 47.5212 34.8999 47.563 34.9849 47.6064C35.5028 47.9251 35.9967 48.3 36.5483 48.543C36.9572 48.7233 37.047 48.9534 37.039 49.3557C37.0278 49.8658 37.1577 50.3872 37.0983 50.8877L37.0951 50.8845ZM48.0229 30.3279C48.0261 30.5403 47.994 30.7544 47.978 30.9668C47.9812 31.0054 47.9828 31.044 47.986 31.0827C47.5418 34.615 46.4322 37.9172 44.5882 40.9651C44.5481 41.0455 44.5064 41.1276 44.4664 41.2081C44.4263 41.2467 44.3862 41.2837 44.3461 41.3223C44.314 41.3642 44.282 41.4076 44.2515 41.4495C44.2034 41.5283 44.1553 41.6056 44.1072 41.6844C44.0751 41.7262 44.043 41.7697 44.0126 41.8115C42.7298 43.7217 41.1022 45.2553 39.1877 46.5331C38.224 47.1768 37.5024 46.9724 36.6301 46.4285C33.8016 44.6647 31.9062 42.1173 30.423 39.1981C29.3278 37.0433 28.6207 34.7534 28.1685 32.3942C27.9616 31.3128 27.9697 30.1879 27.92 29.0808C27.9119 28.9005 28.0659 28.6591 28.2182 28.5352C28.9173 27.9656 29.6293 27.412 30.3637 26.889C30.5721 26.7409 30.864 26.6395 31.1173 26.6379C35.6985 26.6234 40.2796 26.6154 44.8608 26.6492C45.2408 26.6524 45.6481 26.9308 45.9929 27.1561C46.5332 27.5085 47.0063 27.9639 47.5515 28.3067C48.4013 28.8394 48.0149 29.6231 48.0261 30.3279H48.0229Z" fill="#485783"/>
<path d="M8.05292 16.3822C14.3723 16.3951 20.6916 16.3951 27.011 16.3822C27.2611 16.3822 27.5113 16.2261 27.7614 16.144C27.8496 16.0265 27.9362 15.9091 28.0244 15.7916C28.018 15.2911 28.1334 14.7327 27.4311 14.5734C27.3894 14.5428 27.3461 14.5138 27.3044 14.4833C27.0863 14.4736 26.8667 14.4575 26.6486 14.4575C20.6018 14.4575 14.5535 14.4575 8.50671 14.4575C8.28863 14.4575 8.06895 14.4752 7.85088 14.4833C7.8124 14.4623 7.77391 14.4607 7.73543 14.4817C6.99943 14.8148 6.83587 15.1077 7.02829 15.996C7.15497 16.5817 7.68572 16.3822 8.05292 16.3822Z" fill="#485783"/>
<path d="M28.0275 46.0117C27.896 45.4517 27.4855 45.3068 26.9821 45.3068C20.6868 45.3068 14.3915 45.3068 8.09616 45.3068C7.36336 45.3068 7.00579 45.6448 7.0138 46.3094C7.02022 46.9289 7.37619 47.2331 8.09937 47.2331C12.7767 47.2331 17.4525 47.2331 22.1299 47.2331C23.7494 47.2331 25.3673 47.2331 26.9869 47.2331C27.4904 47.2331 27.9009 47.0883 28.0307 46.5282C28.0596 46.4832 28.0869 46.4381 28.1157 46.3931V46.1469C28.0869 46.1018 28.0596 46.0567 28.0307 46.0101L28.0275 46.0117Z" fill="#485783"/>
<path d="M23.0966 22.1626C18.137 22.1739 13.179 22.169 8.21939 22.169C7.41925 22.169 7.02159 22.4619 7.01197 23.0493C7.00074 23.7815 7.37115 24.1018 8.24826 24.1034C10.708 24.1066 13.1678 24.1034 15.6275 24.1034C18.0873 24.1034 20.5871 24.1066 23.0661 24.0985C23.2922 24.0985 23.5487 24.0776 23.7396 23.9714C24.1148 23.7638 24.4066 23.4178 24.2607 22.9688C24.0907 22.4442 23.6979 22.161 23.0966 22.1626Z" fill="#485783"/>
<path d="M7.99354 39.5199C9.89047 39.5216 11.7874 39.5199 13.6843 39.5199C15.5813 39.5199 17.4782 39.5232 19.3751 39.5199C20.0374 39.5199 20.435 39.174 20.4591 38.6043C20.4831 38.0394 20.0502 37.6001 19.4008 37.5985C15.5877 37.5905 11.773 37.5905 7.95987 37.5985C7.34413 37.5985 7.00579 37.9896 7.01381 38.6139C7.02183 39.182 7.38422 39.5199 7.99354 39.5216V39.5199Z" fill="#485783"/>
<path d="M8.16664 31.8149C11.8627 31.8229 15.5587 31.8278 19.2548 31.8342H19.5017C19.8112 31.6218 20.1223 31.4094 20.4317 31.1953C20.4381 31.0038 20.4446 30.8107 20.451 30.6192C20.1591 30.0689 19.7166 29.8613 19.0864 29.8709C17.0484 29.8999 15.0103 29.8822 12.9723 29.8822C11.3335 29.8822 9.69477 29.879 8.05761 29.8838C7.34405 29.887 6.96563 30.2716 7.01213 30.9218C7.05382 31.5108 7.43706 31.8133 8.16664 31.8149Z" fill="#485783"/>
<path d="M42.5407 31.7907C42.3691 31.9114 42.1751 32.0096 42.0276 32.156C40.4481 33.7299 38.8783 35.3134 37.3005 36.8872C37.153 37.0337 36.9589 37.1302 36.7858 37.2509C36.0626 36.5364 35.3394 35.8203 34.6146 35.1074C34.2298 34.7276 33.5676 34.6793 33.133 35.0865C32.7802 35.418 32.7546 35.8589 33.0849 36.2677C34.164 37.3765 35.2416 38.4868 36.3256 39.5908C36.3704 39.6375 36.4699 39.631 36.5452 39.6487C37.0343 39.9609 37.3406 39.6246 37.642 39.3236C39.6207 37.3443 41.5898 35.3552 43.5749 33.3823C43.9806 32.98 43.9886 32.5246 43.7417 32.1013C43.4787 31.6507 43.0313 31.551 42.5423 31.7907H42.5407Z" fill="#485783"/>
</g>
<defs>
<clipPath id="clip0_837_205">
<rect width="50" height="54" fill="white"/>
</clipPath>
</defs>
</svg>
