<svg width="106" height="105" viewBox="0 0 106 105" fill="none" xmlns="http://www.w3.org/2000/svg">
<path d="M0 75.1455V77.7183H3.64697V87.2324H6.45884V77.7172H10.1069V75.1444M19.3015 87.2324V82.3869H14.6329V87.2324H11.8135V75.1444H14.6329V79.8827H19.3015V75.1444H22.1155V87.2324M24.46 87.2324V75.1444H32.143V77.7204H27.2761V79.8816H31.7142V82.3172H27.2761V84.6778H32.143V87.2324M18.4364 97.4175L19.6295 100.325H17.2271L18.4385 97.4175H18.4364ZM18.267 92.468L12.5532 104.66H15.4187L16.332 102.469H20.5214L21.4348 104.661H24.3635L18.6497 92.4691L18.267 92.468Z" fill="#822B2F"/>
<mask id="mask0_837_378" style="mask-type:luminance" maskUnits="userSpaceOnUse" x="0" y="0" width="106" height="105">
<path d="M0 0H106V104.86H0V0Z" fill="white"/>
</mask>
<g mask="url(#mask0_837_378)">
<path d="M30.1554 94.9969C29.7266 94.9969 29.4608 95.0108 29.0652 95.0719V98.4102C29.4297 98.4381 29.6301 98.4563 29.9603 98.4563C31.3003 98.4563 32.1601 97.8088 32.1601 96.5953C32.1601 95.5876 31.3668 94.9969 30.1554 94.9969ZM32.6564 104.661L30.5896 100.72C30.4213 100.734 30.2723 100.734 30.1072 100.734C29.6945 100.734 29.4608 100.72 29.0652 100.702V104.662H26.249V92.6835C27.2749 92.5699 28.4005 92.4841 29.8242 92.4841C33.6051 92.4841 35.0941 94.2883 35.0941 96.4934C35.0941 97.9299 34.3159 99.2163 33.008 99.9914L35.8563 104.662H32.6575L32.6564 104.661Z" fill="#822B2F"/>
</g>
<path d="M48.6499 92.5677V104.663H51.4661V100.271H55.6362V97.8077H51.4661V95.147H56.3351V92.5677" fill="#822B2F"/>
<mask id="mask1_837_378" style="mask-type:luminance" maskUnits="userSpaceOnUse" x="0" y="0" width="106" height="105">
<path d="M0 0H106V104.86H0V0Z" fill="white"/>
</mask>
<g mask="url(#mask1_837_378)">
<path d="M88.4806 94.9958C87.9982 94.9958 87.7473 95.0119 87.3185 95.0623V102.186C87.8331 102.239 88.0475 102.252 88.6585 102.252C91.3107 102.252 92.4834 100.764 92.4834 98.5077C92.4834 96.3123 91.0952 94.9969 88.4816 94.9969M88.2093 104.76C86.7879 104.76 85.9903 104.695 84.5034 104.562V92.6814C85.9077 92.5334 86.8865 92.4841 88.0989 92.4841C93.1341 92.4841 95.485 95.0923 95.485 98.5056C95.4829 102.069 93.2467 104.758 88.2093 104.758" fill="#822B2F"/>
</g>
<path d="M36.5291 92.5677V95.1438H40.1739V104.657H42.9879V95.1438H46.6349V92.5677M7.93758 92.5677V97.306H3.27006V92.5677H0.450684V104.657H3.27006V99.8092H7.93758V104.657H10.7516V92.5677" fill="#822B2F"/>
<mask id="mask2_837_378" style="mask-type:luminance" maskUnits="userSpaceOnUse" x="0" y="0" width="106" height="105">
<path d="M0 0H106V104.86H0V0Z" fill="white"/>
</mask>
<g mask="url(#mask2_837_378)">
<path d="M76.7234 94.9969C76.2989 94.9969 76.0309 95.0108 75.6332 95.0719V98.4102C75.9976 98.438 76.197 98.4563 76.5293 98.4563C77.8672 98.4563 78.727 97.8088 78.727 96.5953C78.727 95.5876 77.9337 94.998 76.7223 94.998M79.2244 104.661L77.1575 100.72C76.9903 100.734 76.8392 100.734 76.6751 100.734C76.2613 100.734 76.0287 100.72 75.6321 100.702V104.662H72.8159V92.6835C73.8429 92.5699 74.9685 92.4841 76.3921 92.4841C80.1699 92.4841 81.661 94.2883 81.661 96.4934C81.661 97.9299 80.8817 99.2163 79.5738 99.9914L82.4232 104.662H79.2244V104.661ZM64.2688 94.8833C62.3478 94.8833 61.0528 96.4452 61.0528 98.6246C61.0528 100.787 62.3478 102.37 64.2688 102.37C66.1909 102.37 67.4816 100.786 67.4816 98.6246C67.4816 96.4452 66.1909 94.8833 64.2688 94.8833ZM64.2163 104.86C60.4557 104.86 58.0522 102.17 58.0522 98.6246C58.0522 95.0623 60.5693 92.3705 64.3278 92.3705C68.0776 92.3705 70.4961 95.0612 70.4961 98.6246C70.4961 102.17 67.9554 104.86 64.2163 104.86Z" fill="#822B2F"/>
</g>
<mask id="mask3_837_378" style="mask-type:luminance" maskUnits="userSpaceOnUse" x="0" y="0" width="106" height="105">
<path d="M0 0H106V104.86H0V0Z" fill="white"/>
</mask>
<g mask="url(#mask3_837_378)">
<path d="M38.0493 41.5875V49.7809C42.4177 49.6822 46.7701 49.6458 51.0699 49.6994C59.3136 46.2186 67.0428 43.0658 75.6585 41.7901C75.7153 41.7151 75.7657 41.6454 75.8064 41.5886H38.0504L38.0493 41.5875Z" fill="#EFF4F9"/>
</g>
<mask id="mask4_837_378" style="mask-type:luminance" maskUnits="userSpaceOnUse" x="0" y="0" width="106" height="105">
<path d="M0 0H106V104.86H0V0Z" fill="white"/>
</mask>
<g mask="url(#mask4_837_378)">
<path d="M68.2568 47.1104C69.4092 46.3921 69.7469 46.1531 71.1963 45.7168C71.4289 45.6482 72.3969 45.0361 72.5684 44.9417C72.8203 44.8024 73.1098 44.1163 73.3832 43.8451C74.0714 43.1375 74.5924 42.7023 75.4135 42.0655C75.4832 42.0076 75.5743 41.8983 75.6579 41.7889C67.0433 43.0646 59.3152 46.2163 51.0693 49.7004C53.297 49.7282 55.5074 49.7861 57.7018 49.8612C62.2236 48.2424 67.0294 47.8704 68.2568 47.1104Z" fill="#DEEAF3"/>
</g>
<mask id="mask5_837_378" style="mask-type:luminance" maskUnits="userSpaceOnUse" x="0" y="0" width="106" height="105">
<path d="M0 0H106V104.86H0V0Z" fill="white"/>
</mask>
<g mask="url(#mask5_837_378)">
<path d="M38.0493 55.0048C42.6396 53.2863 46.9202 51.4532 51.0699 49.7005C46.7712 49.6469 42.4188 49.6823 38.0493 49.7819V55.0048Z" fill="#DEEAF3"/>
</g>
<mask id="mask6_837_378" style="mask-type:luminance" maskUnits="userSpaceOnUse" x="0" y="0" width="106" height="105">
<path d="M0 0H106V104.86H0V0Z" fill="white"/>
</mask>
<g mask="url(#mask6_837_378)">
<path d="M48.8246 60.6714C48.6638 54.5309 53.0344 51.5314 57.7009 49.8612C55.5054 49.7862 53.2981 49.7283 51.0683 49.7004C46.9197 51.4521 42.6392 53.2863 38.0488 55.0069V66.4184C42.1761 67.0166 46.0889 67.2224 49.7766 67.0787C49.3478 65.9799 49.0155 64.7439 48.8064 63.4232C48.6671 62.6213 48.6863 61.9728 48.7528 61.381C48.7903 61.0873 48.8246 60.8075 48.8246 60.6714Z" fill="#CEE1EE"/>
</g>
<mask id="mask7_837_378" style="mask-type:luminance" maskUnits="userSpaceOnUse" x="0" y="0" width="106" height="105">
<path d="M0 0H106V104.86H0V0Z" fill="white"/>
</mask>
<g mask="url(#mask7_837_378)">
<path d="M55.1205 74.0466C54.7239 73.6607 54.2586 73.3584 53.8556 72.9961C52.2626 71.5553 51.2613 70.2625 50.1839 68.0295C50.0414 67.7272 49.9052 67.4077 49.7766 67.0754C46.0889 67.2201 42.1793 67.0132 38.0488 66.4161V82.6195C43.9792 82.1671 50.5141 81.3524 56.8272 80.3082C56.87 79.8987 56.8958 79.5471 56.9086 79.4892C56.9086 79.4678 56.9987 77.4074 56.9354 77.3377C56.3298 76.3193 55.9117 74.8238 55.1205 74.0466ZM92.0608 61.9651C91.8711 63.0886 91.6492 64.2013 91.1174 65.9058C91.1174 65.908 90.5118 67.4956 90.2684 68.0048C89.8986 68.7927 89.6895 69.8894 89.3529 70.91C89.3379 70.9528 89.2639 71.1479 89.1557 71.4138C89.1492 71.4309 89.0849 71.5725 89.057 71.6303C90.6329 71.0429 92.1476 70.4769 92.5261 70.3868V61.2051C92.3095 61.4988 92.0801 61.8376 92.0619 61.9641M80.4756 71.1726C80.1433 70.6184 79.8935 69.556 79.4358 69.497C78.9963 69.8315 77.9693 70.1756 76.9616 70.434C76.9616 70.434 76.5821 70.7266 75.1628 70.9303L74.0372 71.0858C73.4937 71.1608 72.8719 71.3216 72.2919 71.3259C72.0175 71.328 71.7624 71.3398 71.5201 71.3538C71.4 71.9112 71.5019 72.3765 70.8983 72.5383C70.0836 72.7527 68.4499 72.0967 66.8097 72.8739C66.5245 73.1494 66.3058 73.4774 66.1751 73.7744C65.5855 75.1069 65.4997 75.2494 64.9959 75.9044C64.8458 76.106 63.5562 77.4417 63.405 77.5918C62.8261 78.1706 62.5217 78.7656 62.3416 79.3263C70.3066 77.8072 77.4569 75.9709 81.9625 74.127C81.5584 73.1944 81.1692 72.3604 81.1371 72.3229C80.8369 71.9369 80.8037 71.73 80.4756 71.1726ZM83.9382 66.9735C84.0304 67.9619 84.0411 68.5365 84.3638 69.2762C84.4581 69.4949 84.8097 72.0356 85.0885 73.0529C85.3522 72.9779 85.7059 72.8599 86.2269 72.6734C86.2805 71.4792 86.3341 67.9652 86.3749 67.5707C86.3813 67.5085 86.3963 67.3134 86.3985 67.2512C86.4038 67.189 86.377 66.9725 86.3449 66.7323C85.5998 66.8931 84.7626 66.9575 83.9382 66.9735Z" fill="#BBD6E9"/>
</g>
<mask id="mask8_837_378" style="mask-type:luminance" maskUnits="userSpaceOnUse" x="0" y="0" width="106" height="105">
<path d="M0 0H106V104.86H0V0Z" fill="white"/>
</mask>
<g mask="url(#mask8_837_378)">
<path d="M99.561 13.4002C98.1299 15.1797 95.1186 16.0888 93.4892 17.2294C93.0668 17.521 92.7281 17.9101 92.1278 18.2971C91.9455 18.4075 91.3452 18.7795 90.9432 18.9639C90.9003 18.9821 90.7009 19.1515 90.6516 19.069C90.5551 18.9403 91.209 18.1974 91.2777 18.1149C92.936 15.9816 94.4508 13.8997 94.7756 10.6784C94.8367 9.94511 94.8764 9.34586 94.8367 8.8238C94.9761 8.8238 95.1519 8.8313 95.3277 8.84095C97.3602 8.93314 100.064 9.13039 100.338 11.1511C100.465 12.1052 99.9738 12.8878 99.56 13.4023M99.5814 15.8068C98.9982 17.2616 96.9904 18.4654 95.3255 19.0357C94.8581 19.1901 93.8601 19.769 93.5546 19.5535C93.4345 19.4624 94.0724 18.9296 94.2192 18.8117C95.6664 17.6486 97.5564 16.7706 99.0004 15.675C99.3499 15.3963 99.6586 15.1561 99.7272 15.0854C99.7122 15.2322 99.7133 15.4927 99.5814 15.8068ZM86.3732 67.574C86.3336 67.9685 86.2767 71.4826 86.2231 72.6768C85.7043 72.8633 85.3516 72.977 85.0868 73.0574C84.8081 72.0389 84.4543 69.4983 84.3611 69.2807C84.0395 68.541 84.0255 67.9642 83.9344 66.9759C84.7598 66.9609 85.596 66.8987 86.3421 66.7379C86.3743 66.9791 86.4011 67.1956 86.3979 67.2556L86.3732 67.574ZM62.3431 79.3286C62.5254 78.7669 62.8287 78.1708 63.4066 77.5941C63.5588 77.444 64.8484 76.1083 64.9974 75.9067C65.5013 75.2528 65.587 75.1092 66.1766 73.7756C66.3053 73.4808 66.5261 73.1517 66.8112 72.8751C68.4514 72.0979 70.0841 72.754 70.8988 72.5406C71.5034 72.3798 71.4027 71.9146 71.5206 71.3561C71.7639 71.3411 72.0191 71.3314 72.2924 71.3282C72.8734 71.3239 73.4952 71.1653 74.0398 71.0881L75.1654 70.9326C76.5837 70.729 76.9631 70.4374 76.9631 70.4374C77.9708 70.1779 78.9957 69.8338 79.4395 69.4994C79.8951 69.5583 80.1438 70.6207 80.475 71.1749C80.8041 71.7324 80.8395 71.9393 81.1397 72.3273C81.1697 72.3638 81.5621 73.1989 81.9651 74.1315C77.4573 75.9754 70.3071 77.8106 62.3431 79.3307M78.4232 21.9055C78.3224 21.8197 77.9022 21.7511 78.0084 21.4156C78.0459 21.3116 78.2796 21.2333 78.3471 21.2301C79.0439 21.0983 80.191 21.4306 79.8104 22.092C79.8104 22.092 79.2079 22.5026 79.1758 22.5047C79.1758 22.5047 78.897 22.3943 78.8402 22.3589C78.6741 22.2485 78.5315 21.9859 78.4243 21.9066M60.957 14.9868C60.8069 14.8624 60.6676 14.7295 60.5497 14.5794C60.0994 14.172 59.7457 13.4302 59.5505 12.698C59.1807 11.2723 58.7916 11.5596 59.6685 10.6827C59.8807 10.4511 60.2281 10.2238 60.6226 10.0127C60.8691 9.88937 61.2122 9.71678 61.4416 9.65674C61.5102 9.6353 61.5413 9.62244 61.6592 9.59993C61.6721 9.75001 61.6892 9.97299 61.6946 10.2324C61.8393 12.5801 62.2231 14.3961 63.1997 16.1284C62.326 15.7372 61.7578 15.4531 60.9592 14.9868M59.8454 8.90848C60.2656 8.38535 61.2336 7.81825 61.6142 7.58134C61.6613 7.55347 61.7106 7.51702 61.7428 7.49236C61.6892 7.93617 61.6613 8.34782 61.6302 8.5365C61.4158 8.6169 61.0481 8.74232 60.6697 8.88168C60.4403 8.96316 60.1444 9.14433 59.8068 9.23866C59.5495 9.30298 59.7349 9.0457 59.8464 8.90634M100.447 2.37139C100.815 3.25258 102.243 6.30994 102.071 7.17934C102.003 7.51809 101.856 8.39392 101.733 8.60832C101.69 8.69087 101.447 9.11645 101.19 9.09072C100.659 9.04784 100.617 7.44519 100.449 6.94886C100.217 6.30244 99.7947 5.80931 99.2695 5.22078C99.1087 5.04068 98.7195 4.75232 98.533 4.59687C97.3581 3.55703 95.8894 1.41945 94.1946 1.02495C94.186 1.0228 94.1731 1.01744 94.1624 1.04103C94.156 1.05818 94.1731 1.10535 94.2032 1.13751C94.2675 1.19969 94.6641 1.50199 95.4767 2.3403C95.942 2.81949 96.5734 3.43696 96.9507 3.97404C97.3977 4.61188 98.5115 5.60992 98.8975 6.17808C99.1612 6.57044 99.5332 7.20935 99.5975 7.80003C99.6404 8.18595 99.6404 8.30387 99.4152 8.35318C99.2716 8.39606 98.3111 8.02944 96.8403 7.91795C96.7074 7.91795 95.4724 7.80646 95.3395 7.80646C93.4785 7.59742 93.5921 7.67782 92.0109 7.17827C90.9539 6.84594 89.6632 6.38498 88.5108 6.14914C88.3714 6.12341 86.846 5.59706 86.7549 5.70962C86.683 5.7868 87.1944 6.10304 87.3016 6.14914C87.7518 6.35068 89.0511 6.83201 89.5506 7.06785C90.1831 7.38087 90.7513 7.62529 91.3152 7.84613C92.1899 8.19131 93.0197 8.50434 94.0702 8.74661C93.9737 10.0116 93.7272 12.1266 93.2233 13.0346C92.2189 14.857 90.8274 16.6226 89.3577 18.0012C89.0468 18.295 88.7466 18.727 88.3232 19.1086C87.9619 19.4442 87.487 19.9877 87.1418 20.0691C86.9253 20.1142 86.6273 20.0498 86.3754 20.1013C86.028 20.1763 85.7536 20.3693 85.4513 20.3264C85.1543 20.2728 85.0547 20.0113 84.792 19.8794C84.4468 19.724 83.8872 19.6039 83.4584 19.5471C83.1347 19.5096 83.005 19.5471 83.0586 19.2523C83.0586 19.2394 83.08 19.2233 83.0929 19.0357C83.1647 18.0731 83.1786 17.1737 83.1701 16.4919C83.1272 13.7079 81.3798 11.4963 80.3368 9.61494C80.0848 9.15397 79.5456 8.10662 79.1254 7.62315C78.6601 7.10322 78.9389 8.00371 79.0118 8.29422C79.1018 8.62655 79.3934 9.00496 79.4899 9.28583C79.5617 9.44449 79.6217 9.67818 79.6775 9.83684C80.2285 11.4802 81.6339 13.6961 81.8429 15.6825C81.8558 15.8068 81.8826 15.9666 81.8772 16.0556C81.7486 17.3527 81.5578 18.9886 80.3335 19.2533C80.2585 19.2748 80.1513 19.2941 80.0763 19.2941C78.1466 19.2812 76.4765 16.6355 75.621 15.2483C74.7591 13.844 74.1202 12.5608 73.5585 10.7534C73.3012 9.92153 73.1908 7.48593 73.1114 6.60474C73.0953 6.46002 73.0814 5.54989 73.076 5.42768C73.0728 5.37729 73.0546 5.30976 73.0203 5.30976C72.9174 5.30976 72.7652 6.1352 72.7126 6.3496C72.5368 7.0507 72.4875 8.58152 72.4875 9.20757C72.4875 10.9474 73.0021 12.6895 73.7096 14.2138C74.1309 15.1358 75.0582 16.9764 75.577 17.8587C75.7325 18.1181 76.1216 18.6219 76.0959 18.816C76.0391 19.2619 75.1868 19.2533 74.9188 19.3327C73.582 19.5299 71.8014 19.3584 70.2342 18.9232C68.7258 18.5051 67.3205 18.012 66.0748 17.2315C65.9408 17.1276 65.7928 17.0418 65.7049 16.9099C64.0433 15.5989 63.0421 12.6026 62.6862 10.315C62.6326 9.92582 62.6026 9.4209 62.6047 9.34801C62.7591 9.30941 62.8888 9.27297 63.0228 9.24081C64.7809 8.79807 67.1414 7.2651 68.4611 6.44287C68.9135 6.17058 69.354 5.87899 69.7603 5.54024C69.8096 5.49736 69.8247 5.47592 69.8118 5.45984C69.8043 5.44912 69.7689 5.45448 69.7196 5.4727C67.8146 6.06981 65.274 7.64244 63.4977 8.09912C63.369 8.13449 62.8738 8.26635 62.5457 8.32102C62.5457 8.1495 62.5597 7.80646 62.5597 7.73142C62.564 7.52345 62.5532 7.33478 62.5532 7.1579C62.7548 7.01854 62.9606 6.80735 63.2415 6.58973C64.7637 5.38909 65.7789 1.95331 66.822 0.257392C66.8327 0.243455 66.8681 0.186639 66.8541 0.175919C66.8402 0.161983 66.8134 0.181279 66.7727 0.201647C64.9395 1.06461 64.0712 4.84665 62.4332 5.92616C61.0996 6.80949 59.424 7.48379 58.5236 8.72946C58.4207 8.87311 58.1955 9.4209 58.0111 9.47129C57.9383 9.4863 57.6713 9.72535 57.5309 9.64817C57.0431 9.35337 56.6057 8.41536 56.2713 7.89008C55.7889 7.11823 55.9197 4.87774 56.0204 4.04908C56.1748 2.76481 57.2318 1.10642 57.8493 0.0504943C57.8643 0.0290542 57.8707 0.0161901 57.8643 0.00761406C57.8557 -0.003106 57.8375 0.00975807 57.8139 0.0183341C57.5673 0.116959 56.967 0.661538 56.8652 0.770883C56.0033 1.75498 54.8927 3.3973 54.8069 4.76196C54.7147 6.04837 55.0685 8.90741 55.9047 9.75215C56.0547 9.93225 56.2048 10.0888 56.3913 10.226C57.4151 11.1447 57.8922 12.5126 58.4153 13.8386C58.5815 14.2782 58.7583 14.618 59.0446 15.0157C59.9804 16.42 61.7567 17.179 63.3487 17.9712C64.8559 18.7173 66.629 19.4913 68.3228 20.0273C69.3916 20.3682 70.8023 20.7134 72.0823 20.9493C72.5647 21.0436 72.9935 21.1347 73.2358 21.3384C73.4073 21.4842 73.5166 22.092 73.6153 22.3922C73.7385 22.776 73.8833 23.1533 73.9873 23.4449C74.2692 24.2296 74.4407 24.9854 74.7344 25.5567C75.1482 26.3179 76.1281 26.647 77.0285 26.9825C77.1465 27.0007 77.7007 27.169 78.3471 27.1326C78.7652 27.1176 78.8166 27.615 78.7941 27.8476C78.7759 28.1832 78.822 28.4083 78.8156 28.7417C78.7984 29.6025 78.8735 29.6046 78.762 30.3443C78.7405 30.5137 78.5401 31.0326 78.405 31.4571C78.3761 31.5214 78.3364 31.59 78.3235 31.65C78.2378 32.0649 78.1874 32.8346 78.0512 33.2559C77.928 33.6954 77.3898 35.0397 77.2537 37.0872C77.1968 37.9148 76.8935 38.6995 76.5183 39.4928C76.3425 39.8659 76.3735 40.0696 76.2363 40.4898C76.0948 40.9293 76.0112 41.267 75.8665 41.4975C75.8075 41.5875 75.5631 41.9456 75.412 42.0678C74.5919 42.7056 74.0719 43.1398 73.3805 43.8473C73.1082 44.1196 72.8209 44.8046 72.5658 44.944C72.3943 45.0383 71.4262 45.6515 71.1936 45.7212C69.7464 46.1564 69.4087 46.3965 68.2542 47.1127C65.7639 48.6596 48.5046 48.5813 48.8251 60.6735C48.8251 60.8107 48.7908 61.0916 48.7544 61.3811C48.6879 61.976 48.6686 62.6246 48.808 63.4243C49.0792 65.1417 49.5562 66.7186 50.1866 68.0339C51.2618 70.2669 52.2641 71.5608 53.856 73.0005C54.2591 73.3618 54.7222 73.6652 55.121 74.0511C55.9122 74.8283 56.3292 76.3238 56.9349 77.3422C56.9992 77.4108 56.9081 79.4701 56.9081 79.4937C56.8952 79.5505 56.8695 79.9032 56.8255 80.3138C50.5114 81.3579 43.9807 82.1715 38.0493 82.625V87.2346H92.5265V70.3881C92.147 70.477 90.6291 71.042 89.0564 71.6316L89.1529 71.4172C89.2601 71.1492 89.3352 70.953 89.3512 70.9091C89.6889 69.8906 89.898 68.794 90.2689 68.0061C90.5122 67.4958 91.1158 65.9081 91.1158 65.9049C91.6496 64.2004 91.8726 63.0877 92.0613 61.9653C92.0934 61.7187 92.9125 60.7035 92.9125 60.7035C93.1569 60.3852 93.3488 59.9574 93.62 59.5694C93.62 59.5694 94.9385 56.825 94.9042 54.4538C94.8914 54.0174 95.0275 52.0525 95.0114 50.3458C95.0243 50.2493 95.0382 50.1614 95.0382 50.0499C95.0382 49.7251 95.0061 49.4282 94.9686 49.1259C94.9686 49.0991 94.9686 49.0701 94.9632 49.0444C94.9557 48.9801 94.9578 48.9083 94.9503 48.8439C94.8828 48.4044 94.9793 47.5425 94.9578 47.1502C94.9289 46.6378 94.7488 46.6946 94.7113 46.1639C94.6834 45.8027 94.5676 45.525 94.4733 45.1884C94.409 44.9418 94.2696 44.7167 94.1517 44.498C94.1303 44.3554 94.1163 44.2461 94.1163 44.2043C94.1806 42.368 92.9585 40.18 92.9264 40.1039C92.3475 38.7682 92.4118 38.7178 92.5083 37.0776C92.4418 35.0729 92.1117 33.9849 91.908 33.4778C91.8254 33.4296 91.2037 32.0949 91.0011 31.6607C90.9153 31.4807 90.9046 31.2855 90.9475 31.1065C91.0836 30.533 92.0784 30.3668 92.4783 30.0924C92.7356 29.9241 93.025 29.4814 93.1451 29.1651C93.1558 29.133 93.1612 29.104 93.1612 29.0633V28.4522C93.1612 28.404 93.129 28.3665 93.1226 28.3236C93.1033 28.2314 93.1333 28.092 93.1247 27.987C93.1247 27.957 93.1247 27.927 93.1354 27.898C93.4838 26.8174 93.8472 25.8612 92.8171 25.323C92.3936 25.0947 91.8233 24.9972 91.849 24.5726C91.863 24.2489 92.2778 24.1288 92.5222 23.967C93.174 23.5424 93.6189 23.1479 93.9877 22.5412C94.1431 22.2764 94.1431 21.5742 94.3307 21.392C94.4615 21.2612 94.8238 21.1508 95.0661 21.0222C95.8487 20.6212 96.6152 20.3575 97.313 19.9534C99.1998 18.8771 101.237 16.8081 102.688 15.3169C103.403 14.5826 104.553 13.2587 105.082 12.3046C105.503 11.5328 105.879 9.64602 105.929 8.62547C105.944 8.38213 106.001 7.57062 105.998 7.53203C105.998 7.48915 105.995 7.44627 105.977 7.44627C105.959 7.44305 105.936 7.46128 105.93 7.48379C105.429 8.70909 104.948 10.9356 104.163 11.9712C103.579 12.7302 101.826 14.6887 100.962 15.2451L100.844 15.3169C100.871 15.2505 100.911 15.1583 100.93 15.0972C100.969 14.9986 100.988 14.8903 101.001 14.797C101.202 13.5642 101.777 12.6884 101.777 10.599C101.777 10.3954 102.154 10.0309 102.252 9.86471C102.916 8.73696 102.991 7.20078 102.805 6.04623C102.682 5.2851 101.569 3.31583 101.154 2.84843C101.119 2.80234 100.474 2.01977 100.382 2.11625C100.341 2.15056 100.411 2.30921 100.444 2.37353" fill="#822B2F"/>
</g>
<mask id="mask9_837_378" style="mask-type:luminance" maskUnits="userSpaceOnUse" x="0" y="0" width="106" height="105">
<path d="M0 0H106V104.86H0V0Z" fill="white"/>
</mask>
<g mask="url(#mask9_837_378)">
<path d="M79.6876 32.2245C79.9556 32.0315 79.7841 30.6165 79.7841 30.5768C79.7841 30.5446 79.5933 30.773 79.5108 30.9016C79.425 31.0335 79.5054 31.6091 79.5054 31.6263C79.5054 31.6477 79.5108 31.7078 79.514 31.7335C79.5247 31.7517 79.5054 31.7764 79.4818 31.7839C79.4604 31.7892 79.3714 31.905 79.1881 32.0497C79.1859 32.0497 78.9694 32.753 79.6866 32.2234M92.5785 29.0085C92.2505 28.7051 92.3802 29.1199 92.1422 29.2293C91.7992 29.4222 91.4958 29.3236 90.963 29.2293C90.1215 28.4896 88.9476 29.7224 87.8756 29.1414C87.7791 28.9956 87.9357 28.8841 88.0193 28.7769C88.9734 28.6976 88.3302 28.9892 89.3325 28.7812C89.3325 28.7812 89.7699 28.7297 89.7323 28.6118C89.698 28.5003 88.9798 28.8016 88.1726 28.4113C87.315 28.317 87.8778 29.1403 87.2571 29.3408C87.018 29.4158 87.2142 29.8071 87.4136 29.7053C87.6119 29.6056 87.8231 29.3193 88.6271 29.5198C89.0538 29.97 89.2596 28.9602 89.5748 29.895C89.6391 30.088 89.7602 29.8768 89.7602 29.8768C89.7345 29.6731 89.8202 29.6034 89.9082 29.4984C90.0121 29.612 90.0882 29.8125 90.2919 29.82L90.4377 29.3547C90.65 29.6227 91.0413 29.7599 91.4283 29.7578C91.8806 29.5348 92.6246 29.6399 92.5807 29.0074M87.9399 24.1651C88.1458 24.3731 88.5531 24.3634 88.7686 24.2187C88.998 24.0633 89.1074 24.237 89.3528 24.1994C89.5994 24.1587 88.8705 23.6398 88.8211 23.8585C88.789 24.0451 88.656 23.9121 88.4813 23.9893C88.2412 24.0258 88.134 23.7428 87.9667 23.6398C87.9614 23.5058 88.0386 23.4147 88.1329 23.3247L88.2272 23.2411C88.4256 23.0588 88.4524 22.9227 88.2873 22.6943C88.105 22.9216 87.9528 22.8701 87.703 22.8701C87.4029 22.8809 87.2721 22.9988 87.2657 23.3118C87.3557 23.4726 87.6216 23.5498 87.5465 23.7406C87.4179 24.0193 87.0255 23.9175 86.8604 23.8178C86.3544 23.9379 85.8238 24.0108 85.5483 24.5253C85.7348 24.5971 85.8345 24.5789 85.9739 24.4428L86.095 24.3302C86.1379 24.2873 86.1776 24.2659 86.2312 24.2659C86.8529 24.0461 87.4854 24.684 87.9421 24.1662M82.3451 24.7494C82.1415 24.7172 82.0525 24.6422 81.8767 24.6486C81.6784 24.6572 82.2229 25.1546 82.2862 25.1782C82.4288 25.2296 82.9465 25.3068 83.0205 25.3068C83.4536 25.2532 83.5394 24.8673 83.7098 24.6486C83.4418 24.8416 82.8083 24.8201 82.3451 24.7494ZM82.8801 23.6967C82.5499 23.2357 81.9689 23.7267 81.6087 23.9132C81.8284 24.6529 82.3998 23.6624 82.8801 23.6967ZM88.9412 25.9157C88.8747 26.3124 88.7515 26.6522 88.9948 27.0231C89.1256 27.111 89.7345 27.6234 90.6521 27.4487C91.6084 27.572 91.0488 26.1655 92.3459 26.4796C92.7211 26.5729 92.4617 26.2298 92.764 26.0293C92.764 26.0293 92.8926 25.9007 92.7533 25.8621C92.6118 25.8235 92.5067 25.7924 92.2955 26.0915C91.5129 26.1065 90.6446 25.3518 90.0743 26.1912C90.3777 26.3681 90.7883 25.8235 91.1142 26.2373C91.1699 26.6715 90.8033 27.0242 90.4624 27.037C90.0443 27.0445 89.9532 27.0242 89.5544 26.8623C89.0034 26.6747 89.3228 26.2941 89.2842 25.9875C89.5394 25.5116 90.0968 25.6767 90.4613 25.3979C89.9103 25.2768 89.1685 25.3422 88.9391 25.9179M81.9689 29.7514C82.0032 29.7342 82.0503 29.7235 82.0954 29.7106C82.0386 29.6356 81.9367 29.5445 81.8563 29.5026L80.9344 29.0846C80.9312 29.0792 80.9269 29.0771 80.9269 29.0663C80.8658 29.0385 80.809 28.9999 80.7532 28.9559C80.7425 28.8991 80.7243 28.8423 80.6996 28.7823C80.6739 28.7351 80.6396 28.6986 80.6096 28.6515L80.5956 28.5893C80.5849 28.5872 80.5742 28.5872 80.5688 28.5829C80.5549 28.5657 80.5474 28.5453 80.5324 28.5293L80.5238 28.362C80.7446 28.4285 81.1499 28.63 81.3192 28.7823L81.4436 28.7769C81.3203 28.4875 80.9472 28.346 80.7543 28.1058C80.6203 27.9343 80.5549 27.7199 80.407 27.5559L80.3962 27.4744C80.5913 27.5119 80.7736 27.6309 80.9108 27.7392L81.033 27.7285C80.9537 27.587 80.675 27.1839 80.4756 26.9802C80.5002 26.9266 80.5399 26.8805 80.5485 26.828C80.5699 26.6211 80.4059 26.1848 80.2826 25.9983C80.1304 26.1012 79.8806 26.352 79.7102 26.5471L79.7209 26.5686C79.7927 26.8366 79.783 27.1475 79.6909 27.4262C79.7284 28.8734 80.8829 29.6366 81.7673 29.9936C81.9356 30.0344 82.1072 30.0815 82.2755 30.0976C82.3398 30.0976 82.4041 30.1148 82.4684 30.1298C82.4202 30.0655 82.3741 30.0119 82.3291 29.9432C82.2069 29.8896 82.1286 29.8092 81.9721 29.7535" fill="white"/>
</g>
<mask id="mask10_837_378" style="mask-type:luminance" maskUnits="userSpaceOnUse" x="0" y="0" width="106" height="105">
<path d="M0 0H106V104.86H0V0Z" fill="white"/>
</mask>
<g mask="url(#mask10_837_378)">
<path d="M84.5099 22.8059L84.14 22.5336C83.7927 22.2871 83.5011 22.2045 83.0219 22.0973C81.9692 21.958 81.3603 22.3375 80.7525 23.0568L80.8704 23.1265C81.117 22.7298 81.3721 22.6848 81.7838 22.5026C82.0217 22.4725 82.6864 22.3096 82.874 22.6205C82.4666 22.7095 81.7891 22.807 81.6176 23.2701C81.8642 23.0793 82.3551 22.9775 82.6682 23.0664C82.8654 23.1629 83.082 23.3237 83.3007 23.4738C83.351 23.5145 83.4111 23.5381 83.4668 23.5746C83.4314 23.5896 83.3768 23.611 83.3628 23.6324C83.1431 24.1234 83.8838 24.1299 83.8688 23.7504C84.0993 23.8201 84.3384 23.8361 84.6106 23.6753C84.9505 23.3837 84.6535 22.9903 84.5099 22.8059ZM78.7961 23.4063C78.7586 23.3687 78.7661 23.2326 78.7285 23.1758C78.482 22.8713 78.1668 22.7813 77.8645 22.5808C77.6255 22.4275 77.4089 22.1734 77.1441 21.9762C76.4302 21.4155 75.6272 20.6941 74.7042 20.4732C74.5198 20.4336 74.0782 20.4143 74.0257 20.4732C73.8734 20.663 74.2851 21.5774 74.3258 21.7511C74.3644 21.8937 74.3258 22.0437 74.3644 22.2056C74.5252 22.8863 75.0441 23.9348 75.2649 24.5747C75.4171 25.0068 75.4096 25.3101 75.6004 25.5074C75.8792 25.7925 76.8257 26.037 77.41 26.1152C77.5558 26.1281 77.9835 26.1838 78.0489 26.1495C78.14 26.1099 78.4219 25.4795 78.3126 25.3241C78.1347 25.0711 77.3328 25.383 76.9533 25.3616C76.3883 25.3402 76.5695 25.0893 76.3959 24.5747C76.1954 23.9905 75.6926 23.5756 75.4525 22.956C75.3935 22.7845 75.3882 22.5379 75.3078 22.2806C75.282 22.2131 75.014 21.8368 75.1877 21.72C75.2863 21.6449 75.7162 22.1445 75.7955 22.3096C75.832 22.3921 75.9585 23.2422 76.0957 23.2229C76.2426 23.194 76.2104 22.2689 76.4302 22.3911C76.5213 22.4414 76.3583 23.2315 76.5374 23.3698C76.6478 23.4502 76.8525 23.3312 76.9233 23.1404C77.0123 23.0804 76.9083 22.8252 77.0305 22.8059C77.2813 22.8381 77.1484 23.9348 77.5643 23.7815C77.7423 23.7171 77.5601 23.2615 77.7091 23.2219C77.8559 23.1758 78.0414 23.8651 78.0478 23.9348C78.0543 23.9819 78.035 24.2285 78.0478 24.2349C78.3351 24.4311 78.2944 23.64 78.3909 23.5896C78.4198 23.5788 79.0319 24.1084 79.0255 24.087C79.0469 24.2724 78.5903 24.4407 78.5785 24.4943C78.4766 24.8031 78.9076 25.1086 78.9912 25.0947C79.1884 25.0732 79.2785 24.5437 79.3985 24.4943C79.4875 24.4515 79.5808 24.2263 79.4811 24.1191C79.3717 23.6314 79.0544 23.6539 78.795 23.4052M61.7265 64.4813C61.4853 64.3762 61.5046 64.6764 61.2816 64.7471L61.1401 64.7761C60.8753 64.8468 60.8871 64.8747 61.0329 65.2456C61.5314 65.5082 61.7683 65.2531 61.9281 64.731C61.9281 64.731 61.9677 64.5756 61.7244 64.4813M60.0113 65.3903C59.7583 65.5082 59.7433 65.6991 59.7647 65.9349L59.7755 66.1043C59.9298 66.2436 60.0413 66.2758 60.1978 66.1879L60.2836 66.1257L60.3672 66.0721C60.4916 65.9703 60.3597 66.056 60.6052 65.9167C60.8518 65.7773 60.7338 65.6658 60.4594 65.5361C60.3308 65.4718 60.1625 65.4471 60.0113 65.3903ZM63.8437 64.8586L63.7494 64.9744L63.6508 65.0859C63.5972 65.1566 63.5264 65.2445 63.4439 65.3303L63.744 65.5929C64.1696 65.3753 64.3872 65.0655 64.4087 64.6324L64.369 64.6367C64.1257 64.6453 63.9777 64.7428 63.8437 64.8586ZM69.3056 63.137C68.8286 63.2141 68.4201 63.0244 68.1243 63.4875L68.299 63.6376C68.7235 63.8734 69.0987 63.6312 69.4675 63.4918C69.5211 63.3171 69.4675 63.2624 69.3067 63.138M67.6226 64.5081C67.5347 64.6742 67.5711 64.7761 67.6579 64.9508L67.7469 64.8758C67.9827 64.6914 68.5188 64.9401 68.5509 64.3537C68.2936 64.2786 68.1092 64.1393 67.8112 64.2315C67.7362 64.3194 67.6665 64.403 67.6226 64.5102M67.5347 65.4675C67.2538 65.4461 66.9397 65.6197 67.0758 65.8373C67.2795 66.1782 67.6408 66.0024 67.9527 65.9842L67.9999 65.8609C67.9002 65.8009 67.8627 65.7934 67.7641 65.7366C67.6429 65.6455 67.5925 65.5961 67.5347 65.4675ZM66.0038 63.57C65.8816 63.8145 65.7508 63.926 65.5 64.0246L65.3456 64.1061C65.1505 64.2004 65.0776 64.2347 65.0851 64.3773C65.0851 64.4094 65.0883 64.4373 65.098 64.4823L65.2073 64.5509L65.3006 64.6153C65.3542 64.5466 65.4239 64.4888 65.5579 64.4845H65.7208C65.7358 64.4845 65.7498 64.4845 65.7669 64.4888L65.8998 64.4705C66.0542 64.1704 66.468 64.1221 66.4337 63.8788C66.4283 63.8413 66.4198 63.7866 66.3983 63.7373C66.3533 63.6247 66.1196 63.5765 66.0017 63.569M55.6761 65.2874C55.987 65.296 56.1692 64.6957 56.5058 64.5692C56.8682 64.4695 57.1941 64.2904 57.5157 64.135C57.6336 63.9281 57.7976 63.8616 57.9734 63.8616C58.2457 63.8616 58.5416 63.9956 58.846 63.9903C58.9532 63.9903 59.0604 63.9688 59.1891 63.9206C59.1998 63.9206 59.2105 63.9206 59.2212 63.9227C59.486 63.9195 59.7122 63.8927 59.8923 63.8423L60.0038 63.8037L59.9534 63.9142C59.8634 64.1103 59.7315 64.2894 59.5139 64.3966C59.4217 64.4716 59.3027 64.4984 59.1816 64.4984C58.9672 64.5006 58.7174 64.4277 58.5352 64.4277C58.3208 64.7246 57.7526 64.73 57.7848 65.1212C57.7901 65.1684 57.7998 65.2242 57.8148 65.2735C57.863 65.3732 57.9541 65.4128 58.0785 65.4128C58.1214 65.4128 58.175 65.4075 58.2286 65.3892C58.5791 64.6131 59.9084 65.4021 60.3833 64.4084C60.6835 63.5368 61.8455 62.9054 62.1789 62.7875C62.1939 62.7768 62.1939 62.7607 62.1939 62.7425C62.1961 62.6696 62.031 62.5313 62.0138 62.364C62.0085 62.2944 62.0353 62.2225 62.1049 62.1646L62.2657 62.0392L62.2947 62.0521C62.5734 62.2 62.791 62.3866 63.058 62.467C63.1652 62.4863 63.2595 62.4991 63.3474 62.4991C63.7397 62.4884 63.8941 62.289 63.8909 62.1454C63.8823 62.0317 63.7837 61.9202 63.5318 61.9202C63.5103 61.9202 63.4814 61.9234 63.4289 61.9288C63.282 61.8784 63.0826 61.872 62.9207 61.8216C62.8596 61.7969 62.8114 61.8109 62.7846 61.7251C62.7792 61.678 62.8017 61.6672 62.8403 61.6286C63.0376 61.5461 63.237 61.4925 63.4439 61.4035C64.562 60.9661 63.9692 60.6724 64.3551 60.3347C64.458 60.2468 64.5931 60.2168 64.7324 60.2168C64.9061 60.2168 65.0969 60.2468 65.2813 60.2468C65.4978 60.2383 65.7047 60.1954 65.8763 59.9788C65.9513 59.8856 66.0328 59.7891 66.021 59.6808C66.021 59.6294 66.0049 59.5672 65.9609 59.5071C65.9288 59.4857 65.902 59.4514 65.8709 59.4171L65.858 59.3935V59.3721C65.9352 58.8682 66.1025 58.7031 66.0832 58.3354C66.0778 58.2154 65.8956 58.1714 65.8366 57.9817C65.4582 58.1768 65.4314 58.2926 65.1451 58.5338C65.1666 58.8532 65.2266 58.9197 65.321 59.222L65.3403 59.2906L65.2716 59.2863H65.218C65.1323 59.2938 65.1237 59.2938 65.0294 59.3828L65.1119 59.7023L65.024 59.6808C64.9093 59.6379 64.8053 59.6304 64.7131 59.6304C64.309 59.6304 64.0592 59.9145 63.8298 60.1964C63.5554 60.5534 63.3313 60.9083 62.7814 60.9125H62.7085C62.6313 61.1055 62.5348 61.1891 62.3419 61.2878L62.1832 61.366C61.9881 61.4475 61.7758 61.5536 61.7115 61.7873L61.704 61.8195H61.6697C61.0179 61.8891 61.2452 62.3983 61.0437 62.8325L61.0286 62.8593L60.9997 62.8636C60.9247 62.8668 60.8496 62.8829 60.7939 62.8893L60.5109 63.0973C60.0456 63.1938 59.4281 63.4028 58.8686 63.4125C58.6649 63.4082 58.4794 63.3878 58.3047 63.3267C58.2779 63.3674 58.2211 63.4661 58.1149 63.4725C58.086 63.4725 58.0592 63.465 58.042 63.4532L57.9209 63.4028C57.8544 63.3674 57.7901 63.3524 57.7247 63.3428C57.669 63.3428 57.6143 63.3642 57.5403 63.4028C57.1094 63.4221 57.1544 63.7191 56.9186 63.9903C56.7771 64.1468 56.6763 64.2229 56.567 64.2261C56.4019 64.2186 56.3097 64.0685 56.1628 63.9206C55.9977 63.7769 55.8701 63.7137 55.7083 63.7137C55.6289 63.7137 55.541 63.7309 55.4703 63.748C55.2184 64.1618 54.8303 64.1554 54.5987 64.4384C54.5987 64.4416 54.513 64.6163 54.5269 64.7203C54.5344 64.7825 54.5344 64.7932 54.602 64.7954C54.6395 64.7954 54.7027 64.7814 54.7928 64.7525C54.93 64.6581 55.154 64.5059 55.4467 64.4587L55.466 64.4545L55.4874 64.4695C55.541 64.5048 55.5711 64.5584 55.5711 64.6088C55.5668 64.7911 55.3856 64.9947 55.3856 65.1609C55.5035 65.2574 55.6 65.2917 55.6783 65.2917M58.8503 55.8784C58.4408 55.8913 58.1385 56.0606 58.1503 56.3469C58.1546 56.4133 58.1717 56.4894 58.2125 56.572L58.3379 56.5077L58.3486 56.5012C58.4665 56.5012 58.5341 56.4937 58.6273 56.4637C58.9447 56.0456 59.8323 55.7508 59.9759 55.5332C59.962 55.4517 59.9523 55.3488 59.9223 55.2909L59.9202 55.2824C59.8773 55.1612 59.8376 55.1291 59.7165 55.1216C59.6565 55.2716 59.247 55.8848 59.0229 55.9073C58.9854 55.902 58.9522 55.8966 58.9179 55.8805H58.8482L58.8503 55.8784ZM58.3958 54.9082C58.235 55.0262 58.1428 55.1301 57.9584 55.2363L57.9638 55.247C58.0174 55.3499 58.2339 55.4003 58.325 55.3971H58.3283C58.5534 55.3756 58.8675 54.9361 58.89 54.8182C58.8149 54.7914 58.7538 54.7817 58.6992 54.7817C58.6005 54.7817 58.5169 54.8182 58.3958 54.9082Z" fill="white"/>
</g>
<mask id="mask11_837_378" style="mask-type:luminance" maskUnits="userSpaceOnUse" x="0" y="0" width="106" height="105">
<path d="M0 0H106V104.86H0V0Z" fill="white"/>
</mask>
<g mask="url(#mask11_837_378)">
<path d="M54.1684 62.7703C54.1684 62.7885 54.1738 62.8089 54.1684 62.8164C54.2671 62.9064 54.3346 62.9686 54.4332 62.9643C54.4868 62.9643 54.5511 62.945 54.6348 62.9064C54.6637 62.8871 54.6991 62.8657 54.7355 62.8657C54.7859 62.8657 54.8213 62.8871 54.8685 62.9139C55.0528 63.0426 55.2201 63.0748 55.3798 63.0748C55.5599 63.0748 55.7282 63.0169 55.8794 62.9911C56.0434 62.9343 56.3757 62.9215 56.8013 62.8646L57.0414 62.8035C57.288 62.7821 57.5131 62.692 57.6782 62.5034C57.839 62.4069 58.0019 62.3726 58.1659 62.3726C58.5058 62.3683 58.8284 62.4959 59.1522 62.528C59.5574 62.4283 60.1685 62.0692 60.1384 61.6061C60.132 61.5386 60.1149 61.471 60.0891 61.4046L60.0763 61.3724L60.1009 61.351C60.1974 61.2459 60.2832 61.0937 60.3764 60.979L60.4708 60.8611C60.5619 60.7581 60.668 60.6938 60.7967 60.6917C60.8395 60.6917 60.8931 60.7003 60.9414 60.7099C60.9692 60.7185 60.995 60.7271 61.0271 60.7271C61.4216 60.7303 62.037 59.9616 62.4143 59.8877C62.7574 59.8191 62.7874 59.6561 62.8914 59.4546L62.9771 59.3602C63.0586 59.1844 63.213 59.1534 63.4102 59.1437C63.4724 58.8264 63.5946 58.7642 63.9033 58.6334C64.2464 58.4683 64.3836 58.4062 64.4854 58.062C64.4211 57.8262 64.3032 57.3309 64.0888 57.3588C64.0459 57.3588 64.003 57.3749 63.9644 57.3824C63.8926 57.5582 63.9001 57.7415 63.8647 57.9141C63.7683 58.2293 63.6503 58.4126 63.2934 58.4394C62.6673 59.0011 62.1141 59.3077 61.5814 59.9155L61.5578 59.937L61.531 59.9295C61.4667 59.9209 61.4066 59.9145 61.3444 59.9145C60.6819 59.9145 60.1513 60.7003 59.5606 60.8664L59.5392 60.8739L59.521 60.8632C59.4674 60.8257 59.4674 60.7774 59.4599 60.7185C59.4674 60.7003 59.4599 60.6842 59.4545 60.667V60.6188C59.4545 60.5791 59.4524 60.533 59.4438 60.473C59.4909 60.3368 59.581 60.2371 59.7118 60.1996L59.8276 60.1321C60.0741 60.0335 60.1427 59.9348 60.1556 59.6851C60.1342 59.6454 60.1374 59.639 60.0805 59.639C59.9305 59.6325 59.4695 59.8405 58.2431 60.5995L58.2163 60.6177L58.1927 60.5995C58.1038 60.532 58.0931 60.4365 58.0427 60.324C57.9998 60.2543 57.9719 60.2307 57.9172 60.1986C57.765 60.25 57.631 60.2715 57.5463 60.3594L57.5227 60.3787L57.4949 60.3679C57.3201 60.2929 57.1872 60.2607 57.0821 60.2607C56.5461 60.2414 56.6426 61.099 55.963 61.1344C55.8922 61.1344 55.8097 61.1301 55.7164 61.099C55.5663 61.0315 55.5074 60.9211 55.502 60.8171C55.4966 60.6563 55.5803 60.4998 55.5749 60.413C55.5695 60.3594 55.5535 60.3229 55.3015 60.3229H55.1879C55.0957 60.3283 55.1022 60.3444 54.9992 60.3947L54.7977 60.4987C54.6691 60.5845 54.5544 60.6702 54.4836 60.8814C54.2306 61.128 53.6946 61.0261 53.7268 61.4474L53.7396 61.5482C53.7825 61.6404 53.8554 61.6597 53.9787 61.6597H54.0752C54.1749 61.6082 54.3249 61.4839 54.4857 61.4775C54.5822 61.4775 54.6894 61.5343 54.7216 61.6308L54.8931 61.6844L55.1311 61.6597C55.2522 61.5203 55.3991 61.4603 55.5385 61.4603C55.8204 61.4603 56.098 61.6318 56.3392 61.6318C56.4947 61.6265 56.6362 61.5675 56.7766 61.3424L56.8045 61.2995L56.8474 61.3317C56.931 61.3917 56.9996 61.4067 57.0553 61.4067C57.2119 61.411 57.3448 61.2105 57.4574 61.0583C57.5045 60.9833 57.5581 60.935 57.6557 60.8943C58.2753 60.9972 58.9828 60.8257 59.5531 61.3156L59.5713 61.3327L59.5735 61.3542L59.5713 61.3681C59.5713 61.7648 58.9356 61.8141 58.7009 61.9363L58.6634 61.9534L58.6355 61.9148C58.539 61.7615 58.4404 61.7251 58.3353 61.7251C58.2667 61.7251 58.1927 61.7465 58.1316 61.7723L57.9923 61.8366C57.9301 61.8473 57.8765 61.858 57.8315 61.858C57.7457 61.8612 57.6771 61.8302 57.5935 61.7637C57.1325 61.8419 57.1647 62.0563 56.8324 62.3426C56.7573 62.3608 56.6866 62.3672 56.6212 62.3672C56.1924 62.3704 56.0026 62.0907 55.5813 62.0992C55.4924 62.0992 55.3937 62.1132 55.3058 62.1239C55.1493 62.3201 54.9703 62.3865 54.7398 62.4862L54.7077 62.4948C54.4182 62.5848 54.1395 62.5999 54.1663 62.7735M53.6614 65.0119C53.6528 64.8403 53.5392 64.5616 53.4845 64.3772L52.8788 64.7739C52.8059 65.0569 52.5958 65.192 52.9195 65.4492L53.0375 65.342C53.0975 65.3399 53.1554 65.3892 53.1983 65.4128C53.4663 65.3764 53.6678 65.2745 53.6614 65.0119ZM53.0428 63.6258L53.1672 63.7083C53.3473 63.8423 53.4963 63.8691 53.6925 63.7255C53.6925 63.5346 53.6121 63.4317 53.4566 63.3117L53.3441 63.2238C53.1297 63.093 53.0739 63.0276 53.1318 62.8014C52.7931 62.7339 52.7202 62.8657 52.4929 63.0265C52.4286 63.0715 52.3685 63.0951 52.3149 63.1123C52.2345 63.4939 52.1166 63.6826 52.2506 64.0739L52.673 63.6815C52.7952 63.495 52.8724 63.5153 53.0428 63.6258ZM52.703 61.8655C52.9174 61.8698 53.0278 62.0295 53.1318 62.0435C53.2133 61.9298 53.298 61.8612 53.298 61.8762C53.2926 61.8162 53.2304 61.8355 53.1951 61.7315C53.1468 61.5954 53.1147 61.5043 53.1147 61.4099C53.1104 61.3456 53.5392 60.9093 53.0203 61.1151C52.9592 61.1408 52.6398 61.2223 52.6398 61.2223C52.0973 61.3724 52.0694 61.5396 51.7264 61.9427L51.721 61.9491C51.691 61.9792 51.6825 62.0027 51.6825 62.0027C51.6825 62.0135 51.7039 62.0531 51.8047 62.0939L51.9226 62.0917C51.9762 62.0917 52.0191 62.0917 52.0587 62.0703L52.1166 62.051C52.1188 62.051 52.6762 61.8645 52.7019 61.8687M52.9635 59.8148L52.9474 59.8362L52.9131 59.8405C52.6419 59.8641 52.4254 60.0045 52.2238 60.1728L52.0201 60.3658C52.0673 60.4976 52.0845 60.5534 52.1273 60.6552L52.1316 60.6606C52.1681 60.8032 52.1809 60.8889 52.4103 60.7571C52.5711 60.667 52.5497 60.6006 52.5497 60.6006C52.5497 60.6006 52.8156 60.4076 53.0514 60.4076C53.1372 60.4076 53.3194 60.3326 53.3194 60.3326C53.4266 60.2168 53.448 60.2929 53.4877 60.1139L53.5274 59.9338C53.5327 59.8695 53.6528 59.6443 53.5456 59.6443L53.254 59.6615C53.1307 59.6593 53.0278 59.699 52.9635 59.8148ZM53.5252 58.4222L53.4588 58.3043C53.3376 58.1242 53.2369 58.0503 53.0857 58.047C53.0385 58.047 52.4489 58.7117 52.1423 59.0065H52.1316C52.0287 59.0762 51.9387 59.1812 51.8443 59.3109C51.8089 59.3431 51.7843 59.3602 51.7232 59.3913L51.5753 59.4514C51.393 59.5586 51.3823 59.609 51.3662 59.759L51.8915 59.6572C52.4382 59.1587 53.299 59.1619 53.5252 58.4222ZM59.67 56.2589C59.3644 56.4583 59.1983 57.0093 58.7234 57.1744L59.0364 57.4071C59.655 57.272 60.3807 57.2698 60.638 56.6727L60.951 56.2579L60.9885 56.2525C60.9971 56.2525 61.0314 56.245 61.07 56.245C61.07 56.245 61.0786 56.2386 61.0861 56.2386C61.1665 56.2386 61.159 56.2643 61.1858 56.3061L61.2715 56.3297C61.397 56.2697 61.3702 56.2268 61.3702 56.1614C61.3702 56.1153 61.3573 56.0595 61.3402 55.9727V55.8848C61.1472 55.7519 60.9789 55.6972 60.8363 55.7047C60.5254 55.7047 60.0194 56.2836 59.9658 56.6738L59.9594 56.7113L59.9165 56.7263C59.8844 56.7392 59.8522 56.7413 59.8201 56.7413C59.7107 56.7456 59.8276 56.5988 59.7557 56.5634L59.745 56.5527L59.7386 56.2611H59.6678L59.67 56.2589ZM57.8293 54.2575L57.8551 54.2382C58.1606 54.0592 58.6559 53.9552 58.6698 53.7472C58.5797 53.6636 58.4661 53.625 58.3375 53.6261C58.062 53.6282 57.7854 53.8405 57.795 54.1192C57.795 54.1557 57.8036 54.1878 57.8133 54.2232L57.8293 54.2575ZM52.2999 57.3888C52.3021 57.4317 52.2914 57.4746 52.2785 57.526C52.1927 57.7426 52.0941 57.9677 52.0909 58.0685C52.211 58.0256 52.5819 57.7683 52.6205 57.6504L52.6816 57.5175C52.7352 57.3824 52.8349 57.2709 52.9999 57.228H53.0278C53.0653 57.2312 53.0964 57.2312 53.1243 57.2312C53.3108 57.227 53.4695 57.1583 53.6067 57.0704L53.7643 56.9611C53.9573 56.8196 54.1395 56.7102 54.3753 56.7081C54.3936 56.7081 54.4161 56.706 54.4504 56.7081H54.4675L54.4782 56.722C54.5876 56.8078 54.6841 56.8453 54.7655 56.8432C54.8427 56.8432 54.921 56.8089 55.0089 56.7317L55.1429 56.5891C55.2554 56.4605 55.3519 56.3618 55.4988 56.3618C55.5899 56.3618 55.6767 56.3972 55.7915 56.4712C56.1152 56.3533 56.2781 56.2118 56.47 55.9673L56.6019 55.7315L56.6373 55.7272C56.6555 55.7165 56.6737 55.7165 56.6984 55.7165C56.8292 55.7133 56.8592 55.8473 56.8624 55.918C56.8624 55.9577 56.8624 56.0017 56.8645 56.0402C56.8774 56.1582 56.8903 56.2546 57.0007 56.3147C57.0436 56.3308 57.08 56.3361 57.1122 56.3361C57.1872 56.3361 57.2462 56.3018 57.3083 56.2182C57.4016 56.1131 57.4155 56.096 57.5152 56.0167C57.4702 55.9706 57.4188 55.9223 57.408 55.8344C57.4048 55.7615 57.4466 55.6811 57.5238 55.6029C57.6182 55.5214 57.6374 55.4635 57.6353 55.3777C57.6353 55.3542 57.6321 55.322 57.6192 55.2855C57.4777 55.2319 57.2612 55.1676 57.0639 55.173C56.8999 55.1783 56.7616 55.2202 56.6855 55.3445L56.6694 55.3627L56.648 55.3692C56.1152 55.5214 55.7411 56.1657 55.0968 56.2118L55.0861 56.2161L55.0625 56.2085C54.7902 56.0553 54.5651 56.007 54.3657 56.007C54.0419 56.007 53.7889 56.17 53.5435 56.3661L53.2519 56.6127C53.1532 56.6952 53.0503 56.7767 52.9388 56.8346C52.7652 56.9525 52.5561 56.9632 52.376 56.9707C52.3171 56.9707 52.2581 56.96 52.2067 56.9665H52.1831C52.0652 56.9697 52.018 56.9986 52.0169 57.005V57.0126C51.9794 57.0554 52.2603 57.1198 52.2978 57.3813M52.7352 56.1089L52.956 55.9952C53.417 55.4807 54.0494 55.3477 54.5994 55.0787L54.6315 55.0647L54.6583 55.0797C54.7655 55.1333 54.8513 55.1483 54.9263 55.1365C55.145 55.1258 55.308 54.965 55.546 54.9329C55.6489 54.9221 55.7582 54.9597 55.8654 55.0476C55.9512 55.0722 56.0305 55.0765 56.1066 55.0669C56.3821 55.039 56.5569 54.8525 56.7573 54.6059L56.8452 54.4815C56.8924 54.4226 56.9578 54.3851 56.946 54.2854C56.9428 54.28 56.9428 54.2746 56.9428 54.2725C56.872 54.2725 56.6919 54.3979 56.5569 54.4183C56.5215 54.4215 56.4775 54.4162 56.4389 54.3797V54.3776C56.4121 54.3529 56.3886 54.3132 56.3875 54.2736C56.3768 54.131 56.499 54.0485 56.6791 53.9627C57.0264 53.8287 57.4456 53.5918 57.3952 53.4846C57.393 53.4631 57.3544 53.4396 57.2301 53.4567C57.0961 53.4749 56.9235 53.5929 56.7563 53.6068C56.6759 53.6154 56.634 53.7537 56.5579 53.7354L56.44 53.7783L56.4229 53.7762C56.3532 53.7569 56.2942 53.7547 56.2513 53.759C55.9222 53.7697 55.9941 54.1128 55.83 54.4076L55.8043 54.4537L55.7614 54.4387L55.665 54.4065H55.6607C55.5921 54.4151 55.5127 54.4172 55.4827 54.4226C54.3517 55.2523 53.2819 54.1996 52.4232 55.8409C52.4103 55.8559 52.4082 55.8698 52.4103 55.8869C52.4125 55.9513 52.5819 56.0745 52.7352 56.1046M57.4616 56.8196C57.4188 56.8035 57.3759 56.7939 57.3416 56.7982C57.288 56.7928 57.2451 56.8089 57.2022 56.8367L57.1829 56.8507L57.1647 56.856L57.1679 56.8593C57.1572 56.8646 57.1433 56.87 57.1282 56.8807C57.1004 56.8989 57.0768 56.9161 57.021 56.9236L56.9953 56.9171C56.9417 56.8979 56.901 56.8635 56.8806 56.8282L56.4175 57.2806H56.3961C56.1431 57.3084 55.8343 57.4842 55.5277 57.495C55.3991 57.5003 55.2597 57.4585 55.1418 57.3588C55.04 57.3374 54.9542 57.3267 54.8738 57.3267C54.4557 57.3267 54.2413 57.6729 53.7911 57.8337C53.8233 58.0009 53.8554 58.0406 53.9658 58.0406C54.013 58.0481 54.073 58.0299 54.1556 58.0084L54.3528 57.9356L54.3807 57.9784C54.4204 58.0299 54.4429 58.0856 54.4482 58.1328C54.4482 58.2486 54.3775 58.33 54.2928 58.433L54.1813 58.5402C54.0741 58.6581 54.0141 58.7621 54.0184 58.8853C54.0162 58.8982 54.0248 58.9229 54.0248 58.9422C54.0752 58.9775 54.1127 58.9872 54.1395 58.9872C54.2145 58.9872 54.3164 58.8907 54.4182 58.7857L54.5619 58.6463C54.5994 58.5884 54.6637 58.5605 54.7119 58.5562C55.159 58.4769 55.398 58.2614 55.829 58.1146C55.8183 58.0674 55.814 58.0181 55.8097 57.9731C55.8075 57.8691 55.8183 57.7833 55.8772 57.7179C55.934 57.6536 56.0273 57.6354 56.1377 57.63C56.1956 57.63 56.2599 57.6354 56.3392 57.6461L56.6233 57.6847C56.7198 57.7008 56.8141 57.7126 56.9042 57.7083C57.0596 57.7083 57.2044 57.674 57.3158 57.5689L57.3587 57.5368L57.4038 57.5764C57.5217 57.66 57.6246 57.6943 57.7329 57.689C57.8186 57.689 57.9044 57.6675 57.9901 57.63C58.2024 57.555 58.2989 57.5271 58.4404 57.525C58.4897 57.525 58.5562 57.5271 58.6333 57.5335C58.5208 57.3535 58.3996 57.2784 58.1081 57.2677C58.0437 57.3127 57.9923 57.3395 57.9365 57.3395C57.7822 57.3288 57.7511 57.1937 57.6964 57.0962C57.6471 56.9783 57.5892 56.8775 57.467 56.8239M67.3187 61.7015C67.2523 61.7401 67.1762 61.813 67.1043 61.8666C66.9778 61.9524 66.9403 61.9309 66.7967 61.9095C66.831 62.1539 66.8899 62.2954 67.1719 62.3211C67.3359 62.3511 67.4463 62.3361 67.6189 62.3908C67.6693 62.2943 67.7368 62.2332 67.8333 62.1528C67.8783 62.0746 67.9534 61.9963 67.9405 61.8741C67.7497 61.5889 67.5653 61.5257 67.3187 61.7015ZM68.3425 58.8317V58.8242C68.2782 58.5562 68.2171 58.5348 67.9716 58.5316L67.6864 58.5777C67.6328 58.5777 67.2362 58.8242 67.1751 58.835L67.0325 59.0601C66.9489 59.2037 66.8739 59.3688 66.876 59.5178C66.8824 59.5822 66.8974 59.6411 66.9382 59.7129L66.9596 59.7376L66.9403 59.7826C66.8085 59.9402 66.6134 59.8577 66.5072 60.011C66.5008 60.0463 66.4965 60.0731 66.4965 60.0967C66.5008 60.1857 66.5426 60.2361 66.6466 60.3218L66.8235 60.4633L66.7806 60.5127C66.6262 60.681 66.4086 60.6788 66.2489 60.7024C66.131 60.7453 66.1245 60.7774 66.1245 60.8096C66.1181 60.8879 66.2585 61.0433 66.3464 61.128C66.4536 61.0572 66.5876 60.9961 66.7324 60.9929C66.8074 60.9929 66.8899 61.0058 66.9618 61.0465C67.353 60.9608 67.5106 60.8428 67.4956 60.682C67.4935 60.607 67.457 60.5105 67.3648 60.3819C67.2609 60.2254 67.1419 60.086 67.1333 59.908C67.1226 59.7987 67.1729 59.6829 67.2877 59.5671C67.2941 59.4878 67.3498 59.3903 67.4742 59.3903L67.6564 59.2584C67.7915 59.2198 68.3425 58.9657 68.3425 58.8339" fill="white"/>
</g>
<mask id="mask12_837_378" style="mask-type:luminance" maskUnits="userSpaceOnUse" x="0" y="0" width="106" height="105">
<path d="M0 0H106V104.86H0V0Z" fill="white"/>
</mask>
<g mask="url(#mask12_837_378)">
<path d="M58.0915 58.7974L58.0422 58.8328L57.6563 58.3869C57.5866 58.3783 57.5148 58.2957 57.4483 58.2989C57.0485 58.3054 56.7086 58.4705 56.5436 58.7706L56.5189 58.8199L56.4792 58.7931C56.4289 58.7803 56.3892 58.7696 56.3549 58.7717C56.2112 58.7685 56.0869 58.8896 55.9207 58.9614L55.8939 58.9679L55.8725 58.9507C55.7706 58.8864 55.6924 58.8671 55.6259 58.8693C55.478 58.8693 55.3472 58.9979 55.2111 59.148C55.1253 59.2445 55.0556 59.2852 54.9784 59.2852C54.9162 59.2852 54.8648 59.2723 54.793 59.253C54.9184 59.6175 55.1575 59.6325 55.6742 59.7161C56.0011 59.6604 56.4782 59.5446 56.6518 59.2895L56.6625 59.2734L56.6872 59.2713C56.7044 59.267 56.7194 59.267 56.7376 59.267C57.027 59.267 57.31 59.4814 57.563 59.476C57.667 59.4728 57.7731 59.4385 57.8771 59.3366L57.8986 59.3152H57.92C57.9607 59.3227 57.9972 59.3313 58.0379 59.3313C58.188 59.3227 58.3306 59.2691 58.4667 59.1994L58.6275 59.0965C58.7272 59.0343 58.8184 58.9915 58.9127 58.985C59.0263 58.985 59.1303 59.0451 59.2429 59.148C59.3436 59.1801 59.4508 59.1994 59.5688 59.1951C59.8475 59.1909 60.1476 59.0772 60.3653 58.9732L60.496 58.881C60.6354 58.7127 60.7555 58.538 60.8541 58.345L60.8648 58.3236L60.8895 58.3172C60.9216 58.3129 60.9495 58.3064 60.9827 58.3064C61.1843 58.3064 61.5616 58.2078 61.7696 58.1993C61.8125 58.1993 61.8596 58.196 61.9004 58.1864C62.3656 58.0395 62.9113 57.5003 63.0099 57.2151C63.0099 57.2151 62.7097 57.2409 62.5232 57.2366C62.341 57.2419 60.7941 57.6257 59.8561 58.4758C59.6845 58.5937 59.5077 58.6366 59.3415 58.6366C59.1057 58.6431 58.8805 58.583 58.6618 58.5916C58.4689 58.5916 58.2866 58.6366 58.0937 58.7996M68.5243 59.8759L68.3421 59.8394C68.1384 59.7965 68.1866 59.803 67.9711 59.9573C67.939 60.041 67.9283 60.1096 67.939 60.161C67.939 60.2682 67.999 60.3433 68.2113 60.4397L68.237 60.4505L68.2477 60.4751C68.2477 60.4837 68.2692 60.5287 68.2692 60.5866C68.2799 60.6884 68.2424 60.8417 68.0762 60.9511C68.1448 61.1976 68.2391 61.2545 68.3614 61.2545C68.4707 61.2588 68.535 61.1944 68.6862 61.1001C68.758 61.039 68.6776 61.0015 68.7526 60.9607C68.7741 60.8396 68.8223 60.7485 68.8191 60.6713C68.8041 60.3208 68.9231 59.9466 68.5243 59.8759ZM63.0603 56.5837C63.4998 56.3565 64.2588 56.6202 64.2127 55.8258C63.6499 55.4399 63.0399 55.8044 62.7998 56.2578C62.7087 56.4294 62.7976 56.5709 62.9424 56.6363L63.0603 56.5837ZM62.1137 55.9266C62.5779 55.7872 62.7494 55.1355 62.6025 54.9725C62.2273 54.9618 62.2016 55.0047 61.9508 55.2427L61.8564 55.3209C61.7331 55.4013 61.7492 55.3038 61.6356 55.4603L61.5713 55.6564L61.6356 55.7808C61.7246 55.9545 61.8768 56.0381 62.1137 55.9277M60.0887 54.6777C60.0951 54.8985 60.2538 54.8771 60.5604 54.9736V54.9714C60.6676 55.0036 60.7179 55.0604 60.7576 55.1215C60.9484 54.8149 61.0824 54.652 61.4062 54.4494L61.3933 54.4408C61.2968 54.3765 61.1875 54.3411 61.061 54.3411C60.7565 54.3497 60.3931 54.5191 60.0908 54.5694C60.0887 54.608 60.0887 54.6455 60.0887 54.6777ZM60.5228 53.5467V53.5071C60.5196 53.4567 60.4971 53.4213 60.4285 53.372L60.3288 53.3002C60.3181 53.2927 60.2913 53.2787 60.2538 53.2466C60.2409 53.2434 60.2216 53.2434 60.2087 53.2359C60.1787 53.2359 60.1627 53.2466 60.1187 53.2787L60.0619 53.3055L60.0404 53.3184L60.0115 53.3055C59.9718 53.2927 59.9322 53.2905 59.8979 53.2873C59.6513 53.2766 59.1989 54.0517 59.1003 54.3143C59.1678 54.3197 59.2289 54.3207 59.289 54.3207C59.6502 54.3164 60.2699 53.7954 60.5228 53.5467ZM62.0708 54.0399C62.148 54.0527 62.2402 54.0688 62.3281 54.087C62.5382 53.982 62.5607 53.7976 62.5532 53.5918L62.55 53.4663C62.5757 53.3377 62.3892 53.1898 62.2477 53.2519C62.0204 53.3184 61.8693 53.5682 61.8017 53.7644L61.746 53.9412L61.7138 54.0592C61.8553 54.0302 61.9154 54.0163 62.0708 54.0399ZM69.4827 61.4442C69.4569 61.6157 69.3465 61.6822 69.2361 61.7272C69.369 61.8173 69.5041 61.8934 69.6006 61.9095C69.7217 61.9202 69.7721 61.8987 69.8204 61.6693C69.8246 61.6479 69.8268 61.6157 69.8279 61.5814C69.8429 61.4442 69.8332 61.3027 69.8493 61.1741C69.8707 61.0272 69.9372 60.8846 70.1001 60.7817L69.9018 60.5405C69.5802 60.577 69.4805 60.6563 69.4559 60.8171C69.4452 60.8814 69.4452 60.9672 69.4666 61.0712L69.4741 61.2427C69.4912 61.2984 69.5009 61.352 69.4912 61.4035L69.4848 61.4313V61.4464M68.4364 62.2118L68.3678 62.2868L68.2949 62.4047C68.2038 62.572 68.1952 62.6781 68.0226 62.7124C68.0741 62.796 68.0998 62.8014 68.2295 62.8089H68.2692L68.3442 62.8014C68.6519 62.6684 69.0121 62.5655 68.9853 62.3061C68.9853 62.2632 68.9767 62.2118 68.9552 62.1614C68.8588 62.1099 68.7816 62.0928 68.7237 62.0906C68.6133 62.0928 68.5297 62.0692 68.4364 62.2118ZM63.5266 54.6509C63.6928 54.5383 63.8375 54.4333 63.8268 54.2114C63.6424 53.9648 63.4033 53.9777 63.1836 54.1438C62.9906 54.2682 62.8459 54.4579 62.7408 54.6734L63.0517 54.8374C63.2168 54.7774 63.3637 54.7431 63.5266 54.6509ZM64.5557 55.4442C64.5879 55.7701 64.6844 56.0166 65.0917 56.0767C65.1914 55.7915 65.1496 55.8516 65.4294 55.7422L65.617 55.7208C65.6813 55.7058 65.84 55.6564 65.8872 55.6211C66.0233 55.5171 66.0941 55.2598 66.0941 55.1001C65.5173 54.8578 64.9502 54.9575 64.5568 55.4431M64.8645 57.7351L65.0542 57.585C65.26 57.3674 65.8003 57.5378 65.8689 56.9579C65.4326 56.499 64.8077 56.8753 64.6865 57.2859C64.9502 57.4928 64.7187 57.6075 64.8645 57.7361M67.5381 62.8989C67.1821 62.4272 66.6483 62.7639 66.4618 63.0876C66.4811 63.3106 66.5497 63.4553 66.8209 63.4671C66.9924 63.2248 67.3955 63.3974 67.5381 62.8989ZM66.4264 61.8762L66.4242 61.8698C66.4242 61.8451 66.4007 61.7701 66.3728 61.6683C66.1948 61.4431 65.8507 61.5954 65.5613 61.4914C65.4187 61.5825 64.5579 62.0134 64.5986 62.6084C64.6072 62.7103 64.5214 62.7103 64.5879 62.8099L64.6072 62.8464L64.5857 62.8678C64.4142 63.1198 64.1387 63.1852 63.8782 63.2773H63.8568L63.8375 63.2666C63.6799 63.1916 63.5523 63.1573 63.4462 63.1573C63.1675 63.1594 63.0003 63.3878 62.8459 63.5989L62.7741 63.7083L62.713 63.8091C62.6058 63.9227 62.5382 63.9806 62.4557 63.9806C62.3024 63.9699 62.3838 63.8519 62.2241 63.7383C62.1598 63.763 61.924 63.8616 61.9368 63.9977C61.9368 64.0149 61.9368 64.0235 61.9347 64.0192L62.0773 64.1049C62.1255 64.2143 62.2423 64.523 62.4707 64.5144C62.4889 64.5177 62.5168 64.5144 62.565 64.5059C62.6422 64.5316 62.7044 64.5359 62.758 64.5359C63.0957 64.5466 63.1246 64.1178 63.3508 63.8605L63.3722 63.8434L63.3937 63.8509H63.5298C64.2331 63.8444 64.4303 63.3824 65.1775 63.243L65.3651 63.0737C65.2986 62.8485 65.3329 62.7478 65.2064 62.6073L65.1957 62.5859L65.1989 62.5645C65.244 62.289 65.5527 62.2804 65.706 62.2086H65.7114C65.8014 62.1764 65.8582 62.1121 65.9 62.0606C65.9 61.9459 65.9643 61.8677 66.0608 61.8677H66.1059L66.2291 61.8644C66.3085 61.8677 66.3599 61.8752 66.3985 61.8752H66.4275M68.311 50.6255C68.311 50.6255 68.3153 50.6255 68.3174 50.6212C68.3978 50.5323 68.4921 50.4422 68.6176 50.3715L68.639 50.3661C68.6926 50.3532 68.743 50.3318 68.8105 50.3125C69.2072 50.2053 69.3948 50.1174 69.5266 49.7015C69.4645 49.5975 69.4762 49.5975 69.4623 49.605L69.4409 49.6071C69.4248 49.6071 69.4194 49.5985 69.4151 49.6039C69.3883 49.5996 69.3508 49.5996 69.3101 49.5996C68.9134 49.8355 68.3238 50.1699 68.2488 50.5794C68.2488 50.5944 68.2638 50.5977 68.2638 50.5987C68.2874 50.6137 68.3067 50.6309 68.3099 50.6277M70.2202 52.8907V52.8885C70.3489 52.6602 70.3456 52.612 70.3917 52.3632L70.3853 52.1917C70.2995 52.1274 70.2224 52.0974 70.1816 52.0974C70.1538 52.0974 70.143 52.1017 70.1302 52.1167C69.8793 52.3675 69.6767 52.7245 69.7035 53.1737C69.7142 53.4524 69.7099 53.3881 69.7807 53.6025L69.9201 53.4631C69.9415 53.1094 70.0648 53.1951 70.2202 52.8907ZM67.3451 58.0149C67.4094 57.9323 67.3601 57.8755 67.5016 57.7897C67.6302 57.7126 67.6753 57.6236 67.8232 57.5775C67.7771 57.5378 67.7321 57.5024 67.6817 57.466L67.5906 57.3802C67.507 57.3266 67.4405 57.2763 67.3462 57.2763C67.0867 57.3406 66.942 57.4864 66.7855 57.6943C66.689 57.8069 66.6976 57.8294 66.6751 57.8744C66.6472 57.9195 66.614 57.9495 66.5325 57.9891C66.7255 58.1414 66.8884 58.2464 67.0149 58.2432C67.1114 58.2432 67.2111 58.1939 67.3451 58.0149ZM66.1562 56.617L66.2506 56.7456C66.2913 56.7992 66.331 56.8528 66.3792 56.9107C66.5883 57.1208 66.5829 56.9922 66.8509 57.0072C66.8509 57.0072 66.7673 56.8357 66.8745 56.6513C66.9624 56.5055 67.0138 56.3833 67.1135 56.2578L67.0385 56.1614C66.8713 55.9116 66.7351 55.8237 66.4811 55.9437C66.3546 56.1957 66.0201 56.2439 66.1573 56.6159M64.381 54.1707C64.2931 54.3057 64.3703 54.4033 64.4936 54.4569L64.6061 54.4076C64.9942 54.2435 65.6642 54.429 65.6352 53.833C65.1389 53.5435 64.5911 53.8287 64.381 54.1696M64.9845 52.7052C65.1818 52.5873 65.3415 52.4758 65.3329 52.2335C65.1185 51.9762 64.8537 51.987 64.6061 52.1628C64.3874 52.2989 64.2256 52.5058 64.0991 52.7417L64.4507 52.9089C64.6394 52.8403 64.8012 52.8017 64.9867 52.7052M66.6633 53.8469C66.7244 53.6711 66.6955 53.7075 66.8777 53.6411L66.9935 53.6261C67.0331 53.6153 67.1328 53.5939 67.1596 53.5671C67.2497 53.5049 67.2936 53.3549 67.2947 53.253C66.9334 53.1083 66.5733 53.1715 66.3267 53.461C66.3438 53.6614 66.4028 53.8083 66.6633 53.8469ZM69.9854 55.1655C70.0927 55.0851 70.143 54.89 70.143 54.7667C69.7035 54.5823 69.2693 54.6595 68.9681 55.0283C68.9895 55.278 69.0646 55.4678 69.3755 55.5171C69.4527 55.2941 69.4184 55.3424 69.6349 55.2598L69.7807 55.2384C69.8268 55.2276 69.9522 55.1955 69.9844 55.1633M66.9999 54.3314C66.8884 54.5244 66.6033 54.5705 66.7169 54.8567L66.7952 54.9607C66.8273 54.9961 66.8595 55.039 66.9077 55.0786C67.0835 55.2469 67.0835 55.1472 67.3097 55.159C67.3097 55.159 67.239 55.0197 67.329 54.8878C67.4073 54.7645 67.4502 54.6734 67.5359 54.5727L67.4737 54.4976C67.3312 54.3047 67.2165 54.2275 66.9988 54.3304M68.4075 55.9459L68.3614 55.5771C68.3742 55.3777 68.1684 55.382 68.058 55.4238C68.0548 55.5846 68.0258 55.6093 67.8468 55.6307L67.7503 55.6522C67.7149 55.665 67.6796 55.665 67.6378 55.68C67.5434 55.7336 67.5059 55.8001 67.4877 55.9052C67.7492 56.1431 68.1309 56.0445 68.4075 55.9459ZM68.1448 57.1294L68.237 57.1219C68.3485 56.9932 69.0625 57.1862 68.8695 56.7467C68.6808 56.5055 68.3764 56.6791 68.103 56.7006C67.9926 56.7971 68.0215 57.0329 68.1448 57.1294ZM72.778 49.2105C72.718 49.3016 72.6783 49.382 72.5743 49.3949C71.9376 49.7593 71.6739 49.8526 71.6739 49.8526C71.6771 49.8976 71.5827 50.1485 71.5688 50.1999L71.3673 50.3854C71.3158 50.514 71.2847 50.5966 71.2901 50.6856C71.2922 50.7413 71.1882 50.6813 71.2129 50.7574V50.781C71.1979 50.9653 70.991 50.9932 70.9127 51.0704L70.6726 51.213C70.5139 51.3481 70.3907 51.481 70.3907 51.481L70.5429 51.6075C70.5429 51.6075 71.1689 51.3556 71.6331 51.2173C71.7939 51.2012 71.8582 50.9782 72.0587 50.8614L72.0769 50.8506H72.0984C72.1777 50.8882 72.1541 50.915 72.1702 50.9332C72.1809 50.9578 72.1895 50.9868 72.2002 51.0211L72.2367 51.1626L72.2474 51.1873L72.2388 51.2023C72.2602 51.3845 72.9313 51.6311 73.1125 51.6504C73.239 51.6761 73.3505 51.6825 73.4577 51.6825C73.9144 51.6761 74.2188 51.4467 74.4096 50.9964C74.3024 50.9643 74.2113 50.9428 74.1266 50.9482C74.0355 50.9482 73.9444 50.9696 73.8404 51.0232C73.7064 51.0833 73.6099 51.1594 73.4609 51.1594C73.3751 51.1637 73.284 51.1337 73.1768 51.0715L73.1157 51.0415L73.1436 50.9804C73.4277 50.4165 73.5595 50.4015 74.1995 50.2375C74.5393 50.1999 74.5458 49.9266 74.5533 49.6286C74.4493 49.591 74.3528 49.575 74.2713 49.575C73.7921 49.5728 73.5359 50.0863 73.0707 50.35C73.0471 50.3629 73.0235 50.3672 73.001 50.3672C72.8638 50.3565 72.5861 50.29 72.5465 50.0724C72.5465 50.0488 72.5465 50.0273 72.554 50.0123C72.6044 49.8623 72.8456 49.6972 73.0825 49.4892C73.3269 49.2962 73.552 49.0636 73.5413 48.9961C73.5413 48.9896 73.5434 48.9896 73.5413 48.9832C73.5413 48.9618 73.5199 48.9339 73.4738 48.9125C73.4309 48.8953 73.3837 48.8846 73.3773 48.8803C73.3205 48.8739 73.2733 48.8674 73.2326 48.8674C73.09 48.8674 72.9914 48.9575 72.8788 49.0818L72.7716 49.2137L72.778 49.2105Z" fill="white"/>
</g>
<mask id="mask13_837_378" style="mask-type:luminance" maskUnits="userSpaceOnUse" x="0" y="0" width="106" height="105">
<path d="M0 0H106V104.86H0V0Z" fill="white"/>
</mask>
<g mask="url(#mask13_837_378)">
<path d="M69.4496 48.7763L69.4657 48.7634H69.6629C69.6865 48.7634 69.6629 48.7634 69.7133 48.7527C69.7819 48.7634 69.6812 48.8953 69.7991 48.9736C69.813 48.9864 69.827 48.9928 69.8527 48.9864C69.9888 49.0004 70.274 48.7109 70.5173 48.5297C70.5688 48.4944 70.6245 48.4719 70.6781 48.4719C70.8196 48.4719 70.8925 48.5833 70.9354 48.6112L70.9783 48.6391L70.9611 48.6905C70.8379 49.0765 70.825 49.3252 70.3608 49.4774L70.2032 49.6425C70.2011 49.7304 70.1764 49.8783 70.096 50.0338C70.096 50.0338 69.9406 50.1624 69.6865 50.4411C69.4346 50.7059 69.1827 51.0393 69.2041 51.124L69.2063 51.1422C69.2063 51.1422 69.2063 51.1444 69.2256 51.1444C69.3724 51.1529 69.7616 50.9171 70.0971 50.7263L70.1057 50.7156H70.1185C70.8389 50.6051 70.6621 49.7883 71.0769 49.3541L71.1155 49.3112L71.8531 48.6552C71.8638 48.6016 71.8884 48.5426 71.9324 48.5051C72.0471 48.4065 72.1607 48.3421 72.2325 48.176C72.24 48.162 72.2433 48.1406 72.2401 48.1138C72.2379 47.9391 72.2593 47.5832 72.061 47.2562L72.0471 47.2348L72.0546 47.208C72.0846 47.104 72.1832 47.075 72.2733 47.075L72.4909 46.9528C72.6367 46.9442 72.7203 46.8885 72.7889 46.7759C72.8875 46.6527 72.9454 46.6323 72.9358 46.5401C72.9294 46.4007 72.8286 46.2828 72.4598 46.2646H72.2626C72.2368 46.2968 72.194 46.3321 72.1554 46.3611C72.091 46.4683 72.0139 46.5905 71.8766 46.6687L71.8638 46.6773H71.8423C71.823 46.6773 71.8027 46.673 71.7909 46.6773C71.6483 46.6773 71.6944 46.8992 71.6365 46.9207C71.4843 47.0225 71.4843 46.9764 71.48 47.074C71.4864 47.2348 71.4157 47.3345 71.4028 47.3484L71.5636 47.7236C71.5347 47.8029 71.48 47.9198 71.346 47.9541C71.2527 47.9562 70.8582 47.6507 70.8207 47.7804C70.6363 48.3507 70.0274 48.3271 69.5279 48.3882C69.0208 48.474 68.7282 48.4601 68.7603 49.2855C68.7571 49.2909 68.7603 49.2909 68.7603 49.2909H68.7678C69.2127 49.2855 69.1666 49.0657 69.4539 48.7742M71.0844 61.9084C70.9343 61.7958 70.6985 61.9963 70.6985 61.9963C70.2568 62.2536 69.8045 62.0134 69.8966 62.7338C70.3233 62.9407 70.5141 62.5323 70.84 62.3854L70.9397 62.4658C71.0716 62.558 71.1713 62.5323 71.3085 62.4819L71.287 62.2589C71.2849 62.2589 71.2388 62.0124 71.0844 61.9084ZM69.2942 64.2293L69.1816 64.2357C69.2727 64.4544 69.3467 64.5466 69.6147 64.5595C69.8045 64.5841 69.8398 64.567 69.9513 64.6902L70.0178 64.6441C70.2022 64.5048 70.2343 64.2282 70.2193 64.0363C69.8055 63.8809 69.6437 64.2153 69.2942 64.2314M56.8353 65.9906C56.949 65.7794 56.9929 65.744 57.2588 65.8512C57.6929 65.6175 57.4539 65.3635 57.5589 65.0955L57.3735 65.0129C57.069 65.7269 56.0871 65.2359 55.6561 65.9724C55.5243 66.3476 55.6004 66.8986 55.789 67.2159L56.1085 67.3124C56.414 66.9264 56.0335 66.4762 56.2768 66.2618C56.622 66.3658 56.7571 66.1439 56.8342 65.9917M53.7715 66.0678L53.6836 66.1492C53.6193 66.2329 53.5443 66.2929 53.4585 66.369C53.6193 66.4869 53.7233 66.5437 53.8734 66.4162C53.9409 66.3658 54.0181 66.2907 54.1199 66.294C54.2839 66.2157 54.4179 66.2146 54.3386 65.9724C54.0813 65.7976 53.9313 65.9016 53.7705 66.0688M57.9448 66.5566L58.0649 66.5395L58.1871 66.5823C58.3372 66.6917 58.2879 66.7581 58.2622 66.831L58.6299 66.8117C58.7746 66.7324 58.8035 66.6188 58.7907 66.4869C58.7853 66.4301 58.7799 66.3862 58.7799 66.3454L58.7585 66.2597L58.7649 66.1878C58.6727 66.1632 58.5741 66.1299 58.4819 66.0914L58.2815 66.0206C58.0746 65.9488 57.9406 65.907 57.7165 65.9048L57.6286 66.3979C57.6929 66.5266 57.7948 66.5695 57.9427 66.5587M57.2513 66.7667C56.6745 67.1258 56.8525 67.5632 56.7153 68.1067C57.0658 68.2868 57.2116 68.2375 57.2706 67.8891L57.2941 67.7208C57.3049 67.6801 57.3284 67.6425 57.3445 67.6029C57.4046 67.4635 57.4785 67.4442 57.5975 67.4046C57.5525 67.1548 57.5171 66.9071 57.2502 66.7656M83.6977 37.2587C83.7191 37.2801 83.7298 37.2908 83.7513 37.3048C83.7877 37.3123 83.7877 37.3123 83.8016 37.3123C83.8016 37.3123 83.8091 37.3101 83.8145 37.3123H83.8381L83.8402 37.3101H83.8552C83.9217 37.2887 83.8853 37.2887 83.8981 37.278C83.9013 37.2705 83.9013 37.2565 83.9196 37.2136C83.9217 37.1708 83.9281 37.1193 83.9378 37.0636C83.9517 36.9606 84.1683 36.6959 84.1683 36.6165C84.1683 36.6058 84.1833 36.6058 84.1511 36.5812C84.1372 36.5672 84.0246 36.4632 83.9968 36.4632C83.9003 36.474 83.7395 36.5168 83.6698 36.5672C83.584 36.6423 83.5797 36.9478 83.5765 36.951V36.9617C83.5765 36.9617 83.5637 36.9907 83.5551 37.0218V37.0293C83.5626 37.0871 83.6483 37.1665 83.6516 37.1847C83.6709 37.2126 83.6837 37.2479 83.6977 37.2587ZM79.1759 35.4298C79.0795 35.4341 79.0301 35.4813 78.9594 35.5424C78.8779 35.6206 78.8672 35.9444 78.8651 35.9497C78.8651 35.9497 78.8543 35.9862 78.8479 36.0205V36.0291C78.8533 36.0934 78.9422 36.1749 78.9444 36.1952C78.9594 36.2295 78.9819 36.2574 78.9894 36.2703C79.0108 36.2949 79.0269 36.3132 79.0473 36.3271C79.0795 36.3346 79.0816 36.3346 79.1009 36.3346H79.1491C79.2188 36.3132 79.1845 36.3046 79.192 36.3024C79.1984 36.2885 79.1984 36.2703 79.2113 36.2295C79.2199 36.1845 79.222 36.1288 79.2295 36.0655C79.2488 35.9583 79.4622 35.6721 79.4622 35.5906C79.4622 35.582 79.3517 35.5799 79.3282 35.5477C79.3174 35.5424 79.1974 35.4298 79.1759 35.4298ZM87.3843 37.9297C87.4057 38.0477 87.4004 38.3478 87.4197 38.4272C87.4261 38.4379 87.4197 38.4379 87.4454 38.4636C87.4561 38.4775 87.6705 38.5644 87.6887 38.5644C87.7509 38.5376 87.7724 38.4872 87.8045 38.4196C87.8442 38.3189 87.7724 37.9941 87.7724 37.9941V37.9876C87.7724 37.9876 87.7724 37.9512 87.7681 37.9126V37.904C87.7498 37.8429 87.5601 37.7711 87.5483 37.7539C87.5333 37.7271 87.5119 37.6918 87.5011 37.6832C87.4797 37.665 87.4668 37.6542 87.4497 37.6467C87.4261 37.6414 87.4229 37.6414 87.4175 37.6414C87.4111 37.6467 87.4111 37.6467 87.4089 37.6467H87.3907L87.38 37.6532C87.335 37.6832 87.3586 37.6778 87.3553 37.6907C87.3553 37.7046 87.3575 37.7228 87.3575 37.7679C87.3682 37.8129 87.3789 37.8697 87.3821 37.9287M82.7479 36.237C82.7693 36.2692 82.7972 36.3014 82.8197 36.3228C82.8518 36.3442 82.8658 36.3335 82.8786 36.3442H82.9548C83.0019 36.326 82.9923 36.3228 83.0019 36.3164C83.0094 36.2981 83.0019 36.3003 83.0019 36.2981C83.0126 36.2692 83.0041 36.0677 83.0384 35.8157C83.0984 35.4663 83.3225 34.9656 83.3246 34.8145C83.3225 34.8038 83.3246 34.7952 83.3085 34.7738C83.2924 34.7545 83.2603 34.7384 83.227 34.7448C83.1574 34.7448 83.1156 34.7738 83.063 34.8091C83.0126 34.8381 82.9644 34.8842 82.913 34.9463C82.8433 35.0214 82.7693 35.1715 82.7093 35.313C82.6771 35.3837 82.6557 35.4416 82.6256 35.4931C82.6192 35.5188 82.6128 35.5359 82.6042 35.5488C82.5956 35.5552 82.5956 35.5595 82.5956 35.5681C82.5956 35.5681 82.5956 35.5724 82.5935 35.5724H82.5892C82.5892 35.581 82.5838 35.6367 82.5678 35.7203C82.5656 35.7278 82.5656 35.7311 82.5656 35.7364C82.5656 35.8436 82.6868 36.0291 82.6996 36.0773C82.7136 36.1416 82.7425 36.206 82.7511 36.2381M80.5395 36.474C80.561 36.4525 80.6467 36.3528 80.6489 36.3421C80.6542 36.3271 80.6725 36.147 80.6896 35.938C80.7003 35.7375 80.636 35.1425 80.636 35.0943C80.636 35.0514 80.5953 34.9689 80.5256 35.0225C80.4527 35.0696 80.3326 35.3312 80.3219 35.3505C80.3166 35.3751 80.2919 35.4738 80.2812 35.5327C80.2705 35.6003 80.234 35.7943 80.2276 35.8543C80.2136 35.9047 80.1129 36.1834 80.0271 36.3582C79.9446 36.5297 79.4847 36.8835 79.534 36.9413C79.579 37.0057 79.7591 37.0378 79.8631 36.9896C79.9724 36.9414 80.3777 36.6423 80.428 36.6004C80.4731 36.5576 80.5245 36.504 80.5395 36.474ZM79.7248 33.9547C79.7966 33.8829 79.8599 33.705 79.9103 33.6578C79.9253 33.6321 79.9531 33.5002 79.9639 33.4906C79.9692 33.4873 79.9746 33.4852 79.9746 33.4766C79.9982 33.4852 80.025 33.4852 80.0603 33.4852H80.1086C80.175 33.4766 80.2726 33.3909 80.3401 33.3716C80.4527 33.3351 80.4581 33.2301 80.4581 33.1518C80.4548 33.0982 80.4581 32.9535 80.4613 32.8409C80.4613 32.8055 80.4023 32.8323 80.4366 32.7477C80.5309 32.5547 80.0721 32.7402 80.0721 32.7402C80.0132 32.931 79.9628 33.035 79.7012 33.3491C79.5651 33.5099 79.3421 33.6599 79.2488 33.7693C79.2027 33.8293 79.1609 33.8765 79.1288 33.9108C79.103 33.9505 79.088 33.9644 79.0859 34.0073C79.0816 34.0212 79.0827 34.0416 79.0859 34.0609C79.088 34.1541 79.1073 34.2903 79.1213 34.4039C79.1341 34.4822 79.1674 34.5883 79.2006 34.6783C79.2113 34.7212 79.2252 34.7609 79.237 34.7963C79.2499 34.8123 79.2542 34.8284 79.2617 34.8306C79.2617 34.8391 79.2692 34.8477 79.2746 34.852C79.2778 34.8574 79.2906 34.8767 79.3367 34.8734C79.3432 34.8734 79.3507 34.8702 79.3582 34.8702L79.3775 34.8574C79.4203 34.8166 79.4203 34.778 79.4203 34.7202V34.6955C79.4203 34.6934 79.4171 34.6923 79.4171 34.6891C79.4128 34.6108 79.4321 34.554 79.46 34.3503C79.4686 34.2721 79.5962 34.0973 79.7259 33.9558M81.231 37.74C81.2417 37.6757 81.3467 37.5074 81.3671 37.4859C81.3714 37.4581 81.4271 37.4784 81.4711 37.5202C81.5108 37.5653 81.5644 37.5449 81.5676 37.4709C81.5762 37.4045 81.6641 37.1279 81.6984 37.04C81.7348 36.9478 81.8592 36.6701 81.7895 36.5426C81.7219 36.4225 81.6716 36.207 81.678 36.1395C81.6866 36.073 81.7659 35.8897 81.7659 35.8854C81.768 35.879 81.782 35.8683 81.7873 35.864C81.7873 35.864 81.8656 35.7997 81.9481 35.7193C82.0339 35.6496 82.005 35.2947 81.9782 35.164C81.9492 35.0353 82.0103 34.5765 82.0285 34.4779C82.0478 34.3771 82.2215 34.0973 82.1958 34.0276C82.1743 33.959 82.0832 33.9494 81.9782 34.0148C81.8742 34.0748 81.5622 34.4178 81.5322 34.5647C81.5033 34.7116 81.3928 34.8563 81.4143 34.8681C81.4282 34.8713 81.4872 35.1511 81.5033 35.164C81.5247 35.18 81.5247 35.2101 81.5033 35.2283C81.4872 35.2476 81.4046 35.135 81.3189 35.2572C81.2395 35.3698 81.1731 35.7654 81.1902 35.8597C81.1956 35.954 81.2867 36.3099 81.3082 36.4096C81.3339 36.5104 81.469 36.9596 81.4336 37.0957C81.3928 37.2372 80.8869 37.4463 80.8761 37.4548H80.8525C80.8461 37.4548 80.8311 37.4463 80.8204 37.4463C80.8097 37.4463 80.7646 37.4548 80.74 37.4602C80.71 37.4774 80.6114 37.6156 80.5878 37.6746C80.5663 37.7346 80.4966 37.9179 80.4806 37.9855C80.4559 38.0498 80.3305 38.2642 80.2876 38.3178C80.2876 38.3178 79.921 39.4466 80.2876 39.2119C80.3916 39.1411 80.6339 38.842 80.6446 38.8367C80.6478 38.8367 80.6553 38.8324 80.6628 38.8324H80.6735C80.6735 38.8324 80.7078 38.8217 80.7443 38.8131C80.7818 38.8024 80.8386 38.6501 80.8622 38.5847C80.9051 38.5204 80.9887 38.2631 81.0123 38.1731C81.0444 38.0959 81.2052 37.8086 81.2288 37.7389M82.8283 41.6968C82.944 41.641 82.914 41.5038 83.0105 41.3644C83.1005 41.2251 83.5604 41.3301 83.5626 41.3387C83.5647 41.3387 83.7202 41.1704 83.7877 41.0386C83.8681 40.9046 84.0364 40.4275 84.1383 40.2367C84.2455 40.0437 84.2583 39.9237 84.2347 39.9012C84.1811 39.8186 84.0922 39.8476 84.0568 39.9044C84.0193 39.9644 83.7974 40.4114 83.7266 40.4833C83.6709 40.5562 83.4457 40.7941 83.4029 40.8349C83.3514 40.8756 83.3246 40.8563 83.3353 40.7963C83.3375 40.732 83.3889 40.5497 83.4447 40.3889C83.5122 40.2313 83.7405 39.8208 83.8145 39.7136C83.8788 39.6171 83.9239 39.2462 83.9131 39.1722C83.9088 39.095 83.881 38.4754 83.8874 38.4282C83.9003 38.3746 83.8874 38.1988 83.9303 38.1774C83.9592 38.1613 84.016 38.0787 84.016 38.0787C84.016 38.0787 84.0589 38.0412 84.0632 38.0412C84.0632 38.0412 84.0739 38.038 84.0739 38.0305C84.0739 38.0305 84.0632 38.0123 84.0503 37.9769C84.031 37.9533 83.9646 37.8965 83.911 37.934C83.8638 37.9715 83.7223 38.216 83.6794 38.3199C83.643 38.4271 83.5454 38.7273 83.5133 38.8527C83.4779 38.9707 83.3771 39.3394 83.3525 39.4316C83.3289 39.5302 83.2367 39.7125 83.2281 39.7211C83.2281 39.7318 83.2217 39.7318 83.2174 39.7318C83.2045 39.7404 83.1338 39.8175 83.0491 39.8947C82.9633 39.9858 82.7243 40.1992 82.6417 40.2731C82.5506 40.3568 82.2236 40.3889 82.1915 40.3889C82.1593 40.3889 82.0768 40.3728 82.036 40.3611C81.9932 40.3557 82.065 40.1724 82.2612 39.9794C82.512 39.7221 82.6042 39.4509 82.6042 39.4263C82.5935 39.3909 82.6042 39.2333 82.6096 39.1433C82.6203 39.0639 82.7339 38.8034 82.7489 38.7605C82.7521 38.7048 82.7521 38.5676 82.7489 38.5204C82.7457 38.4732 82.6889 38.3736 82.6825 38.3703C82.6825 38.3575 82.6717 38.3457 82.676 38.3275C82.676 38.3253 82.6975 38.261 82.7189 38.1849C82.7511 38.1152 82.9462 37.9887 82.9848 37.9308C83.0202 37.8611 82.9633 37.6274 82.9633 37.6199C82.9633 37.6092 82.9473 37.577 82.9419 37.5663C82.9376 37.5588 82.9376 37.5342 82.9419 37.531C82.9451 37.5202 82.9708 37.4152 83.0105 37.293C83.0427 37.1815 83.0684 36.8717 83.0684 36.8577C83.0684 36.8449 82.9183 36.7827 82.8218 36.9371C82.7446 37.0904 82.4852 37.5342 82.5002 37.546C82.5345 37.5524 82.6042 37.5974 82.6267 37.606C82.645 37.621 82.6267 37.6767 82.5892 37.7293C82.5463 37.7829 82.4756 37.9083 82.4177 38.0112C82.3641 38.1077 82.3266 38.4325 82.3266 38.4443V38.5226C82.3287 38.5515 82.3051 38.5687 82.2837 38.5687C82.259 38.5687 82.2837 38.6759 82.1872 38.7144C82.0886 38.7498 82.1304 39.0596 82.0961 39.1711C82.0661 39.2933 81.9138 39.5142 81.9138 39.5517C81.9138 39.5903 81.9246 39.6728 81.9289 39.6857C81.9331 39.7071 81.9256 39.7286 81.9128 39.7393L81.5644 40.0931C81.5644 40.0931 81.2781 40.42 81.3714 40.5068C81.4572 40.5819 81.8216 40.614 81.8752 40.6323C81.9235 40.6505 81.738 40.8038 81.4604 40.9721C81.1795 41.1436 80.9887 41.3366 81.0144 41.3419C81.0434 41.3473 81.202 41.4738 81.2663 41.4631C81.3307 41.4524 81.5536 41.343 81.6008 41.3291C81.6469 41.3226 81.7959 41.1629 81.8752 41.1007C81.961 41.0471 82.2719 40.7556 82.3652 40.6676C82.4638 40.5744 82.7832 40.4886 82.794 40.4961C82.8154 40.4961 82.8797 40.5122 82.914 40.5176C82.944 40.5283 82.959 40.5604 82.944 40.5819C82.928 40.614 82.6868 40.9356 82.3973 41.2916C82.1111 41.6496 81.8034 42.1277 81.8034 42.1384C81.8034 42.1449 81.6919 42.3271 81.7102 42.3389C81.7798 42.4032 81.8602 42.3389 81.9353 42.3346C82.0232 42.3282 82.2805 42.0516 82.3962 42.0645C82.5174 42.0645 82.7178 41.7589 82.8272 41.6978M87.931 39.2301C87.9096 39.1036 87.6416 39.1422 87.633 39.2086C87.6255 39.2365 87.5858 39.3909 87.5858 39.3995C87.5773 39.4209 87.5912 39.7446 87.5858 39.8218C87.5708 39.9162 87.5944 40.2764 87.5644 40.4061C87.5376 40.5379 87.3907 40.9582 87.3629 41.0461C87.3414 41.0836 87.3307 41.134 87.2514 41.1425C87.171 41.134 87.1602 41.0804 87.1442 41.0353C87.1259 40.9517 87.0981 40.7995 87.0745 40.688C87.0659 40.6376 87.0638 40.5379 87.0638 40.4307C87.0638 40.2656 87.0659 40.063 87.0852 39.9462C87.1066 39.7639 87.1281 39.2783 87.1281 39.2119V39.2011C87.1281 39.1615 87.0809 38.9524 87.0423 38.8367C87.0155 38.753 86.8301 38.3714 86.7958 38.3371C86.7958 38.3371 86.7389 37.8633 86.7207 37.8193C86.6907 37.7818 86.517 37.7271 86.5063 37.8515C86.5213 38.023 86.5492 38.4261 86.5706 38.5654C86.5942 38.7295 86.665 39.2119 86.6725 39.3233C86.6853 39.4252 86.6939 39.6471 86.6993 39.6846V39.69H86.695L86.7003 39.6964C86.6961 39.7211 86.6896 39.7714 86.6896 39.7822C86.6896 39.7929 86.6853 39.7993 86.6853 39.8143H86.68C86.6735 39.8175 86.6735 39.8208 86.6735 39.8293C86.6735 39.8486 86.6671 39.869 86.6553 39.8937C86.636 39.9473 86.6157 40.0202 86.5964 40.1048C86.5503 40.2678 86.3605 40.4436 86.3069 40.6173C86.2083 40.8424 85.7602 41.0857 85.6798 41.1232L85.5544 41.2658C85.4868 41.2551 85.593 41.0782 85.593 41.0643C85.593 41.0471 85.6412 40.9142 85.6509 40.8906C85.6723 40.866 85.668 40.9764 85.7473 40.6333C85.8159 40.3053 85.6048 40.0823 85.6048 39.8669C85.6048 39.7704 85.6026 39.6996 85.5876 39.6696C85.534 39.5195 85.5265 38.9406 85.489 38.8066C85.4675 38.7145 85.4504 38.4904 85.4247 38.4711C85.4139 38.4529 85.3925 38.4443 85.3861 38.4132L85.3646 38.3199L85.3625 38.1977C85.3625 38.1248 85.3657 38.0294 85.3764 37.9587C85.3796 37.8987 85.3796 37.7722 85.3796 37.6521C85.3796 37.5749 85.3796 37.4934 85.3775 37.4698C85.3775 37.4355 85.3368 37.3519 85.3207 37.338C85.3024 37.3187 85.2971 37.3037 85.2928 37.2737C85.2928 37.2737 85.2714 37.1172 85.2499 36.9413C85.2435 36.8845 85.221 36.7966 85.1963 36.7184C85.1159 36.6508 85.0141 36.7184 85.0066 36.7645C84.9894 36.9521 84.7922 37.3391 84.7386 37.4881H84.7686C84.7932 37.4988 84.8179 37.5095 84.8404 37.5095C84.8876 37.5202 84.8994 37.5588 84.908 37.576C84.9101 37.6006 84.9187 37.6221 84.9187 37.6446C84.9187 37.6767 84.9101 37.6939 84.908 37.7282C84.8972 37.799 84.879 37.9029 84.8683 37.9555V38.0412C84.8683 38.1377 84.8704 38.2663 84.8822 38.3457C84.8983 38.4454 85.0023 38.7938 85.0087 38.8066L85.0152 38.8388C85.0109 38.8817 84.983 39.4927 84.983 39.7393C84.983 39.854 84.9905 39.9666 85.0044 40.033C85.0452 40.2581 85.0194 40.6033 85.0323 40.6269C85.0452 40.6451 85.0452 40.6634 85.0452 40.6805C85.0452 40.6859 85.0452 40.7041 85.0344 40.717C85.0184 40.733 85.0184 40.733 85.0152 40.7448C85.0109 40.7534 84.998 40.7663 84.9862 40.7748L84.8854 40.8885C84.805 40.9742 84.8447 41.1061 84.7246 41.239C84.5081 41.4641 84.0032 42.4182 84.0032 42.7913C84.0032 42.7945 83.9421 43.1129 83.9421 43.0057C83.9592 43.2576 84.1029 43.5396 84.1029 43.7518C84.1029 43.7432 84.3173 43.9448 84.3226 43.6982C84.3226 43.5181 84.2905 43.3144 84.3891 43.0057C84.5906 42.4054 84.9433 41.7665 85.6176 41.6957C85.6551 41.6743 85.6605 41.67 85.697 41.6593H85.7162C85.7731 41.6635 85.7806 41.7021 85.7806 41.7182C85.7913 41.7375 85.7913 41.7557 85.7913 41.7665C85.7913 41.9358 85.6305 42.3775 85.5018 42.9028C85.3914 43.3745 85.3164 43.6135 85.2714 43.8076C85.2896 43.7947 85.3818 43.9544 85.3914 43.9469C85.6809 44.022 85.7345 43.6682 85.772 43.6275C85.772 43.6275 85.7795 43.6199 85.7806 43.6135C85.7913 43.5964 85.7956 43.5781 85.8052 43.5492C85.8224 43.5085 85.8374 43.4356 85.861 43.3562C85.8985 43.1954 85.9382 42.9864 85.9499 42.7795C85.9767 42.3475 86.13 41.551 86.1858 41.3709C86.2372 41.2047 86.4495 41.0493 86.5717 40.9614C86.6178 40.9378 86.636 40.9228 86.6703 40.9142C86.6746 40.9099 86.6918 40.9088 86.7025 40.9088C86.7668 40.9088 86.8097 40.9592 86.8097 41.0118V41.0257C86.8097 41.0825 86.9919 41.8962 87.1099 42.8267V42.8481C87.1099 42.8481 87.037 43.4302 87.037 44.0895C87.037 44.1602 87.037 44.2267 87.0477 44.2985C87.0798 44.8989 86.9298 45.5828 87.1313 45.6246C87.1527 45.6064 87.2299 45.6439 87.2342 45.5764C87.2985 45.5281 87.4486 45.154 87.4379 44.9471V44.8989C87.4315 44.871 87.4272 44.8474 87.4272 44.8238C87.4315 44.5837 87.573 44.2792 87.573 44.1592C87.5773 43.9909 87.6459 43.7947 87.6459 43.7325C87.6502 43.6575 87.6501 43.5739 87.6501 43.5224V43.4902C87.6501 43.4538 87.7488 42.8685 87.7295 42.6723C87.7102 42.4761 87.6073 42.1749 87.6062 41.9991H87.5161C87.5215 41.8008 87.6062 41.5628 87.6276 41.506V41.4931C87.6276 41.4288 87.7509 41.2229 87.7509 41.1329C87.7552 41.0171 87.8978 40.39 87.9482 40.0051C87.991 39.7264 87.9106 39.6943 87.9235 39.5849C87.9235 39.5849 88.0018 39.3973 87.9985 39.3973L87.9364 39.2279L87.931 39.2301ZM90.5982 41.2615C90.6089 41.2401 90.5338 40.8788 90.5799 40.6398C90.6185 40.4018 90.5885 39.8272 90.5124 39.72C90.432 39.6235 90.6303 39.5227 90.6282 39.512C90.6067 39.5013 90.5992 39.4777 90.6067 39.4531C90.6132 39.4381 90.5467 39.2129 90.5639 39.0918C90.5714 38.9707 90.5564 38.9235 90.5531 38.8667C90.5467 38.8163 90.5617 38.8131 90.5467 38.7402C90.5285 38.6587 90.5531 38.6437 90.5703 38.5955C90.6046 38.5311 90.6132 38.4775 90.6196 38.4775C90.6325 38.4775 90.6668 38.3982 90.7161 38.3167C90.7268 38.291 90.6561 37.8397 90.6325 37.6092C90.6142 37.3777 90.4802 37.3798 90.4802 37.3626C90.4802 37.3498 90.3516 37.3884 90.3334 37.8493C90.3259 38.0273 90.2851 38.2642 90.2851 38.2728C90.2851 38.2792 90.2776 38.291 90.2744 38.3017C90.2637 38.3071 90.2101 38.32 90.2069 38.3907C90.1887 38.5301 90.2069 38.7723 90.2101 38.7981C90.2176 38.9138 90.2176 39.1089 90.2101 39.1518C90.2069 39.1883 90.1972 39.0682 90.1972 39.0768C90.1929 39.0875 90.1801 39.095 90.1758 39.1057C90.1683 39.1089 90.1522 39.2161 90.1222 39.3523C90.0933 39.4852 89.9485 39.9826 89.8971 40.1295C89.8456 40.2774 89.8971 40.7727 89.9935 41.239C90.104 41.7 90.1115 41.8265 90.0257 41.8629C89.8971 41.9273 89.5401 41.5649 89.479 41.3891C89.4222 41.2219 89.1842 40.8467 89.1402 40.6848C89.092 40.524 89.0545 40.3846 89.0545 40.3846L89.048 40.3707C89.048 40.3686 89.0416 40.315 89.0416 40.2924C89.0416 40.2667 89.0545 40.033 89.0663 39.9247C89.0813 39.8175 89.1445 39.3309 89.1713 39.1679C89.1906 38.9996 89.2314 38.7627 89.2431 38.6287C89.2507 38.4968 89.2324 38.082 89.1971 37.9855C89.1724 37.889 89.1167 37.8965 89.1091 37.9104C88.7908 37.8965 88.9076 38.3907 88.8808 38.4529C88.8358 38.5118 88.988 38.8141 88.9612 38.8517C88.9376 38.8988 88.9344 39.006 88.9258 39.021C88.9173 39.0361 88.913 39.0532 88.913 39.0596C88.913 39.0704 88.9065 39.0864 88.9001 39.0897C88.8937 39.0918 88.6074 39.3041 88.571 39.4241C88.5356 39.5495 88.482 39.7618 88.482 39.8036C88.482 39.8465 88.5013 40.3557 88.5249 40.554C88.5506 40.747 88.6782 41.1693 88.6643 41.2744C88.645 41.3795 88.6074 41.5349 88.5935 41.6196C88.5849 41.6282 88.5849 41.641 88.5849 41.641C88.5849 41.641 88.4809 42.1599 88.4713 42.7473C88.4692 42.9993 88.7039 43.04 88.7436 43.2941C88.8186 43.8001 89.033 44.677 89.1102 44.8238C89.1938 44.9771 89.2281 45.0704 89.2603 45.0704C89.2903 45.0672 89.3761 45.1583 89.4157 45.2462C89.5251 45.4627 89.5787 45.4563 89.6805 45.5271C89.7716 45.5849 89.7716 45.4241 89.7716 45.4016C89.7824 45.3802 89.375 44.1935 89.2174 43.3005C89.0652 42.4086 89.1456 41.8994 89.1456 41.864C89.1434 41.834 89.1606 41.7354 89.1938 41.7461C89.2281 41.7568 89.5112 41.8125 89.5712 41.9841C89.6194 42.1588 89.8392 42.9564 89.9464 43.3777C90.0482 43.799 90.0139 44.0069 90.0536 44.0423C90.09 44.0809 90.3623 44.3253 90.4459 44.3746C90.5317 44.4175 90.6121 44.4604 90.6175 44.4604C90.6217 44.4604 90.6636 44.1463 90.4352 43.4892C90.1962 42.8417 90.149 42.2328 90.1994 42.2188C90.4031 42.1599 90.9669 42.6905 91.2682 43.3498C91.5651 44.0059 91.683 44.2685 91.7291 44.216C91.8471 44.0831 91.6755 43.7829 91.6144 43.4066C91.5555 43.0239 91.1385 42.2971 90.894 42.0345C90.6453 41.7718 90.6078 41.3076 90.6025 41.298C90.596 41.2873 90.596 41.2658 90.6025 41.2583M91.5769 40.5304C91.5769 40.5304 91.6627 40.5122 91.6498 40.4768C91.5994 40.3053 91.7624 40.3696 91.7817 40.3696C91.7967 40.3696 91.832 40.3846 91.8406 40.3975C91.8449 40.4114 92.1547 40.8906 92.3702 41.1651C92.5449 41.388 92.6167 41.4116 92.6446 41.3966C92.6725 41.3805 92.4667 41.0814 92.4945 40.8713C92.5299 40.6762 92.3509 40.464 92.2909 40.4393C92.2319 40.4125 91.9264 40.1091 91.8878 39.9601C91.8481 39.8036 91.6702 39.0939 91.5898 38.9031C91.504 38.7059 91.6219 38.5922 91.6069 38.5794C91.5898 38.5654 91.5855 38.5344 91.6037 38.5226C91.6198 38.5065 91.5715 38.4046 91.5823 38.3918C91.593 38.3789 91.6251 38.1055 91.6144 37.9662C91.6144 37.8268 91.563 37.7872 91.5448 37.8054C91.5276 37.8375 91.281 38.5022 91.1642 38.7809C91.0495 39.0596 91.2253 39.9708 91.385 40.2131C91.5351 40.4447 91.5705 40.5304 91.5769 40.5304ZM75.7155 63.8058C75.8334 63.8091 75.9299 63.7876 75.9942 63.7169C76.0285 63.5936 76.0607 63.5936 76.0553 63.511C76.0489 63.4199 76.0157 63.3427 75.9074 63.2773C75.8323 63.4971 75.6951 63.6257 75.5215 63.6257C75.3789 63.6257 75.2213 63.5486 75.0498 63.4242C75.0005 63.4521 74.9501 63.4778 74.8868 63.4885C74.7303 63.5689 74.6113 63.6386 74.6242 63.7994V63.8101L74.6274 63.8423L74.6103 63.8584C74.5534 63.9205 74.5395 63.9741 74.5395 64.0192C74.5374 64.1617 74.7829 64.3375 74.9501 64.4051L74.9801 64.1092C75.0444 63.942 75.2074 63.9002 75.3553 63.9002C75.4797 63.897 75.5997 63.8144 75.7155 63.8037M75.4625 64.8757C75.4003 65.0183 75.4239 65.0118 75.4904 65.1576L75.559 65.089C75.7305 64.9368 76.1507 65.3677 76.1732 64.8564C75.9717 64.7856 75.8366 64.6677 75.6158 64.7385C75.559 64.8178 75.4925 64.7846 75.4625 64.8757ZM73.9102 48.6155C73.9992 48.3904 73.9617 48.429 74.204 48.3432L74.3712 48.3239C74.4216 48.31 74.5599 48.2735 74.5995 48.2446C74.7207 48.1588 74.7818 47.9551 74.785 47.8265C74.2812 47.6314 73.7987 47.7139 73.4471 48.1074C73.475 48.3679 73.5565 48.5683 73.9081 48.6166M81.0219 34.0309C81.0573 34.0041 81.1506 33.9237 81.1666 33.8808C81.231 33.7864 81.1988 33.6203 81.1559 33.5345C80.7014 33.6096 80.3562 33.8647 80.234 34.2635C80.3455 34.4275 80.4913 34.5208 80.7754 34.4136C80.7571 34.2249 80.7486 34.2721 80.9019 34.1155L81.0219 34.0298V34.0309ZM75.5547 50.1088C75.3124 50.1731 75.1795 50.305 75.0369 50.4947C74.9447 50.6019 74.9533 50.6126 74.9276 50.6609C74.9061 50.7006 74.8761 50.7274 74.8043 50.7649C74.9801 50.901 75.1259 51.0007 75.2481 50.9975C75.336 50.9975 75.4282 50.946 75.5536 50.7831C75.6094 50.7134 75.5643 50.6609 75.6951 50.5773C75.8088 50.5044 75.8559 50.4315 75.9953 50.3811C75.9438 50.3468 75.9095 50.3114 75.8591 50.2782L75.7734 50.201C75.6962 50.1506 75.6362 50.1045 75.5525 50.1099M75.113 53.3538C75.0251 53.4631 75.0326 53.4803 75.008 53.5274C74.9865 53.5671 74.9522 53.5918 74.8847 53.6282C75.0562 53.7644 75.2063 53.8748 75.3221 53.864C75.4164 53.864 75.5043 53.8126 75.6265 53.6518C75.6887 53.581 75.6426 53.5285 75.7745 53.4438C75.8956 53.3688 75.9385 53.2937 76.0746 53.2455C76.0296 53.2101 75.9856 53.1812 75.9385 53.1437L75.857 53.0633C75.7755 53.0161 75.7176 52.9689 75.6319 52.9721C75.396 53.0257 75.262 53.1715 75.113 53.3538ZM74.8364 49.2512L74.9479 49.2877C74.9951 49.2962 75.0401 49.3112 75.0916 49.3241C75.3242 49.3595 75.3081 49.2952 75.574 49.2169C75.574 49.2169 75.47 49.1569 75.5568 49.0347C75.6265 48.9296 75.664 48.8599 75.7498 48.7645L75.664 48.7388C75.4636 48.6723 75.3242 48.6723 75.0884 48.8192C74.9812 48.98 74.6585 49.1151 74.8364 49.2512ZM71.9528 56.3479C71.9495 56.2943 71.942 56.23 71.9367 56.171C71.9345 56.0906 71.9345 56.0059 71.9549 55.9073L71.9613 55.8719L71.9967 55.8558C72.0257 55.8505 72.061 55.8237 72.1061 55.8001L72.2304 55.725C72.2947 55.65 72.3944 55.6071 72.522 55.6071C72.8275 55.4935 73.2778 55.2962 73.2477 55.0475C73.2435 54.9832 73.2113 54.9007 73.132 54.7935L73.1062 54.7677L73.117 54.7377C73.2531 54.1985 73.8952 53.7836 74.3069 53.4588C74.2554 53.3559 74.2297 53.2637 74.2275 53.1726C74.2168 52.9743 74.3219 52.821 74.4666 52.6398L74.6028 52.5562C74.695 52.4383 74.755 52.3225 74.7485 52.2024C74.7453 52.1445 74.725 52.0802 74.6842 52.0223C74.6017 51.9366 74.5202 51.8991 74.4773 51.8991C74.4302 51.9023 74.3948 51.9184 74.3508 52.0277L74.308 52.0952C74.2715 52.1917 74.2147 52.1521 74.1429 52.1671C73.9553 52.3225 73.7837 52.3847 73.6283 52.3847C73.2713 52.3772 73.0119 52.1295 72.746 52.1445C72.7139 52.1521 72.6689 52.1521 72.6303 52.1638L72.5981 52.1681L72.5713 52.1521C72.4834 52.0813 72.4255 52.0641 72.3933 52.0641C72.2969 52.0395 72.2454 52.3107 72.0503 52.4394C71.3728 52.777 71.018 53.9187 71.0448 54.2468C71.0448 54.2596 71.0491 54.2682 71.0512 54.2736C71.2656 54.2671 72.2197 53.4985 72.225 53.4074C72.2358 53.3913 72.2358 53.3859 72.2358 53.3666C72.2465 53.3184 72.1361 53.2809 72.1071 53.1479C72.1071 53.0729 72.1714 53.0354 72.2358 53.0161L72.3698 52.97C72.5091 52.9164 72.6313 52.8521 72.686 52.7342L72.7074 52.6956L72.7664 52.7041C73.0087 52.7749 73.4632 53.015 73.6594 53.1608L73.7108 53.1951L73.6862 53.2487C73.6304 53.3666 73.5393 53.4631 73.416 53.5596C73.0001 53.8523 72.5048 54.0366 72.5349 54.4687C72.5402 54.548 72.5606 54.6402 72.6035 54.7452L72.6142 54.7667L72.6088 54.7913C72.5338 55.1301 72.3269 55.2523 72.0728 55.2523C71.9828 55.2523 71.8884 55.2416 71.7834 55.2341L71.4725 55.1837C71.3707 55.1708 71.2795 55.1622 71.2013 55.1665C70.9601 55.1708 70.7864 55.233 70.5881 55.441C70.6663 55.516 70.7082 55.591 70.7103 55.6725C70.7124 55.7197 70.7071 55.7626 70.691 55.8119L71.2227 55.5171L71.2581 55.5385C71.4746 55.6886 71.51 55.8708 71.5154 56.0424V56.0638C71.5154 56.201 71.5132 56.3018 71.5154 56.3811C71.5218 56.5076 71.5433 56.5977 71.6397 56.7713C71.957 56.618 71.957 56.514 71.9538 56.3457M76.0864 57.8969C76.0285 58.5241 75.4003 58.2904 75.127 58.6774C74.9983 58.8339 74.919 59.0418 74.9276 59.2455C74.9276 59.3013 74.9404 59.3549 74.9522 59.4031L74.9844 59.3817C75.247 59.1994 75.4389 58.8993 75.7101 58.6881L75.7209 58.672H75.7316L75.8195 58.6698H75.8366C75.8581 58.6698 75.8688 58.6698 75.8977 58.6623H75.9085C75.9814 58.6623 75.9267 58.8124 75.9513 58.8575C76.1443 58.7931 76.2837 58.6559 76.2762 58.4608C76.2762 58.4479 76.2708 58.4286 76.2654 58.4158L76.2922 58.3783L76.2955 58.3536C76.4348 58.2871 76.5334 58.1757 76.6256 58.0427L76.7039 57.9162C76.8057 57.749 76.7017 57.794 76.854 57.794C76.9129 57.794 76.9655 57.6922 77.0405 57.7083C77.152 57.5989 77.271 57.5946 77.2495 57.5228C77.2495 57.5035 77.0212 57.4746 76.9955 57.4242C76.3876 57.4628 76.602 57.6257 76.0875 57.8991M74.2361 59.4749C74.1772 59.4781 74.1182 59.4856 74.0796 59.4964C73.7205 59.7129 73.565 59.8716 73.1845 59.8759C73.0944 59.8759 73.0022 59.8737 72.8972 59.8619C72.3633 60.3658 72.3398 60.7249 72.3398 61.1054L72.7793 61.1783L72.7471 60.9254C72.7214 60.4751 73.3667 60.3325 73.3667 60.3325C73.952 60.0892 74.2351 60.056 74.5952 59.6143C74.5202 59.5285 74.3884 59.4749 74.2361 59.4749ZM75.8613 59.7826C75.6683 59.7794 75.8098 59.9402 75.6362 60.0763L75.6126 60.0978L75.5761 60.0935C75.514 60.0806 75.4646 60.1857 75.411 60.1857C75.0423 60.1642 74.3305 60.6734 74.3208 60.6927C74.0603 61.0829 73.9724 61.4174 73.5275 61.754C73.6219 61.8237 73.6915 61.8612 73.7634 61.8655C73.832 61.8687 73.9167 61.8419 74.0335 61.7476C74.1343 61.6575 74.2072 61.5225 74.413 61.5117C74.5556 60.9597 74.934 60.7914 75.5386 60.6649V60.6584L75.7927 60.1996C76.3501 60.0667 76.3223 60.0763 76.5463 59.7065C76.4327 59.7386 76.3405 59.7601 76.184 59.7729L75.8602 59.7837L75.8613 59.7826ZM75.3746 62.4058C75.396 62.2471 75.4689 62.1024 75.5783 61.9845C75.634 61.9277 75.6983 61.8719 75.7573 61.8323L75.8859 61.7326L75.8002 61.4453L75.7809 61.4506C75.4614 61.5107 75.3778 61.665 75.2642 61.8237L75.1956 61.9459C75.0819 62.096 74.979 62.1978 74.8097 62.2868C74.7196 62.3436 74.6113 62.3597 74.5073 62.3511C74.3037 62.364 74.0957 62.2997 73.9328 62.2686C73.8513 62.3243 73.8427 62.3758 73.8427 62.4562C73.8427 62.4841 73.8491 62.5205 73.8588 62.5559L73.8802 62.7253C73.8834 62.7842 73.8834 62.8174 73.877 62.8668C73.9145 62.8807 73.9413 62.8882 73.9606 62.8882C73.996 62.8828 74.0249 62.8689 74.0657 62.8303L74.1482 62.7167L74.1761 62.721L74.2619 62.7167C74.2962 62.721 74.3326 62.721 74.3626 62.721C74.4527 62.7167 74.502 62.7638 74.532 62.8067C74.8397 62.721 75.2267 62.6599 75.3725 62.4079M74.1397 58.0835C74.1825 57.883 74.3862 57.7726 74.5899 57.7672C74.6789 57.7672 74.7614 57.7929 74.8386 57.8315L74.8986 57.7672L74.9469 57.4349L74.9683 57.421C75.3167 57.1337 75.3189 57.3352 75.7691 57.2784C75.7455 57.2076 75.7316 57.1347 75.7316 57.0597C75.7058 56.3693 76.1765 56.1807 76.1958 55.5267C76.0918 55.426 76.0103 55.3659 75.9085 55.3659C75.8924 55.3766 75.872 55.3766 75.857 55.3766C75.7691 55.5653 75.6662 55.7518 75.6769 55.9416V55.9738L75.6898 56.0231L75.6437 56.0391C75.0777 56.275 75.529 56.2643 75.2256 56.7327L75.1999 56.7713L75.157 56.7542C75.0894 56.7349 75.0283 56.7327 74.9769 56.7327C74.7475 56.7327 74.6263 56.886 74.5052 57.0436L74.3937 57.1958C74.2179 57.4145 73.9167 57.511 73.8952 57.6225C73.8277 58.0813 73.6304 58.0556 73.2627 58.4051C73.1513 58.509 73.043 58.5498 72.9476 58.5509C72.8082 58.5509 72.7225 58.4758 72.6946 58.4437C72.6839 58.4286 72.6774 58.4115 72.6731 58.3879C72.6774 58.3129 72.7267 58.2721 72.7342 58.2625C72.8414 58.106 72.9658 57.9323 72.9529 57.7758C72.9529 57.7404 72.9444 57.6922 72.9283 57.6536L72.9101 57.6161L72.9347 57.5882C73.2563 57.2269 73.4922 56.8378 73.6422 56.394C73.7859 56.0938 74.0968 55.8719 74.4312 55.843L74.4655 55.8387L74.487 55.8708C74.532 55.9191 74.5877 55.9437 74.6371 55.9673L74.7228 56.0102C74.7786 56.0316 74.8107 56.0638 74.8375 56.0938C74.949 56.0381 74.9619 56.0188 74.9619 55.9041V55.8076C74.8118 55.6832 74.7496 55.5396 74.7421 55.397C74.7282 55.0861 74.9522 54.7892 75.0819 54.534C74.9211 54.4483 74.8118 54.4022 74.7368 54.4022C74.6242 54.4022 74.5567 54.488 74.5149 54.756L74.4881 54.9811C74.4666 55.144 74.4312 55.3992 74.2147 55.4892L74.1975 55.4914H74.1868C74.1632 55.4892 74.1439 55.4871 74.1203 55.4871C73.5114 55.4785 73.386 56.1796 72.879 56.4819L72.8972 56.9053L72.8833 56.9214C72.7718 57.0683 72.5938 57.154 72.4523 57.2623C72.4009 57.2902 72.3537 57.3448 72.2947 57.406C72.3676 57.4853 72.418 57.5689 72.4255 57.6675C72.4255 57.764 72.3869 57.8541 72.3033 57.9634C72.0996 58.1971 71.8209 58.255 71.838 58.4565C71.8423 58.4715 71.8455 58.4887 71.8455 58.5123L72.0171 58.6227C72.3365 58.6709 72.731 59.0408 73.1105 59.0729C73.55 58.8221 73.9788 58.5626 74.1397 58.0813M91.6916 41.1822C91.6273 41.1661 91.7313 41.6185 91.6702 41.6057C91.8181 41.8844 91.9596 42.2296 92.3852 42.1824C92.3241 41.8629 91.9939 41.6539 91.817 41.3377L91.6916 41.1822ZM59.8359 67.2341L59.9356 67.2127C60.0642 67.1376 60.166 67.0701 60.1467 66.9071C59.9281 66.7528 59.7973 66.562 59.5786 66.4698C59.4435 66.4097 59.3599 66.4344 59.2312 66.4912C59.3899 66.8664 59.3192 67.0251 59.0619 67.3231L58.9118 67.4946C58.6717 67.7497 58.6116 67.8977 58.6652 68.2579C59.2034 68.0789 59.4757 67.887 59.8337 67.4721C59.7662 67.3574 59.6879 67.2899 59.8359 67.2341ZM61.4224 69.7791C61.3184 69.7769 61.2188 69.8412 61.1223 69.9077L61.0687 69.9324L61.0504 69.9516L61.0451 69.9731L61.0279 70.1124L61.0172 70.1736L61.0708 70.1714L61.0794 70.1628C61.1673 70.1628 61.3013 70.2593 61.4396 70.2647H61.4482C61.5425 70.2647 61.6304 70.2036 61.6915 70.061L61.7022 70.0396L61.6915 70.0181C61.6165 69.8487 61.52 69.7791 61.4203 69.7791M60.1607 69.5357C59.8305 69.4585 59.496 69.45 59.168 69.4392L59.3824 70.1714L59.719 70.1585C59.7244 69.9817 59.6976 69.9056 59.9377 69.8905C60.195 69.8938 60.3311 69.9259 60.5166 69.7255L60.3858 69.5722L60.1607 69.5357ZM58.2504 68.2053C57.8987 68.2514 57.8859 68.4348 57.9105 68.7381C57.9266 68.8486 57.9481 68.96 57.9427 69.0672C57.9481 69.1809 57.9899 69.1787 57.9534 69.257C57.9534 69.257 57.9791 69.3749 58.0424 69.421C58.1067 69.4768 58.3897 69.2527 58.3897 69.2527C58.5634 69.0812 58.5259 68.8721 58.3811 68.5966L58.2504 68.2053ZM61.029 67.8795C60.0406 67.5836 60.4072 68.7135 60.1521 68.9976L60.2411 69.0887C60.5734 68.9386 60.8125 68.6727 60.8971 68.3994C61.2155 68.096 61.6154 68.1936 61.937 67.7615C61.5586 67.4292 61.2863 67.5579 61.029 67.8795ZM92.8976 22.2409C92.5031 22.5732 92.01 23.2304 91.4719 23.3322C91.1749 23.3815 90.357 23.3001 90.3001 23.1393C90.2519 22.9892 91.2499 22.2784 91.4708 22.167C91.7173 22.033 91.9317 22.0201 92.2641 21.9032C92.4356 21.8368 92.8644 21.587 92.9716 21.5988C93.1645 21.6277 93.261 21.7489 93.1967 21.9772C93.1624 22.108 93.0402 22.1198 92.8965 22.242" fill="white"/>
</g>
</svg>
